<?xml version="1.0" standalone="no"?>
<!DOCTYPE svg PUBLIC "-//W3C//DTD SVG 1.1//EN" "http://www.w3.org/Graphics/SVG/1.1/DTD/svg11.dtd" >
<svg xmlns="http://www.w3.org/2000/svg" xmlns:xlink="http://www.w3.org/1999/xlink" version="1.1">
<metadata>
Created by FontForge 20170924 at Tue Apr  8 00:42:43 2014
 By flow,,,
Created by Georg Duffner with FontForge
Based on Guillaume Vauthier's French One Galliarde, v.1.00 June 6, 2012, initial release
</metadata>
<defs>
<font id="EBGaramond08-Regular" horiz-adv-x="1000" >
  <font-face 
    font-family="EB Garamond 08"
    font-weight="400"
    font-stretch="normal"
    units-per-em="1000"
    panose-1="2 2 5 2 6 2 6 2 4 4"
    ascent="726"
    descent="-274"
    x-height="422"
    cap-height="653"
    bbox="-174 -320 1965 961"
    underline-thickness="70"
    underline-position="-66"
    stemh="43"
    stemv="92"
    unicode-range="U+0020-FEFF"
  />
<missing-glyph horiz-adv-x="416" 
d="M368 -73h-320v539h320v-539zM90 -31h236v455h-236v-455z" />
    <glyph glyph-name="longs_i" unicode="&#x17f;i" horiz-adv-x="535" 
d="M50 362c-10 1 -27 3 -27 13c0 14 33 43 61 53c11 4 13 10 13 21c0 59 84 241 235 241c82 0 124 -34 124 -84c0 -27 -40 -45 -68 -45c-21 0 -19 13 -50 44c-21 21 -44 31 -58 31c-80 0 -100 -123 -100 -211v-317c0 -25 5 -56 18 -60c27 -8 43 -20 43 -30s-8 -20 -34 -20
c-22 0 -52 6 -68 6c-20 0 -67 -6 -89 -6c-26 0 -35 10 -35 20s17 18 44 26s38 39 38 64l1 254h-48zM356 302c0 17 -17 42 -41 51c-11 4 -21 10 -21 21s16 19 29 25c11 6 94 39 104 39c12 0 12 -9 12 -29v-301c0 -25 11 -56 38 -64s43 -16 43 -26s-8 -20 -34 -20
c-22 0 -72 6 -88 6c-20 0 -52 -6 -74 -6c-26 0 -35 10 -35 20s17 22 44 30c20 6 23 35 23 60v194z" />
    <glyph glyph-name="longs_l" unicode="&#x17f;l" horiz-adv-x="548" 
d="M424 678c8 2 13 3 16 3c12 0 12 -8 12 -27v-546c0 -25 11 -56 38 -64s43 -16 43 -26s-8 -20 -34 -20c-22 0 -72 6 -88 6c-20 0 -60 -6 -82 -6c-26 0 -28 10 -28 20s10 18 37 26s31 39 31 64v431c0 29 -3 51 -21 66c-24 20 -54 31 -68 31c-80 0 -100 -123 -100 -211v-317
c0 -25 4 -56 31 -64s36 -16 36 -26s-1 -20 -27 -20c-22 0 -65 6 -81 6c-20 0 -67 -6 -89 -6c-26 0 -35 10 -35 20s17 18 44 26s38 39 38 64l1 254h-48c-10 1 -27 3 -27 13c0 14 33 43 61 53c11 4 13 10 13 21c0 59 84 241 235 241c24 0 46 -3 64 -8c5 -1 23 -5 28 -4z" />
    <glyph glyph-name="longs_longs" unicode="&#x17f;&#x17f;" horiz-adv-x="552" 
d="M350 449c0 36 6 57 8 62c4 13 3 15 -1 24c-18 43 -38 58 -78 58c-60 0 -99 -40 -99 -120v-365c0 -47 14 -59 29 -64c27 -8 33 -16 33 -26s-3 -20 -29 -20c-22 0 -59 6 -75 6c-20 0 -66 -6 -88 -6c-26 0 -35 10 -35 20s17 18 44 26s38 39 38 64v254h-48
c-10 0 -27 3 -27 13c0 14 33 43 61 53c11 4 14 10 14 21c0 75 98 200 216 200c19 0 41 -5 71 -19c12 -6 28 -18 33 -18s18 10 31 21c43 36 88 57 149 57c51 0 98 -48 98 -85c0 -24 -12 -46 -37 -46c-24 0 -37 27 -52 48c-11 16 -35 27 -64 27c-68 0 -109 -77 -109 -136v-390
c0 -25 11 -56 38 -64s43 -16 43 -26s-8 -20 -34 -20c-22 0 -73 6 -89 6c-20 0 -50 -6 -72 -6c-26 0 -30 10 -30 20s12 18 39 26c19 6 22 39 22 64l1 254h-48c-10 0 -27 3 -27 13c0 14 33 43 61 53c11 4 13 10 13 21z" />
    <glyph glyph-name="longs_longs_i" unicode="&#x17f;&#x17f;i" horiz-adv-x="788" 
d="M392 4c-22 0 -51 -6 -73 -6c-26 0 -30 10 -30 20s12 18 39 26c19 6 22 39 22 64l1 254h-48c-10 0 -27 3 -27 13c0 14 33 43 61 53c11 4 13 10 13 21c0 36 6 57 8 62c4 13 3 15 -1 24c-18 43 -38 58 -78 58c-60 0 -99 -40 -99 -120v-365c0 -47 14 -59 29 -64
c27 -8 33 -16 33 -26s-3 -20 -29 -20c-22 0 -59 6 -75 6c-20 0 -66 -6 -88 -6c-26 0 -35 10 -35 20s17 18 44 26s38 39 38 64v254h-48c-10 0 -27 3 -27 13c0 14 33 43 61 53c11 4 14 10 14 21c0 75 98 200 216 200c19 0 41 -5 71 -19c12 -6 28 -18 33 -18s18 10 31 21
c43 36 79 57 137 57c82 0 124 -34 124 -84c0 -27 -40 -45 -68 -45c-21 0 -19 13 -50 44c-21 21 -44 31 -58 31c-65 -2 -100 -79 -100 -138v-390c0 -25 5 -56 18 -60c27 -8 43 -20 43 -30s-8 -20 -34 -20c-22 0 -52 6 -68 6zM609 108v194c0 17 -17 42 -41 51
c-11 4 -21 10 -21 21s16 19 29 25c11 6 94 39 104 39c12 0 12 -9 12 -29v-301c0 -25 11 -56 38 -64s43 -16 43 -26s-8 -20 -34 -20c-22 0 -73 6 -88 6c-20 0 -52 -6 -74 -6c-26 0 -35 10 -35 20s17 22 44 30c20 6 23 35 23 60z" />
    <glyph glyph-name="f_f" unicode="ff" horiz-adv-x="584" 
d="M180 426c0 -20 5 -16 13 -16h140c21 0 17 2 17 10c0 52 6 86 8 91c4 13 3 15 -1 24c-18 43 -38 58 -78 58c-60 0 -99 -41 -99 -120v-47zM334 355h-130c-26 0 -24 -9 -24 -23v-224c0 -47 14 -59 29 -64c27 -8 33 -16 33 -26s-3 -20 -29 -20c-22 0 -59 6 -75 6
c-20 0 -66 -6 -88 -6c-26 0 -35 10 -35 20s17 18 44 26s38 39 38 64v230c0 8 -5 14 -42 14c-9 0 -32 4 -32 14c0 14 34 30 61 40c11 4 13 18 13 29c0 101 98 214 216 214c19 0 41 -5 71 -19c12 -6 27 -15 32 -15s15 13 28 24c43 36 92 51 153 51c51 0 98 -48 98 -85
c0 -24 -12 -46 -37 -46c-24 0 -37 27 -52 48c-11 16 -35 27 -64 27c-68 0 -109 -77 -109 -136v-78c0 -15 9 -10 22 -10l65 2c16 0 23 -13 23 -23s-9 -34 -23 -34h-71c-12 0 -16 -9 -16 -23v-224c0 -25 11 -56 38 -64s43 -16 43 -26s-8 -20 -34 -20c-22 0 -73 6 -89 6
c-20 0 -50 -6 -72 -6c-26 0 -30 10 -30 20s12 18 39 26c19 6 22 39 22 64v224c0 20 -6 23 -16 23z" />
    <glyph glyph-name="f_i" unicode="fi" horiz-adv-x="535" 
d="M295 355h-99c-12 0 -16 -9 -16 -23v-224c0 -25 5 -56 18 -60c27 -8 43 -20 43 -30s-8 -20 -34 -20c-22 0 -52 6 -68 6c-20 0 -67 -6 -89 -6c-26 0 -35 10 -35 20s17 18 44 26s38 39 38 64v226c0 10 -5 18 -42 18c-9 0 -32 4 -32 14c0 14 33 30 61 40c11 4 13 18 13 30
c0 75 84 254 235 254c82 0 124 -34 124 -84c0 -27 -40 -45 -68 -45c-21 0 -19 13 -50 44c-21 21 -44 31 -58 31c-80 0 -100 -121 -100 -213c0 -10 9 -13 22 -13l123 2c16 0 30 1 35 3c28 11 61 23 67 23c12 0 12 -9 12 -29v-301c0 -25 11 -56 38 -64s43 -16 43 -26
s-8 -20 -34 -20c-22 0 -72 6 -88 6c-20 0 -52 -6 -74 -6c-26 0 -35 10 -35 20s17 22 44 30c20 6 23 35 23 60v194c0 34 -16 53 -61 53z" />
    <glyph glyph-name="f_l" unicode="fl" horiz-adv-x="548" 
d="M369 412v138c0 24 -5 36 -20 57c-11 16 -32 27 -61 27c-68 0 -108 -50 -108 -109v-97c0 -15 9 -16 22 -16h167zM395 671c21 6 40 10 45 10c12 0 12 -8 12 -27v-546c0 -25 11 -56 38 -64s43 -16 43 -26s-8 -20 -34 -20c-22 0 -72 6 -88 6c-20 0 -55 -6 -77 -6
c-26 0 -35 10 -35 20s17 18 44 26s26 39 26 64v247h-173c-12 0 -16 -9 -16 -23v-224c0 -37 8 -58 28 -64c27 -8 44 -16 44 -26s-9 -20 -35 -20c-22 0 -63 6 -79 6c-20 0 -66 -6 -88 -6c-26 0 -35 10 -35 20s17 18 44 26s38 39 38 64v230c0 8 -5 14 -42 14c-9 0 -32 4 -32 14
c0 14 33 30 61 40c11 4 13 18 13 29c0 138 87 255 225 255c18 0 39 -6 57 -16c4 -2 11 -4 16 -3z" />
    <glyph glyph-name="f_f_i" unicode="ffi" horiz-adv-x="788" 
d="M180 426c0 -20 5 -16 13 -16h140c21 0 17 2 17 10c0 52 6 86 8 91c4 13 3 15 -1 24c-18 43 -38 58 -78 58c-60 0 -99 -41 -99 -120v-47zM585 690c82 0 124 -34 124 -84c0 -27 -40 -45 -68 -45c-21 0 -19 13 -50 44c-21 21 -44 31 -58 31c-80 0 -100 -121 -100 -213
c0 -10 9 -13 22 -13l123 2c16 0 30 1 35 3c28 11 61 23 67 23c12 0 12 -9 12 -29v-301c0 -25 11 -56 38 -64s43 -16 43 -26s-8 -20 -34 -20c-22 0 -72 6 -88 6c-20 0 -52 -6 -74 -6c-26 0 -35 10 -35 20s17 22 44 30c20 6 23 35 23 60v194c0 34 -16 53 -61 53h-99
c-12 0 -16 -9 -16 -23v-224c0 -25 5 -56 18 -60c27 -8 43 -20 43 -30s-8 -20 -34 -20c-22 0 -52 6 -68 6c-19 0 -51 -6 -73 -6c-26 0 -30 10 -30 20s12 18 39 26c19 6 22 39 22 64v224c0 20 -6 23 -16 23h-130c-26 0 -24 -9 -24 -23v-224c0 -47 14 -59 29 -64
c27 -8 33 -16 33 -26s-3 -20 -29 -20c-22 0 -59 6 -75 6c-20 0 -66 -6 -88 -6c-26 0 -35 10 -35 20s17 18 44 26s38 39 38 64v230c0 8 -5 14 -42 14c-9 0 -32 4 -32 14c0 14 34 30 61 40c11 4 13 18 13 29c0 100 98 214 216 214c19 0 41 -5 71 -19c12 -6 27 -15 32 -15
s8 2 28 24c27 29 81 51 141 51z" />
    <glyph glyph-name="f_f_l" unicode="ffl" horiz-adv-x="801" 
d="M180 426c0 -20 5 -16 13 -16h140c21 0 17 2 17 10c0 52 6 86 8 91c4 13 3 15 -1 24c-18 43 -38 58 -78 58c-60 0 -99 -41 -99 -120v-47zM622 412v138c0 24 -5 36 -20 57c-11 16 -32 27 -61 27c-68 0 -108 -50 -108 -109v-97c0 -15 9 -16 22 -16h167zM575 690
c18 0 39 -6 57 -16c4 -2 11 -4 16 -3c21 6 40 10 45 10c12 0 12 -8 12 -27v-546c0 -25 11 -56 38 -64s43 -16 43 -26s-8 -20 -34 -20c-22 0 -72 6 -88 6c-20 0 -55 -6 -77 -6c-26 0 -35 10 -35 20s17 18 44 26s26 39 26 64v247h-173c-12 0 -16 -9 -16 -23v-224
c0 -37 8 -58 28 -64c27 -8 44 -16 44 -26s-9 -20 -35 -20c-22 0 -63 6 -79 6c-17 0 -50 -6 -72 -6c-26 0 -30 10 -30 20s12 18 39 26c19 6 22 39 22 64v224c0 20 -6 23 -16 23h-130c-26 0 -24 -9 -24 -23v-224c0 -47 14 -59 29 -64c27 -8 33 -16 33 -26s-3 -20 -29 -20
c-22 0 -59 6 -75 6c-20 0 -66 -6 -88 -6c-26 0 -35 10 -35 20s17 18 44 26s38 39 38 64v230c0 8 -5 14 -42 14c-9 0 -32 4 -32 14c0 14 34 30 61 40c11 4 13 18 13 29c0 101 98 214 216 214c19 0 41 -5 71 -19c12 -6 27 -15 32 -15s7 6 28 24c37 32 81 51 131 51z" />
    <glyph glyph-name="longs_t" unicode="&#x17f;t" horiz-adv-x="606" 
d="M344 593c-18 29 -60 43 -74 43c-80 0 -90 -123 -90 -211v-317c0 -25 11 -56 38 -64s43 -16 43 -26s-8 -20 -34 -20c-22 0 -72 6 -88 6c-20 0 -67 -6 -89 -6c-26 0 -35 10 -35 20s17 18 44 26s38 39 38 64l1 254h-48c-10 1 -27 3 -27 13c0 14 33 43 61 53
c11 4 13 10 13 21c0 59 84 241 235 241c60 0 110 -61 110 -118v-140c0 -10 9 -15 22 -15h93c16 0 24 -13 24 -23s-10 -36 -24 -36h-99c-12 0 -16 -9 -16 -23v-183c0 -70 17 -92 52 -92c37 0 62 18 72 18s15 -4 15 -14c0 -23 -54 -72 -114 -72c-59 0 -108 29 -108 114v235
c0 9 6 14 -31 14c-9 0 -32 4 -32 14c0 14 23 30 48 51c14 12 16 26 16 45v60c0 26 -1 44 -16 68z" />
    <glyph glyph-name="longs_longs_l" unicode="&#x17f;&#x17f;l" horiz-adv-x="788" 
d="M392 4c-21 0 -51 -6 -73 -6c-26 0 -30 10 -30 20s12 18 39 26c19 6 22 39 22 64l1 254h-48c-10 0 -27 3 -27 13c0 14 33 43 61 53c11 4 13 10 13 21c0 36 6 57 8 62c4 13 3 15 -1 24c-18 43 -38 58 -78 58c-60 0 -99 -40 -99 -120v-365c0 -47 14 -59 29 -64
c27 -8 33 -16 33 -26s-3 -20 -29 -20c-22 0 -59 6 -75 6c-20 0 -66 -6 -88 -6c-26 0 -35 10 -35 20s17 18 44 26s38 39 38 64v254h-48c-10 0 -27 3 -27 13c0 14 33 43 61 53c11 4 14 10 14 21c0 75 98 200 216 200c19 0 41 -5 71 -19c12 -6 28 -18 33 -18s18 9 31 21
c36 33 67 57 124 57c24 0 46 -3 64 -8c5 -1 23 -5 28 -4c8 2 13 3 16 3c12 0 12 -8 12 -27v-546c0 -25 11 -56 38 -64s43 -16 43 -26s-8 -20 -34 -20c-22 0 -72 6 -88 6c-20 0 -60 -6 -82 -6c-26 0 -28 10 -28 20s10 18 37 26s31 39 31 64v431c0 29 -4 47 -21 66
c-21 23 -41 31 -55 31c-80 0 -100 -123 -100 -211v-317c0 -25 4 -56 31 -64s36 -16 36 -26s-1 -20 -27 -20c-22 0 -65 6 -81 6z" />
    <glyph glyph-name="longs_s" unicode="&#x17f;s" horiz-adv-x="566" 
d="M50 362c-10 1 -27 3 -27 13c0 14 33 43 61 53c11 4 13 10 13 21c0 59 84 241 235 241c82 0 134 -32 134 -82c0 -23 -18 -46 -43 -46c-20 0 -42 15 -75 43c-24 20 -54 31 -68 31c-80 0 -100 -123 -100 -211v-317c0 -25 11 -56 38 -64s43 -16 43 -26s-8 -20 -34 -20
c-22 0 -72 6 -88 6c-20 0 -67 -6 -89 -6c-26 0 -35 10 -35 20s17 18 44 26s38 39 38 64l1 254h-48zM428 430c31 0 53 -11 84 -24c7 -3 8 -6 11 -16c3 -11 5 -40 5 -49c0 -12 0 -22 -12 -22c-10 0 -17 8 -30 25c-9 12 -37 40 -68 40c-37 0 -46 -25 -46 -43
c0 -21 11 -33 26 -44l99 -75c38 -29 48 -46 48 -84c0 -94 -63 -146 -151 -146c-28 0 -56 4 -66 8c-15 6 -20 7 -25 20s-17 48 -17 63c0 17 1 32 11 32s30 -9 44 -40c13 -27 44 -38 77 -38c28 0 61 24 61 50c0 43 -37 63 -47 70l-48 34c-39 28 -84 79 -84 114
c0 70 58 125 128 125z" />
    <glyph glyph-name=".notdef" horiz-adv-x="416" 
d="M368 -73h-320v539h320v-539zM90 -31h236v455h-236v-455z" />
    <glyph glyph-name="space" unicode=" " horiz-adv-x="207" 
 />
    <glyph glyph-name="exclam" unicode="!" horiz-adv-x="207" 
d="M97 115c29 0 58 -21 58 -50c0 -34 -25 -67 -59 -67c-29 0 -54 23 -54 52c0 33 22 65 55 65zM111 603c25 0 45 -13 45 -45c0 -84 -9 -183 -16 -217c-12 -63 -24 -101 -37 -101c-10 0 -20 12 -24 38c-5 36 -23 193 -23 270c0 29 25 55 55 55z" />
    <glyph glyph-name="quotedbl" unicode="&#x22;" horiz-adv-x="309" 
d="M52 620c0 14 11 28 19 35c16 13 36 21 52 21c10 0 14 -15 14 -32c0 -52 -40 -139 -56 -175c-5 -12 -14 -25 -19 -25s-7 14 -7 23c1 21 0 39 0 57c0 36 -3 95 -3 96zM183 620c0 14 11 28 19 35c16 13 36 21 52 21c10 0 14 -15 14 -32c0 -52 -40 -139 -56 -175
c-5 -12 -14 -25 -19 -25s-7 14 -7 23c1 21 0 39 0 57c0 36 -3 95 -3 96z" />
    <glyph glyph-name="numbersign" unicode="#" horiz-adv-x="728" 
d="M309 389l-57 -152h159l57 152h-159zM312 563c11 29 31 63 58 63c32 0 14 -39 -10 -102l-26 -70h159l41 109c11 29 30 63 49 63c31 0 23 -39 -1 -102l-26 -70h76c23 0 69 -10 69 -34c0 -14 -28 -31 -84 -31h-86l-57 -152h89c23 0 69 -10 69 -34c0 -14 -28 -31 -84 -31h-99
l-41 -110c-11 -29 -29 -62 -60 -62c-18 0 -15 30 12 101l27 71h-160l-41 -110c-11 -29 -29 -62 -51 -62c-18 0 -24 30 3 101l27 71h-53c-29 0 -70 11 -70 36c0 14 27 29 84 29h63l57 152h-65c-29 0 -70 11 -70 36c0 14 27 29 84 29h76z" />
    <glyph glyph-name="dollar" unicode="$" horiz-adv-x="409" 
d="M200 378l15 165c-42 -7 -69 -46 -69 -90c0 -33 22 -47 51 -72zM233 216l-17 -187c45 9 72 57 72 109c0 28 -18 48 -40 66zM220 601l6 72c2 20 20 36 37 36c9 0 13 -7 10 -36l-7 -76c25 -5 51 -14 67 -23c33 -19 34 -50 34 -85c0 -13 -5 -27 -20 -27c-12 0 -19 13 -40 46
c-12 19 -29 29 -46 33l-17 -200l94 -79c30 -25 48 -64 48 -102c0 -92 -81 -158 -173 -169l-7 -80c-1 -17 -19 -30 -35 -30c-10 0 -13 8 -12 28l7 81c-30 3 -66 12 -86 21c-37 17 -46 28 -46 60s7 67 27 67c16 0 23 -15 32 -45c9 -29 36 -54 77 -62l19 221l-91 75
c-29 23 -44 52 -44 90c0 95 74 177 166 184z" />
    <glyph glyph-name="percent" unicode="%" horiz-adv-x="763" 
d="M98 483c0 -47 38 -84 85 -84c49 0 85 44 85 93c0 46 -44 75 -90 75c-45 0 -80 -39 -80 -84zM178 620c73 0 145 -45 145 -118c0 -83 -62 -155 -145 -155c-78 0 -137 66 -137 144c0 73 64 129 137 129zM506 135c0 -47 38 -84 85 -84c49 0 85 44 85 93c0 46 -44 75 -90 75
c-45 0 -80 -39 -80 -84zM586 272c73 0 145 -45 145 -118c0 -83 -62 -155 -145 -155c-78 0 -137 66 -137 144c0 73 64 129 137 129zM606 570l-422 -560c-12 -16 -28 -28 -45 -28c-13 0 -16 32 -3 49l394 520c20 26 41 53 66 53c17 0 21 -20 10 -34z" />
    <glyph glyph-name="ampersand" unicode="&#x26;" horiz-adv-x="783" 
d="M291 455l17 13c13 10 31 39 31 58c0 37 -27 60 -61 60c-20 0 -60 -22 -60 -44c0 -14 45 -63 55 -71zM244 369l-93 -78c-15 -13 -20 -30 -20 -52c0 -79 47 -164 119 -164c63 0 104 38 146 86l23 26c-2 3 -5 5 -7 8c-58 66 -96 108 -159 166zM671 -4c-62 0 -119 6 -157 58
c0 0 -31 49 -66 96l-66 -73c-43 -48 -88 -89 -152 -89c-108 0 -188 84 -188 207c0 41 32 98 81 135l89 67l-17 15c-35 30 -57 72 -57 112c0 74 80 109 154 109c59 0 127 -22 127 -81c0 -34 -20 -54 -45 -75l-55 -46l7 -6c61 -53 94 -91 145 -152c4 -5 8 -9 12 -14l66 75
c11 13 14 21 14 28c0 10 -11 17 -17 18c-15 3 -24 7 -24 17s9 20 25 20h79c15 0 45 6 60 6c16 0 24 -10 24 -20s-19 -18 -34 -23c-11 -4 -49 -29 -74 -57l-90 -100c49 -61 100 -127 100 -127c38 -47 62 -48 119 -53c11 -1 17 -9 17 -17c0 -18 -47 -30 -77 -30z" />
    <glyph glyph-name="quotesingle" unicode="'" horiz-adv-x="178" 
d="M52 620c0 14 11 28 19 35c16 13 37 21 53 21c10 0 14 -15 14 -32c0 -52 -41 -139 -57 -175c-5 -12 -14 -25 -19 -25s-7 14 -7 23c1 21 1 39 1 57c0 36 -4 95 -4 96z" />
    <glyph glyph-name="parenleft" unicode="(" horiz-adv-x="291" 
d="M264 723c18 0 29 -7 29 -19c0 -11 -18 -22 -37 -46c-97 -127 -160 -251 -160 -468c0 -138 73 -276 147 -355c33 -35 50 -37 50 -71c0 -8 -9 -13 -16 -13c-28 0 -67 47 -100 87c-98 121 -132 264 -132 378c0 210 73 345 168 468c19 25 38 39 51 39z" />
    <glyph glyph-name="parenright" unicode=")" horiz-adv-x="291" 
d="M29 -249c-18 0 -29 7 -29 19c0 11 18 22 37 46c97 127 160 251 160 468c0 138 -73 276 -147 355c-33 35 -50 37 -50 71c0 8 9 13 16 13c28 0 67 -47 100 -87c98 -121 132 -264 132 -378c0 -210 -73 -345 -168 -468c-19 -25 -38 -39 -51 -39z" />
    <glyph glyph-name="asterisk" unicode="*" horiz-adv-x="395" 
d="M235 602c0 -14 -3 -33 -10 -66c-2 -13 -3 -24 -3 -26c0 -7 11 -9 24 -9c20 0 55 -1 82 -2c29 -1 44 -9 44 -21c0 -19 -35 -26 -91 -31c-43 -4 -53 -12 -47 -28c11 -27 30 -70 30 -101c0 -11 -6 -27 -18 -27c-28 0 -47 62 -72 105c-6 10 -7 20 -17 9
c-4 -5 -18 -15 -37 -35c-22 -23 -39 -37 -59 -37c-15 0 -24 8 -24 23c0 7 13 25 39 48c29 26 38 45 38 52s-15 20 -29 28c-29 17 -61 37 -61 61c0 10 6 15 20 15c21 0 35 -8 66 -23c13 -7 36 -18 41 -18c7 0 10 17 20 50c13 43 29 64 42 64c17 0 22 -24 22 -31z" />
    <glyph glyph-name="plus" unicode="+" horiz-adv-x="459" 
d="M200 172h-105c-21 0 -53 5 -53 30c0 18 21 36 53 36h105v105c0 36 17 53 32 53s33 -10 33 -42v-116h115c25 0 42 -13 42 -28s-13 -37 -43 -37h-114v-117c0 -19 -7 -40 -32 -40s-33 16 -33 38v118z" />
    <glyph glyph-name="comma" unicode="," horiz-adv-x="250" 
d="M97 115c62 0 114 -50 114 -110c0 -66 -77 -179 -136 -179c-9 0 -14 5 -14 13c0 17 73 62 73 111c0 37 -28 48 -54 63c-22 12 -39 27 -39 50c0 31 27 52 56 52z" />
    <glyph glyph-name="hyphen" unicode="-" horiz-adv-x="386" 
d="M320 271c14 1 31 -5 31 -28s-10 -48 -33 -49l-219 -18c-34 -3 -54 -1 -54 19c0 19 11 54 37 57z" />
    <glyph glyph-name="period" unicode="." horiz-adv-x="206" 
d="M114 116c28 0 52 -28 52 -54c0 -33 -28 -66 -61 -66c-37 0 -63 25 -63 62c0 36 36 58 72 58z" />
    <glyph glyph-name="slash" unicode="/" horiz-adv-x="237" 
d="M342 667l-299 -685c-8 -18 -19 -28 -36 -28c-19 0 -12 29 -3 49l278 645c17 39 23 53 48 53c17 0 19 -18 12 -34z" />
    <glyph glyph-name="zero" unicode="0" horiz-adv-x="510" 
d="M103 212c0 -79 74 -150 153 -150c83 0 152 83 152 166c0 78 -84 147 -162 147c-77 0 -143 -86 -143 -163zM251 430c109 0 224 -86 224 -195c0 -124 -100 -239 -224 -239c-115 0 -210 105 -210 221c0 109 101 213 210 213z" />
    <glyph glyph-name="one" unicode="1" horiz-adv-x="276" 
d="M180 328v-236c0 -25 11 -40 38 -48s43 -16 43 -26s-8 -20 -34 -20c-22 0 -72 6 -88 6c-20 0 -67 -6 -89 -6c-26 0 -35 10 -35 20s17 18 44 26s38 23 38 48v236c0 25 -11 41 -38 49s-38 16 -38 26s8 20 34 20c22 0 67 -6 83 -6c20 0 60 6 82 6c26 0 35 -10 35 -20
s-12 -18 -39 -26s-36 -24 -36 -49z" />
    <glyph glyph-name="two" unicode="2" horiz-adv-x="415" 
d="M272 68c28 -3 53 11 69 30c22 27 33 48 43 48c9 0 14 -8 14 -25c0 -50 -37 -123 -51 -123c-37 0 -82 6 -139 6c-65 0 -147 -6 -152 -6c-3 0 -16 17 -16 21s3 8 7 12c17 17 36 34 52 47c22 18 157 133 157 214c0 47 -24 69 -62 69c-45 0 -74 -10 -108 -48
c-4 -4 -9 -10 -15 -10s-13 16 -13 22c0 9 47 104 165 104c64 0 118 -45 118 -108c0 -42 -34.3047 -82.8516 -70 -126c-29.8701 -36.1064 -103 -113 -113 -120c-6 -4 3 -8 9 -8z" />
    <glyph glyph-name="three" unicode="3" horiz-adv-x="314" 
d="M181 429c59 0 108 -44 108 -104c0 -55 -10 -87 -92 -139c-4 -2 -4 -5 1 -6c95 -10 112 -72 112 -111c0 -130 -114 -225 -244 -225c-20 0 -36 15 -36 31c0 21 21 34 40 34c9 0 55 -12 74 -12c50 0 86 70 86 136c0 46 1 91 -73 91c-31 0 -58 -12 -62 -12
c-8 0 -17 15 -17 22c0 9 19 31 31 38c22 13 41 17 70 43c18 16 32 40 32 93c0 38 -29 59 -60 59c-32 0 -58 -18 -85 -47c-3 -4 -6 -8 -16 -8c-11 0 -14 9 -14 16c0 21 68 101 145 101z" />
    <glyph glyph-name="four" unicode="4" horiz-adv-x="529" 
d="M129 104c-9 -13 -7 -17 12 -17h119c11 0 13 2 13 13v186c0 11 0 16 -9 4zM334 432c17 0 22 -8 22 -29v-302c0 -10 2 -14 21 -14h99c11 0 16 -6 16 -19c0 -22 -19 -43 -51 -43h-67c-14 0 -18 -2 -18 -15v-131c0 -28 -28 -48 -56 -48c-22 0 -27 15 -27 30v148
c0 12 -2 15 -14 15h-202c-10 0 -15 12 -15 24c0 14 17 30 33 52l225 313c10 15 25 19 34 19z" />
    <glyph glyph-name="five" unicode="5" horiz-adv-x="328" 
d="M218 418l71 6c13 1 16 -11 16 -19c0 -13 -21 -55 -44 -61c-24 -6 -86.5879 -5.2832 -100 -12c-11.624 -5.82129 -24 -24 -24 -35c0 -15 24 -40 67 -79c47 -42 64 -111 64 -150c0 -79 -97 -167 -165 -220c-17 -13 -44 -17 -54 -17c-15 0 -35 17 -35 30c0 20 11 43 36 49
c8 2 36 3 75 3c18 0 71 45 71 98c0 93 -78 155 -141 208c-9 8 -16 20 -16 31s4 26 18 39l93 88c27 25 44 39 68 41z" />
    <glyph glyph-name="six" unicode="6" horiz-adv-x="474" 
d="M142 198c0 -72 48 -164 118 -164c56 0 85 78.1211 85 143c0 78.0557 -60.9443 144 -139 144c-51 0 -64 -70 -64 -123zM367 570c14 0 20 -6 20 -18c0 -7 -17 -25 -43 -37c-56 -26 -142 -86 -167 -162c-3 -9 12 -5 17 -3c15 5 38 8 56 8c91 0 191 -69 191 -157
c0 -104 -87 -211 -195 -211c-130 0 -204 105 -204 240c0 134 138 265 264 324c23 11 45 16 61 16z" />
    <glyph glyph-name="seven" unicode="7" horiz-adv-x="424" 
d="M395 418c15 0 18 -2 18 -16c0 -18 -4.8623 -31.0732 -22 -65l-248 -471c-23 -46 -29 -75 -63 -75c-11 0 -14 13 -14 30c0 5 9 25 22 50l237 449c6.99609 13.2686 3 13 -8 13h-187c-24 0 -34 -18 -41 -38c-5 -16 -19 -28 -32 -28c-7 0 -16 3 -16 24
c0 19 32.7949 92.5137 41 114c4.99414 13.0791 8 13 23 13h290z" />
    <glyph glyph-name="eight" unicode="8" horiz-adv-x="412" 
d="M164 289l-59 53c-28 26 -39 51 -39 89c0 84 85 133 169 133c66 0 118 -55 118 -121c0 -31 -20 -51 -42 -73l-56 -55l70 -71c34 -34 49 -65 49 -113c0 -98 -112 -139 -210 -139c-69 0 -126 57 -126 126c0 67 45 98 95 143zM283 445c0 38 -33 81 -74 81
c-37 0 -61 -43 -61 -80c0 -32 27 -50 52 -75l26 -26l27 24c23 21 30 45 30 76zM128 129c0 -45 30 -97 75 -97c37 0 81 30 81 67c0 52 -13 92 -52 127l-36 33l-34 -34c-26 -26 -34 -61 -34 -96z" />
    <glyph glyph-name="nine" unicode="9" horiz-adv-x="468" 
d="M140 208c0 -68 53 -118 120 -118c58 0 93 68 93 170c0 59 -29 134 -89 134c-86 0 -124 -99 -124 -186zM267 430c108 0 185 -78 185 -186c0 -126 -113 -297 -270 -354c-42 -15 -88 -33 -109 -33c-16 0 -25 8 -25 18c0 14 12 35 23 39c22 8 46 19 87 42
c54 31 108 75 115 92c3 8 -30 6 -69 13c-96 17 -163 76 -163 175c0 115 111 194 226 194z" />
    <glyph glyph-name="colon" unicode=":" horiz-adv-x="199" 
d="M112 405c32 0 54 -30 54 -62c0 -35 -32 -59 -67 -59c-31 0 -56 25 -56 56c0 37 32 65 69 65zM112 116c32 0 54 -30 54 -62c0 -35 -32 -59 -67 -59c-31 0 -56 25 -56 56c0 37 32 65 69 65z" />
    <glyph glyph-name="semicolon" unicode=";" horiz-adv-x="231" 
d="M123 353c32 0 54 -30 54 -62c0 -35 -32 -59 -67 -59c-31 0 -56 25 -56 56c0 37 32 65 69 65zM97 115c62 0 114 -50 114 -110c0 -66 -77 -179 -136 -179c-9 0 -14 5 -14 13c0 17 73 62 73 111c0 37 -28 48 -54 63c-22 12 -39 27 -39 50c0 31 27 52 56 52z" />
    <glyph glyph-name="less" unicode="&#x3c;" horiz-adv-x="578" 
d="M136 245l366 -166c19 -9 26 -47 26 -56c0 -5 -5 -13 -11 -13c-1 0 -2 1 -3 1l-429 200c-17 8 -41 21 -41 27c0 9 13 37 33 46l437 200c1 0 2 1 3 1c6 0 10 -4 10 -10c0 -12 -13 -50 -33 -59l-359 -162c-5 -2 -4 -7 1 -9z" />
    <glyph glyph-name="equal" unicode="=" horiz-adv-x="459" 
d="M95 244c-21 0 -53 5 -53 30c0 18 21 36 53 36h285c25 0 42 -13 42 -28s-13 -37 -43 -37zM95 86c-21 0 -53 5 -53 30c0 18 21 36 53 36h285c25 0 42 -13 42 -28s-13 -37 -43 -37z" />
    <glyph glyph-name="greater" unicode="&#x3e;" horiz-adv-x="578" 
d="M442 250l-366 166c-19 9 -26 47 -26 56c0 5 5 13 11 13c1 0 2 -1 3 -1l429 -200c17 -8 41 -21 41 -27c0 -9 -13 -37 -33 -46l-437 -200c-1 0 -2 -1 -3 -1c-6 0 -10 4 -10 10c0 12 13 50 33 59l359 162c5 2 4 7 -1 9z" />
    <glyph glyph-name="question" unicode="?" horiz-adv-x="266" 
d="M162 65c0 -36 -23 -65 -61 -65c-32 0 -59 24 -59 57c0 34 27 60 63 60c31 0 57 -20 57 -52zM230 363c0 -51 -12 -67 -30 -74c-26 -10 -43 -14 -74 -26c-8 -3 -19 -60 -38 -60c-15 0 -26 56 -26 83c0 21 4 51 17 56c25 10 45 14 66 23c35 15 52 36 52 70
c0 21 -18 45 -34 50c-22 6 -45 12 -74 23c-22 8 -36 20 -36 47c0 43 6 72 18 72c121 0 159 -107 159 -264z" />
    <glyph glyph-name="at" unicode="@" horiz-adv-x="725" 
d="M391 341c-57 0 -111 -52 -111 -150c0 -72 38 -94 76 -94c24 0 34 8 54 22c12 8 21 18 27 49l19 103c1 4 1 8 1 12c0 37 -23 58 -66 58zM490 58c-41 0 -44 42 -54 42s-53 -42 -116 -42c-66 0 -127 44 -127 114c0 121 110 204 220 204c20 0 53 -9 65 -13c15 -5 19 -6 23 -6
c10 0 15 19 25 19c4 0 28 -4 25 -8c-9 -24 -19 -64 -22 -80l-21 -132c-1 -9 -3 -18 -3 -27c0 -15 4 -29 18 -29c70 0 122 53 122 136c0 139 -114 242 -253 242c-158 0 -292 -102 -292 -271c0 -159 132 -277 291 -277c65 0 157 30 207 72c6 5 13 10 18 10c9 0 14 -4 14 -13
c0 -24 -142 -114 -250 -114c-178 0 -332 128 -332 312c0 214 173 326 364 326c149 0 285 -123 285 -272c0 -117 -100 -193 -207 -193z" />
    <glyph glyph-name="A" unicode="A" horiz-adv-x="649" 
d="M238 272c-6 -16 -9 -21 9 -21h122c20 0 21 4 11 36l-61 187c-3 10 -7 7 -11 -3zM523 4c-66 0 -104 -6 -134 -6c-13 0 -32 6 -32 17c0 15 32 20 54 30c36 17 34 36 29 53l-29 95c-3 9 -8 12 -16 12h-167c-5 0 -12 -1 -16 -11l-38 -109c-6 -18 -7 -34 22 -42
c26 -7 37 -18 37 -28c0 -11 -10 -17 -35 -17c-19 0 -63 6 -82 6c-25 0 -48 -6 -63 -6c-19 0 -33 6 -33 17c0 15 33 20 55 30c33 15 32 20 47 61l153 423c17 43 17 56 28 57c19 2 37 30 43 30c17 0 23 -33 37 -72l132 -373c29 -81 40 -108 89 -126c31 -11 40 -21 40 -31
c0 -11 -10 -16 -29 -16c-23 0 -59 6 -92 6z" />
    <glyph glyph-name="B" unicode="B" horiz-adv-x="523" 
d="M217 85c0 -30 16 -46 54 -46c75 0 116 61 116 129c0 84 -39 123 -140 123c-15 0 -30 -6 -30 -27v-179zM217 528v-173c0 -15 12 -20 30 -20c61 0 123 50 123 111c0 71 -50 109 -107 109c-40 0 -46 -6 -46 -27zM169 591c24 0 81 5 126 5c78 0 161 -41 161 -117
c0 -71 -34 -125 -91 -144c-11 -4 -10 -14 -2 -15c75 -11 135 -59 135 -140c0 -123 -104 -182 -237 -182c-21 0 -76 5 -95 5c-47 0 -106 -5 -113 -5c-11 1 -33 7 -33 17c0 15 33 20 55 30c34 15 47 47 47 84v353c0 57 -25 58 -82 74c-9 3 -16 8 -16 17c0 12 14 18 35 18h110z
" />
    <glyph glyph-name="C" unicode="C" horiz-adv-x="677" 
d="M408 608c76 0 166 -38 189 -40s30 -55 30 -110c0 -17 -7 -28 -18 -28c-15 0 -27 21 -40 63c-14 44 -110 70 -181 70c-129 0 -230 -108 -230 -246c0 -153 113 -289 272 -289c101 0 124 70 177 145c4 6 10 8 18 8s16 -10 16 -28c0 -8 -31 -76 -40 -95
c-16 -33 -21 -40 -46 -49c-40 -14 -110 -25 -166 -25c-169 0 -343 113 -343 291c0 197 165 333 362 333z" />
    <glyph glyph-name="D" unicode="D" horiz-adv-x="716" 
d="M217 521v-398c0 -67 26 -85 160 -85c119 0 182 134 182 261c0 146 -113 254 -255 254c-43 0 -87 -10 -87 -32zM337 598c168 0 334 -109 334 -279c0 -173 -97 -326 -312 -326c-95 0 -148 11 -194 11s-105 -6 -112 -6c-11 1 -33 6 -33 17c0 15 33 20 55 30
c33 15 47 35 47 72v365c0 57 -25 57 -82 74c-9 3 -16 8 -16 17c0 12 14 18 35 18c31 0 50 -1 80 -1c62 0 136 8 198 8z" />
    <glyph glyph-name="E" unicode="E" horiz-adv-x="569" 
d="M217 356c0 -24 9 -31 23 -31h86c32 0 43 11 61 28c11 10 20 25 31 25c9 0 11 -8 11 -20c0 -8 -4 -43 -4 -58s1 -46 1 -57c0 -10 -3 -26 -13 -26c-13 0 -26 28 -32 38c-7 11 -14 21 -35 21h-105c-19 0 -24 -5 -24 -24v-168c0 -26 9 -39 38 -39h140c77 0 90 32 119 93
c5 11 18 19 27 19c10 0 14 -10 14 -25c0 -28 -30 -102 -38 -115c-8 -15 -10 -19 -27 -19c-37 0 -218 5 -324 5c-47 0 -106 -5 -113 -5c-11 1 -33 7 -33 17c0 15 33 20 55 30c34 15 47 35 47 72v365c0 57 -25 58 -82 74c-9 3 -16 8 -16 17c0 12 14 18 35 18h287
c42 0 101 5 119 5c16 0 24 -5 26 -14c4 -16 9 -71 9 -82c0 -12 -4 -26 -16 -26s-27 18 -36 38c-8 17 -33 33 -81 33h-119c-27 0 -31 -8 -31 -21v-168z" />
    <glyph glyph-name="F" unicode="F" horiz-adv-x="489" 
d="M53 -2c-11 1 -33 7 -33 17c0 15 33 20 55 30c34 15 47 35 47 72v365c0 57 -25 58 -82 74c-9 3 -16 8 -16 17c0 12 14 18 35 18h279c42 0 101 5 119 5c16 0 24 -5 26 -14c4 -16 9 -71 9 -82c0 -12 -4 -26 -16 -26s-27 18 -36 38c-8 17 -33 33 -81 33h-111
c-27 0 -31 -8 -31 -21l-1 -165c0 -24 9 -31 23 -31h78c32 0 43 11 61 28c11 10 20 25 31 25c9 0 11 -8 11 -20c0 -8 -4 -43 -4 -58s1 -46 1 -57c0 -10 -3 -26 -13 -26c-13 0 -26 28 -32 38c-7 11 -14 21 -35 21h-97c-19 0 -24.1387 -5.00098 -24 -24l1 -137
c0 -38 13 -58 47 -73c22 -10 55 -15 55 -30c0 -10 -21 -16 -32 -17c-7 0 -73 6 -121 6c-47 0 -106 -6 -113 -6z" />
    <glyph glyph-name="G" unicode="G" horiz-adv-x="710" 
d="M419 608c93 0 109 -16 176 -34c11 -3 14 -22 17 -33c4 -15 12 -70 12 -98c0 -9 -7 -15 -16 -15c-8 0 -19 13 -33 40c-37 70 -112 95 -190 95c-133 0 -227 -124 -227 -260c0 -145 97 -283 241 -283c53 0 129 21 129 38v121c0 21 -32 33 -54 41c-30 11 -47 14 -47 29
c0 11 11 16 21 16c26 0 101 -4 135 -4c33 0 62 4 87 4c13 0 20 -8 20 -20c0 -6 -11 -18 -24 -23c-14 -6 -45 -18 -45 -41v-105c0 -23 27 -36 27 -45c0 -23 -189 -55 -292 -55c-159 0 -310 133 -310 292c0 200 171 340 373 340z" />
    <glyph glyph-name="H" unicode="H" horiz-adv-x="725" 
d="M217 266v-149c0 -37 3 -57 37 -72c22 -10 55 -15 55 -30c0 -10 -21 -16 -32 -17c-7 0 -63 6 -111 6c-47 0 -106 -6 -113 -6c-11 1 -33 7 -33 17c0 15 33 20 55 30c34 15 47 35 47 72v365c0 57 -25 58 -82 74c-9 3 -16 8 -16 17c0 12 20 18 35 18c39 0 75 -5 111 -5
c35 0 66 5 100 5c15 0 35 -6 35 -18c0 -9 -6 -14 -15 -17c-57 -16 -73 -17 -73 -74v-148c0 -5 3 -11 13 -11h265c10 0 13 3 13 13v146c0 57 -15 58 -72 74c-9 3 -16 8 -16 17c0 12 20 18 35 18c39 0 65 -5 101 -5c35 0 76 5 110 5c15 0 35 -6 35 -18c0 -9 -6 -14 -15 -17
c-57 -16 -83 -17 -83 -74v-365c0 -37 13 -57 47 -72c22 -10 55 -15 55 -30c0 -10 -21 -16 -32 -17c-7 0 -73 6 -121 6c-47 0 -96 -6 -103 -6c-11 1 -33 7 -33 17c0 15 33 20 55 30c34 15 37 35 37 72v147c0 10 -4 11 -14 11h-262c-10 0 -15 1 -15 -9z" />
    <glyph glyph-name="I" unicode="I" horiz-adv-x="339" 
d="M280 591c15 0 35 -6 35 -18c0 -9 -6 -14 -15 -17c-57 -16 -83 -17 -83 -74v-365c0 -37 13 -57 47 -72c22 -10 55 -15 55 -30c0 -10 -21 -16 -32 -17c-7 0 -73 6 -121 6c-47 0 -106 -6 -113 -6c-11 1 -33 7 -33 17c0 15 33 20 55 30c34 15 47 35 47 72v365
c0 57 -25 58 -82 74c-9 3 -16 8 -16 17c0 12 20 18 35 18c39 0 75 -5 111 -5c35 0 76 5 110 5z" />
    <glyph glyph-name="J" unicode="J" horiz-adv-x="314" 
d="M217 481v-341c0 -210 -29 -242 -60 -276c-32 -35 -73 -57 -132 -57c-65 0 -94 29 -94 50c0 27 18 56 36 56c26 0 38 -8 50 -26c15 -23 30 -38 47 -38c47 0 58 60 58 157v475c0 58 -25 59 -82 75c-9 3 -16 8 -16 17c0 12 20 18 35 18c39 0 75 -5 111 -5c35 0 76 5 110 5
c15 0 35 -6 35 -18c0 -9 -6 -14 -15 -17c-57 -16 -83 -17 -83 -75z" />
    <glyph glyph-name="K" unicode="K" horiz-adv-x="628" 
d="M393 555c-10 3 -17 9 -17 18c0 12 20 18 35 18s70 -5 85 -5s70 5 85 5s28 -6 28 -18c0 -9 -10.1855 -18.8096 -23 -21c-57.1709 -9.77246 -103.598 -37.9658 -147 -85l-109.5 -118.5c-13.6357 -14.6328 -21.6904 -16.3115 -1.5 -38.5l190 -218
c26.9521 -30.8965 62 -40 100 -40c14 0 25 -14 25 -18c0 -16 -24 -42 -66 -42c-60.1172 0 -104.558 9.78613 -144 55l-156 179c-18.5166 21.0029 -32 32 -45 32c-11 0 -15 -5 -15 -16v-125c0 -37 13 -57 47 -72c22 -10 55 -15 55 -30c0 -10 -21 -16 -32 -17
c-7 0 -73 6 -121 6c-47 0 -106 -6 -113 -6c-11 1 -33 7 -33 17c0 15 33 20 55 30c34 15 47 35 47 72v365c0 57 -25 58 -82 74c-9 3 -16 8 -16 17c0 12 20 18 35 18c39 0 75 -5 111 -5c35 0 76 5 110 5c15 0 35 -6 35 -18c0 -9 -6 -14 -15 -17c-57 -16 -83 -17 -83 -74v-133
c0 -13 6 -18 18 -18c7 0 21.4248 14.3311 47 43l124 139c8 10 12 34 -13 42z" />
    <glyph glyph-name="L" unicode="L" horiz-adv-x="591" 
d="M217 85c0 -29 13 -40 44 -40h134c77 0 90 60 119 121c5 11 18 19 27 19c10 0 18 -19 18 -47c0 -27 -25 -108 -33 -121c-8 -15 -11 -19 -28 -19c-37 0 -226 5 -332 5c-47 0 -106 -5 -113 -5c-11 1 -33 7 -33 17c0 15 33 20 55 30c34 15 47 35 47 72v365
c0 57 -25 58 -82 74c-9 3 -16 8 -16 17c0 12 14 18 36 18c39 0 75 -5 111 -5c35 0 76 5 110 5c15 0 35 -6 35 -18c0 -9 -6 -14 -15 -17c-57 -16 -84 -17 -84 -74v-397z" />
    <glyph glyph-name="M" unicode="M" horiz-adv-x="813" 
d="M711 129c2 -37 13 -69 47 -84c22 -10 55 -15 55 -30c0 -10 -21 -16 -32 -17c-7 0 -73 6 -121 6c-47 0 -106 -6 -113 -6c-11 1 -33 7 -33 17c0 15 33 20 55 30c34 15 49 47 47 84l-13 315c-0.837891 19.9824 -18.0254 15.3408 -26 -3l-135 -310c-4 -9 -46 -95 -55 -95
c-10 0 -18 8 -39 62l-123 315c-14.8936 38.1992 -23.4131 24.9512 -25 -1l-17 -279c-2 -27 5 -76 31 -88c22 -10 55 -15 55 -30c0 -10 -21 -16 -32 -17c-7 0 -51 6 -99 6c-47 0 -85 -6 -92 -6c-11 1 -33 7 -33 17c0 15 32 20 55 30c34 15 51 55 58 105l34 266
c9 71 -7 90 -32 113c-18 17 -54 32 -54 48c0 15 22 14 34 14c36 0 65 -5 111 -5c27 0 44 -18 63 -63l117 -287c8.3125 -20.3691 12.7861 -36.8457 31 1l157 326c11 23 25 23 51 23s95 10 127 10c12 0 16 -7 16 -17s-8 -13 -48 -30c-31 -13 -42 -33 -39 -90z" />
    <glyph glyph-name="N" unicode="N" horiz-adv-x="685" 
d="M167 129c0 -38 13 -69 47 -84c22 -10 55 -15 55 -30c0 -10 -21 -16 -32 -17c-7 0 -51 6 -99 6c-47 0 -85 -6 -92 -6c-11 1 -33 7 -33 17c0 15 33 20 55 30c34 15 47 46 47 84v261c0 48 -3 84 -14 97l-37 40c-21.7422 23.4795 -60 30 -60 48c0 8 7 11 21 11h105
c22 0 43 -25 53 -36l333 -374c13.3047 -14.9326 28 -20 28 0v306c0 58 -25 58 -82 74c-9 3 -16 8 -16 17c0 12 20 18 35 18c39 0 55 -5 91 -5c35 0 56 5 90 5c15 0 35 -6 35 -18c0 -9 -6 -14 -15 -17c-57 -16 -83 -16 -83 -74v-399c0 -47 3 -55 3 -82c0 -10 -10 -12 -20 -12
c-11 0 -47 18 -85 60l-311 345c-10.0371 11.1475 -19 12 -19 -10v-255z" />
    <glyph glyph-name="O" unicode="O" horiz-adv-x="713" 
d="M162 330c0 -139 79 -296 218 -296c119 0 171 127 171 246c0 130 -69 272 -199 272c-110 0 -190 -112 -190 -222zM390 598c136 0 273 -142 273 -288c0 -171 -126 -322 -297 -322c-179 0 -316 125 -316 307c0 189 142 303 340 303z" />
    <glyph glyph-name="P" unicode="P" horiz-adv-x="535" 
d="M214 534v-417c0 -37 13 -57 47 -72c22 -10 55 -15 55 -30c0 -10 -21 -16 -32 -17c-7 0 -73 6 -121 6c-43 0 -103 -6 -110 -6c-11 1 -33 7 -33 17c0 15 33 20 55 30c34 15 47 35 47 72v365c0 57 -25 58 -82 74c-9 3 -16 8 -16 17c0 12 14 17 35 18c88 7 129 10 218 10
c101 0 213 -44 213 -145c0 -82 -52 -131 -122 -169c-37 -20 -53 -20 -64 -20s-18 5 -18 17c0 10 15 12 43 36c39 33 61 69 61 121c0 67 -59 116 -126 116c-36 0 -50 -8 -50 -23z" />
    <glyph glyph-name="Q" unicode="Q" horiz-adv-x="721" 
d="M162 325c0 -144 63 -304 207 -304c46 0 96 32 130 66c48 48 60 114 60 189c0 145 -76 284 -212 284c-114 0 -185 -121 -185 -235zM345 -50.5c-22.627 22.627 -85.1211 35.791 -113 51.5c-105.791 59.6104 -182 151 -182 280c0 180 154 324 332 324
c159 0 289 -135 289 -294c0 -104 -63 -210.5 -141 -267.5c-53 -39 -79 -42 -80 -59.5c0 -3 3.56836 -10.5264 6 -14c12.6191 -18.0215 47.9053 -59.1475 91 -90c61.7959 -44.2412 116 -74 185 -74c21 0 47 3 56 7c6 2 13 4 19 4s11 -6 11 -12c0 -41 -95 -59 -126 -59
c-96 0 -146.38 36.5117 -220 90c-45.3047 32.916 -83.8662 70.3662 -127 113.5z" />
    <glyph glyph-name="R" unicode="R" horiz-adv-x="651" 
d="M419 246c49 -73 112 -153 187 -207c12 -9 35 -14 57 -16c11 -1 17 -9 17 -17c0 -18 -35 -30 -70 -30c-49 0 -99 17 -127 47c-59 62 -106 121 -158 208c-12 20 -41 33 -83 33c-21 0 -28 -7 -28 -27v-120c0 -37 13 -57 47 -72c22 -10 55 -15 55 -30c0 -10 -21 -16 -32 -17
c-7 0 -73 6 -121 6c-43 0 -103 -6 -110 -6c-11 1 -33 7 -33 17c0 15 33 20 55 30c34 15 47 35 47 72v361c0 57 -25 58 -82 74c-9 3 -16 8 -16 17c0 12 14 17 35 18c88 7 129 10 218 10c101 0 213 -42 213 -143c0 -64 -32 -106 -79 -140c-13 -10 -17 -9 -17 -18
s12 -31 25 -50zM255 300c30 0 65 10 74 20c39 33 61 67 61 119c0 67 -59 114 -126 114c-28 0 -50 -15 -50 -34v-193c0 -18 12.9619 -26 41 -26z" />
    <glyph glyph-name="S" unicode="S" horiz-adv-x="409" 
d="M232 601c32 0 78.9258 -14.2637 100.999 -26c18.542 -9.85938 27.916 -17.1826 30 -29c2.77832 -15.7568 4 -38 4 -57c0 -13 -5 -27 -20 -27c-12 0 -25 10 -40 46c-10 24 -50 36 -79 36c-43 0 -82 -35 -82 -79c0 -33 21 -59 51 -84l141 -119c31 -26 48 -60 48 -102
c0 -98 -101 -171 -201 -171c-35 0 -81 11 -105 22c-37 17 -46 22 -46 36s3.84375 56.1973 6.10156 69s8.89941 24 18.8994 24c16 0 25 -17 34 -47c11 -36 50 -65 108 -65c50 0 87 46 87 96c0 34 -15 59 -40 80l-135 114c-36 30 -59 66 -59 115c0 94 80 168 178 168z" />
    <glyph glyph-name="T" unicode="T" horiz-adv-x="592" 
d="M266 505c0 20 -6 31 -16 31h-122c-26 0 -33 -12 -43 -30c-10.9268 -19.667 -18 -48 -32 -48c-13 0 -18 14 -18 23c0 23 5 31 5 63c0 16 -2 35 -2 45c0 13 7 25 17 25c15 0 40 -30 95 -30h349c36 0 52 7 70 17c12 7 17 15 29 15s18 -10 18 -18c0 -9 -4 -21 -4 -43
c0 -24 2 -58 2 -69c0 -15 -2 -23 -14 -23c-10 0 -25 26 -36 45c-8.91211 15.3936 -22 28 -36 28h-155c-10 0 -12 -21 -12 -31v-388c0 -37 13 -57 47 -72c22 -10 55 -15 55 -30c0 -10 -21 -16 -32 -17c-7 0 -73 6 -121 6c-47 0 -106 -6 -113 -6c-11 1 -33 7 -33 17
c0 15 33 20 55 30c34 15 47 35 47 72v388z" />
    <glyph glyph-name="U" unicode="U" horiz-adv-x="617" 
d="M560 492v-242c0 -155 -102 -256 -249 -256c-179 0 -225 101 -225 254v234c0 48 -7 53 -70 74c-9 3 -16 8 -16 17c0 12 20 18 35 18c39 0 43 -5 79 -5c35 0 80 5 114 5c15 0 35 -6 35 -18c0 -9 -6 -14 -15 -17c-43 -14 -67 -32 -67 -72v-200c0 -160 29 -240 151 -240
c137 0 171 104 171 260v186c0 52 -11 51 -53 65c-9 3 -17 9 -17 18c0 12 20 18 35 18s50 -5 65 -5s49 5 64 5s35 -6 35 -18c0 -9 -8 -14 -17 -17c-46 -15 -55 -25 -55 -64z" />
    <glyph glyph-name="V" unicode="V" horiz-adv-x="557" 
d="M394 555c-9 3 -17 9 -17 18c0 12 20 18 35 18s57 -5 72 -5s49 5 64 5s35 -6 35 -18c0 -9 -8 -14 -17 -17c-46 -15 -64 -48 -80 -93l-124 -342c-16.6787 -46.0742 -53 -136 -66 -136c-8 0 -22.5186 27.8135 -38 69l-152 404c-17 46 -27 77 -90 98c-9 3 -16 8 -16 17
c0 12 20 18 35 18c39 0 43 -5 79 -5c35 0 90 5 124 5c15 0 35 -6 35 -18c0 -9 -6 -14 -15 -17c-43 -14 -79 -32 -63 -76l120 -319c5.27734 -14.041 8.29004 -15.2412 13 -1l106 293c23 69 2 88 -40 102z" />
    <glyph glyph-name="W" unicode="W" horiz-adv-x="914" 
d="M711 555c-9 3 -17 9 -17 18c0 12 20 18 35 18s57 -5 72 -5s49 5 64 5s35 -6 35 -18c0 -9 -8 -14 -17 -17c-46 -15 -64 -48 -80 -93l-124 -342c-16.6787 -46.0742 -53 -136 -66 -136c-8 0 -22.5186 27.8135 -38 69l-120.841 321.182l-92.1592 -254.182
c-16.6787 -46.0742 -53 -136 -66 -136c-8 0 -22.5186 27.8135 -38 69l-152 404c-17 46 -27 77 -90 98c-9 3 -16 8 -16 17c0 12 20 18 35 18c39 0 43 -5 79 -5c35 0 90 5 124 5c15 0 35 -6 35 -18c0 -9 -6 -14 -15 -17c-43 -14 -79 -32 -63 -76l120 -319
c5.27734 -14.041 8.29004 -15.2412 13 -1l101.53 280.645l-6.53027 17.3555c-17 46 -29.3008 83.7959 -72 98c-9.48828 3.15625 -16 8 -16 17c0 12 20 18 35 18c39 0 43 -5 79 -5c35 0 72 5 106 5c15 0 35 -6 35 -18c0 -9 -6 -14 -15 -17c-43 -14 -79 -32 -63 -76l120 -319
c5.27734 -14.041 8.29004 -15.2412 13 -1l106 293c23 69 2 88 -40 102z" />
    <glyph glyph-name="X" unicode="X" horiz-adv-x="612" 
d="M256 527c0 -5 5 -25 9 -32l68 -126l54 81c14 22 32 55 32 71c0 12 -12 28 -30 34c-9 3 -17 9 -17 18c0 12 20 17 35 17s57 -4 72 -4s49 4 64 4s35 -5 35 -17c0 -9 -8 -14 -17 -17c-60 -20 -89 -49 -112 -84l-94 -145l112 -207c14 -26 40 -57 89 -75c31 -11 40 -21 40 -31
c0 -11 -10 -16 -29 -16c-23 0 -59 6 -92 6c-66 0 -104 -6 -134 -6c-13 0 -32 6 -32 17c0 15 32 20 54 30c36 17 23 39 10 61l-73 136l-97 -150c-11 -16 -21 -44 -2 -49c26 -7 32 -18 32 -28c0 -11 -10 -17 -35 -17c-19 0 -63 6 -82 6c-25 0 -48 -6 -63 -6
c-19 0 -33 6 -33 17c0 15 33 20 55 30c33 15 60 31 86 65l116 175l-76 141c-18 34 -56 103 -122 126c-9 3 -20 12 -20 21c0 12 20 17 35 17c39 0 43 -4 79 -4c35 0 62 4 96 4c15 0 35 -5 35 -17c0 -9 -6 -14 -15 -17c-29 -10 -33 -22 -33 -29z" />
    <glyph glyph-name="Y" unicode="Y" horiz-adv-x="521" 
d="M325 118c0 -38 13 -58 47 -73c22 -10 55 -15 55 -30c0 -10 -21 -16 -32 -17c-7 0 -73 6 -121 6c-47 0 -106 -6 -113 -6c-11 1 -33 7 -33 17c0 15 33 20 55 30c34 15 47 35 47 73v114c0 24 -4.90039 31.0049 -16 50l-96 164c-40.8135 69.9668 -65 98 -102 110
c-9 3 -16 8 -16 17c0 12 20 18 35 18c39 0 43 -5 79 -5c35 0 62 5 96 5c15 0 35 -6 35 -18c0 -9 -6 -14 -15 -17c-29 -10 -44.5742 -34.707 -34 -54l91 -156c8.57715 -14.6777 11.7344 -16.7236 21 1l88 168c6.35645 12.4736 -11 34 -29 40c-9 3 -17 9 -17 18
c0 12 20 18 35 18s57 -5 72 -5s49 5 64 5s35 -6 35 -18c0 -9 -8 -14 -17 -17c-60 -20 -83.7891 -32.6484 -119 -100l-77 -147c-15.752 -30.1309 -18 -41 -18 -55v-136z" />
    <glyph glyph-name="Z" unicode="Z" horiz-adv-x="591" 
d="M258 3c-76 0 -137 -5 -203 -5c-12 0 -18 8 -18 28c0 8 25 36 63 89l286 405c12.1055 17.1602 7 22 -13 22h-195c-37 0 -54 -11 -67 -26c-19 -22 -47 -62 -56 -62c-12 0 -15 14 -15 28c0 8 4.71973 56.4141 11 92c3 17 11 22 23 22c18 0 37 -11 84 -11h182
c28 0 125 3 159 3c22 0 39 2 39 -23c0 -11 -13 -30 -37 -63l-312 -437c-11.6143 -16.2822 -6 -20 14 -20h215c77 0 90 60 119 121c5 11 18 19 27 19c10 0 18 -19 18 -47c0 -27 -25 -108 -33 -121c-8 -15 -11 -19 -28 -19c-37 0 -233 5 -263 5z" />
    <glyph glyph-name="bracketleft" unicode="[" horiz-adv-x="268" 
d="M85 584h165c10 0 18 -4 18 -14s-6 -29 -26 -29h-108c-30 0 -39 -13 -39 -43v-602c0 -30 6 -52 35 -52h112c16 0 26 -3 26 -15s-14 -28 -26 -28h-164c-23 0 -31 1 -31 25v724c0 34 6 34 38 34z" />
    <glyph glyph-name="backslash" unicode="\" horiz-adv-x="351" 
d="M22 701c18 0 21 -6 38 -46l277 -652c4 -10 9 -24 9 -35c0 -8 -3 -14 -11 -14c-18 0 -25 6 -32 22l-288 666c-4 8 -13 34 -13 35c0 18 5 24 20 24z" />
    <glyph glyph-name="bracketright" unicode="]" horiz-adv-x="268" 
d="M183 -199h-165c-10 0 -18 4 -18 14s6 29 26 29h108c30 0 39 13 39 43v602c0 30 -6 52 -35 52h-112c-16 0 -26 3 -26 15s14 28 26 28h164c23 0 31 -1 31 -25v-724c0 -34 -6 -34 -38 -34z" />
    <glyph glyph-name="asciicircum" unicode="^" horiz-adv-x="277" 
d="M129 586c-23 -32 -47 -59 -60 -74c-8 -9 -22 -22 -30 -22c-9 0 -9 4 -9 13c0 15 68 137 88 170c5 9 12 18 20 18s15 -9 20 -18c20 -33 89 -155 89 -170c0 -9 0 -13 -9 -13c-8 0 -22 13 -30 22c-13 15 -39 44 -61 74c-6 8 -12 8 -18 0z" />
    <glyph glyph-name="underscore" unicode="_" horiz-adv-x="590" 
d="M69 -117c-24 0 -69 1 -69 16c0 29 26 49 83 49h438c28 0 69 2 69 -18c0 -29 -27 -47 -84 -47h-437z" />
    <glyph glyph-name="grave" unicode="`" horiz-adv-x="233" 
d="M156 512c-31 33 -118 134 -118 148c0 16 30 23 55 23c10 0 21 -8 27 -18c19 -33 75 -147 75 -162c0 -9 0 -13 -9 -13c-8 0 -22 13 -30 22z" />
    <glyph glyph-name="a" unicode="a" horiz-adv-x="409" 
d="M111 131c0 -49 23 -72 59 -72c28 0 62 14 62 38v94c0 11 -12 11 -23 7l-48 -19c-35 -11 -50 -31 -50 -48zM185 430c85 0 131 -49 131 -102v-237c0 -16 19 -28 36 -28c14 0 29 13 36 13c6 0 9 -11 9 -22c0 -36 -50 -62 -90 -62c-33 0 -56 23 -69 41c-7 10 -8 9 -15 2
c-23 -23 -63 -43 -102 -43c-49 0 -99 46 -99 96s24 81 54 94l131 55c18 8 23 13 23 23v49c0 35 -38 61 -73 61c-21 0 -46 -8 -46 -29c0 -25 -1 -33 -10 -39c-6 -4 -46 -21 -56 -21c-6 0 -8 26 -8 34c0 23 17 53 38 68c35 24 73 47 110 47z" />
    <glyph glyph-name="b" unicode="b" horiz-adv-x="499" 
d="M163 332v-208c0 -49 38 -84 115 -84c73 0 106 71 106 152c0 91 -47 186 -138 186c-58 0 -83 -39 -83 -46zM80 566c0 19 -16 38 -40 47c-11 4 -23 12 -23 23s15 19 29 21c40 7 94 24 104 24c12 0 13 -8 13 -28v-249c0 -14 6 -16 21 -5c17 12 60 31 115 31
c102 0 177 -106 177 -206c0 -125 -103 -232 -229 -232c-99.8594 0 -167 43 -167 58v516z" />
    <glyph glyph-name="c" unicode="c" horiz-adv-x="392" 
d="M203 -8c-107 0 -180 97 -180 203c0 121 87 235 202 235c70 0 101 -20 117 -33c19 -16 33 -33 33 -46c0 -24 -19 -39 -42 -39c-18 0 -43 14 -65 36c-17 17 -30 35 -51 35c-60 0 -102 -75 -102 -141c0 -88 39 -182 124 -182c46 0 95 23 105 23s15 -4 15 -14
c0 -29 -58 -77 -156 -77z" />
    <glyph glyph-name="d" unicode="d" horiz-adv-x="492" 
d="M115 233c0 -90 43 -177 129 -177c39 0 78 22 78 62v153c0 63 -50 116 -112 116c-70 0 -95 -84 -95 -154zM393 681c12 0 12 -8 12 -27v-570c0 -23 6 -28 16 -28c13 0 46 6 54 6c5 0 13 -9 13 -16c0 -13 -5 -21 -13 -25c-18 -9 -117 -33 -132 -33c-8 0 -13 9 -14 14
c-3 10 -6 23 -9 38c-2 10 -5 11 -12 1c-23 -33 -62 -49 -102 -49c-102 0 -183 88 -183 190c0 125 82 248 208 248c32 0 64 -12 78 -26c9 -8 11 -3 13 16v147c0 17 -17 37 -41 46c-11 4 -23 12 -23 23s15 19 29 21c40 7 96 24 106 24z" />
    <glyph glyph-name="e" unicode="e" horiz-adv-x="391" 
d="M124 315c0 -6.6416 1 -11 13 -11h132c10 0 15 17 15 31c0 29 -30 49 -59 49c-60 0 -101 -49 -101 -69zM371 326c0 -27 -4 -68 -30 -68h-211c-14 0 -16 -2 -19 -10c-4 -11 -4 -13 -4 -30c0 -76 47 -158 126 -158c50 0 94 23 104 23s15 -4 15 -14c0 -29 -58 -77 -156 -77
c-111 0 -173 108 -173 221c0 123 94 217 216 217c68 0 132 -53 132 -104z" />
    <glyph glyph-name="f" unicode="f" horiz-adv-x="313" 
d="M325 690c51 0 116 -48 116 -85c0 -24 -12 -46 -37 -46c-24 0 -37 27 -52 48c-11 16 -32 27 -61 27c-68 0 -108 -50 -108 -109v-105c0 -15 9 -10 22 -10l65 2c16 0 23 -13 23 -23s-9 -34 -23 -34h-71c-12 0 -16 -9 -16 -23v-224c0 -25 8 -53 44 -64c27 -8 44 -16 44 -26
s-9 -20 -35 -20c-22 0 -79 6 -95 6c-20 0 -66 -6 -88 -6c-26 0 -35 10 -35 20s17 18 44 26s38 39 38 64v230c0 8 -5 14 -42 14c-9 0 -32 4 -32 14c0 14 33 30 61 40c11 4 13 18 13 29c0 138 87 255 225 255z" />
    <glyph glyph-name="g" unicode="g" horiz-adv-x="479" 
d="M81 -131c0 -62 66 -85 125 -85c73 0 132 37 132 100c0 65 -52 83 -153 83c-26 0 -45 -9 -67 -29c-25 -23 -37 -47 -37 -69zM119 289c0 -58 24 -126 82 -126c56 0 80 64 80 123c0 53 -40 102 -95 102c-46 0 -67 -53 -67 -99zM201 430c53 0 75 -9 90 -17
c16 -8 31 -17 41 -17l104 2c20 0 28 -21 28 -35c0 -18 -10 -31 -36 -31c-13 0 -59 5 -68 5c-7 0 -11 -5 -9 -11c3 -8 8 -37 8 -44c0 -73 -78 -161 -168 -161c-11 0 -20 3 -25 3c-1 0 -8 -1 -13 -5c-15 -13 -34 -38 -34 -54c0 -14 27.9844 -24.4326 75 -26l120 -4
c44 -2 101 -39 101 -94c0 -130 -124 -213 -254 -213c-92 0 -163 34 -163 112c0 48 48 94 96 124c5 3 4 8 -6 13c-33 15 -57 28 -57 61c0 9 6 16 14 23c15 13 51 43 67 67c3 4 7 9 0 13c-45 26 -81 73 -81 132c0 90 80 157 170 157z" />
    <glyph glyph-name="h" unicode="h" horiz-adv-x="543" 
d="M449 110c1 -26 11 -58 38 -66s36 -16 36 -26s-1 -20 -27 -20c-22 0 -72 6 -88 6c-20 0 -52 -6 -74 -6c-26 0 -30 10 -30 20s12 18 39 26c18 5 23 39 23 64v153c0 59 -35 117 -87 117c-58 0 -98 -34 -98 -110l-1 -160c0 -25 4 -58 23 -64c27 -8 38 -16 38 -26
s-3 -20 -29 -20c-22 0 -57 6 -73 6c-20 0 -67 -6 -89 -6c-26 0 -30 10 -30 20s12 18 39 26s38 39 38 64v459c0 17 -15 37 -39 46c-11 4 -23 12 -23 23s15 19 29 21c40 7 94 24 104 24c12 0 12 -8 12 -27v-259c0 -26 12 -11 20 -4c33 27 72 39 124 39c70 0 125 -66 125 -139
v-181z" />
    <glyph glyph-name="i" unicode="i" horiz-adv-x="276" 
d="M133 645c30 0 55 -24 55 -54c0 -31 -24 -56 -55 -56s-55 25 -55 56c0 30 25 54 55 54zM97 302c0 17 -17 42 -41 51c-11 4 -21 10 -21 21s16 19 29 25c11 6 94 39 104 39c12 0 12 -9 12 -29v-301c0 -25 11 -56 38 -64s43 -16 43 -26s-8 -20 -34 -20c-22 0 -72 6 -88 6
c-20 0 -67 -6 -89 -6c-26 0 -35 10 -35 20s17 18 44 26s38 39 38 64v194z" />
    <glyph glyph-name="j" unicode="j" horiz-adv-x="231" 
d="M133 645c30 0 55 -24 55 -54c0 -31 -24 -56 -55 -56s-55 25 -55 56c0 30 25 54 55 54zM93 302c0 18 -17 42 -41 51c-11 4 -21 10 -21 21s16 19 29 25c11 6 94 39 104 39c12 0 12 -9 12 -28v-383c0 -122 -69 -214 -124 -269c-24 -24 -34 -25 -40 -25c-11 0 -17 9 -17 21
c0 5 3 15 12 21c15 10 36 35 43 47c21 34 43 92 43 169v311z" />
    <glyph glyph-name="k" unicode="k" horiz-adv-x="529" 
d="M315 82l-63 66c-23 24 -41 44 -51 44c-15 0 -21 -8 -21 -19v-65c0 -25 11 -56 38 -64s33 -16 33 -26s-8 -20 -34 -20c-22 0 -62 6 -78 6c-20 0 -67 -6 -89 -6c-26 0 -35 10 -35 20s17 18 44 26s38 39 38 64v459c0 17 -15 37 -39 46c-11 4 -23 12 -23 23s15 19 29 21
c40 7 94 24 104 24c12 0 12 -7 12 -27v-414c0 -13 2 -18 22 -18c17 0 34.1465 5.22949 65 42l57 68c11 13 16 23 16 30c0 10 -11 17 -17 18c-15 3 -24 7 -24 17s9 20 25 20h79c15 0 45 6 60 6c16 0 24 -10 24 -20s-19 -18 -34 -23c-11 -4 -49 -29 -74 -57l-67 -74
c-7 -7 -17 -19 -17 -29c0 -15 39 -47 79 -87s92 -80 121 -89c27 -8 43 -16 43 -26s-8 -20 -34 -20c-22 0 -72 6 -88 6c-20 0 -55 -6 -77 -6c-26 0 -35 10 -35 20s37 22 37 27s-11 21 -26 37z" />
    <glyph glyph-name="l" unicode="l" horiz-adv-x="276" 
d="M97 567c0 17 -15 37 -39 46c-11 4 -23 12 -23 23s15 19 29 21c40 7 94 24 104 24c12 0 12 -8 12 -27v-546c0 -25 11 -56 38 -64s43 -16 43 -26s-8 -20 -34 -20c-22 0 -72 6 -88 6c-20 0 -67 -6 -89 -6c-26 0 -35 10 -35 20s17 18 44 26s38 39 38 64v459z" />
    <glyph glyph-name="m" unicode="m" horiz-adv-x="812" 
d="M434 364c5 0 16 11 35 27c33 27 72 39 124 39c70 0 125 -66 125 -139v-181c0 -26 11 -58 38 -66s36 -16 36 -26s-1 -20 -27 -20c-22 0 -72 6 -88 6c-20 0 -52 -6 -74 -6c-26 0 -30 10 -30 20s12 18 39 26c18 5 23 39 23 64v153c0 59 -35 117 -87 117
c-59 0 -99 -39 -99 -110v-160c0 -25 4 -58 23 -64c27 -8 38 -16 38 -26s-3 -20 -29 -20c-22 0 -57 6 -73 6c-19 0 -52 -6 -74 -6c-26 0 -30 10 -30 20s12 18 39 26c18 5 23 39 23 64v153c0 59 -35 117 -87 117c-58 0 -98 -34 -98 -110l-1 -160c0 -25 4 -58 23 -64
c27 -8 38 -16 38 -26s-3 -20 -29 -20c-22 0 -57 6 -73 6c-20 0 -67 -6 -89 -6c-26 0 -30 10 -30 20s12 18 39 26s38 39 38 64v194c0 17 -17 42 -41 51c-11 4 -21 10 -21 21s16 19 29 25c11 6 94 39 104 39c12 0 12 -9 12 -28v-25c0 -15 12 -1 20 6c33 27 72 39 124 39
c44 0 82 -27 103 -61c3 -4 5 -5 7 -5z" />
    <glyph glyph-name="n" unicode="n" horiz-adv-x="543" 
d="M449 110c0 -26 11 -58 38 -66s36 -16 36 -26s-1 -20 -27 -20c-22 0 -72 6 -88 6c-20 0 -52 -6 -74 -6c-26 0 -30 10 -30 20s12 18 39 26c18 5 23 39 23 64v153c0 59 -35 117 -87 117c-58 0 -98 -34 -98 -110l-1 -160c0 -25 4 -58 23 -64c27 -8 38 -16 38 -26
s-3 -20 -29 -20c-22 0 -57 6 -73 6c-20 0 -67 -6 -89 -6c-26 0 -30 10 -30 20s12 18 39 26s38 39 38 64v194c0 17 -17 42 -41 51c-11 4 -21 10 -21 21s16 19 29 25c12 6 94 39 104 39c12 0 12 -9 12 -28v-25c0 -15 12 -1 20 6c33 27 72 39 124 39c70 0 125 -66 125 -139
v-181z" />
    <glyph glyph-name="o" unicode="o" horiz-adv-x="487" 
d="M122 237c0 -94 45 -198 138 -198c74 0 105 90 105 164c0 89 -46 185 -133 185c-72 0 -110 -79 -110 -151zM239 430c116 0 225 -84 225 -200c0 -129 -102 -238 -230 -238c-122 0 -212 104 -212 223c0 120 109 215 217 215z" />
    <glyph glyph-name="p" unicode="p" horiz-adv-x="448" 
d="M148 307v-209c0 -37 35 -53 72 -53c78 0 113 84 113 166c0 83 -23 167 -110 167c-45 0 -75 -35 -75 -71zM65 -161v463c0 17 -17 42 -41 51c-11 4 -21 10 -21 21s16 19 29 25c11 6 94 39 104 39c12 0 12 -9 12 -28v-18c1 -5 6 -10 14 -2c16 16 68 40 113 40
c83 0 150 -89 150 -173c0 -136 -95 -263 -228 -263c-20 0 -35 12 -39 12c-9 0 -10 -5 -10 -14v-161c0 -35 14 -43 68 -58c27 -8 43 -16 43 -26s-8 -20 -34 -20c-34 0 -94 13 -187 13c-26 0 -35 10 -35 20s17 18 44 26c13 4 18 28 18 53z" />
    <glyph glyph-name="q" unicode="q" horiz-adv-x="488" 
d="M115 230c0 -106 56 -193 157 -193c26 0 68 19 68 45v184c0 69 -56 121 -129 121c-60 0 -96 -70 -96 -157zM326 18c-42 -23 -75 -26 -121 -26c-105 0 -182 102 -182 207c0 120 86 231 207 231c62 0 86 -8 124 -30c9 -5 10 -5 17 -1c11 7 28 18 38 18c12 0 14 -14 14 -33
v-546c0 -25 7 -45 24 -50c27 -8 41 -16 41 -26s-6 -20 -32 -20c-82 0 -150 -14 -173 -14c-26 0 -35 10 -35 20s17 18 44 26s48 39 48 64v172c0 17 -9 11 -14 8z" />
    <glyph glyph-name="r" unicode="r" horiz-adv-x="354" 
d="M139 4c-19 0 -67 -6 -89 -6c-26 0 -30 10 -30 20s12 18 39 26s38 39 38 64v194c0 17 -17 42 -41 51c-11 4 -21 10 -21 21s16 19 29 25c11 6 94 39 104 39c12 0 12 -9 12 -28v-25c0 -15 15 0 20 6c16 17 58 39 88 39c41 0 57 -19 57 -42c0 -15 -14 -41 -30 -57
c-3 -3 -11 -9 -16 -9c-15 0 -45 28 -65 28c-23 0 -52 -21 -52 -47l-2 -195c0 -25 22 -56 49 -64s41 -16 41 -26s-8 -20 -34 -20c-22 0 -81 6 -97 6z" />
    <glyph glyph-name="s" unicode="s" horiz-adv-x="301" 
d="M163 430c31 0 52.5986 -10.7783 84 -24c6.97949 -2.93848 8 -6 11 -16c3 -11 5 -40 5 -49c0 -12 0 -22 -12 -22c-10 0 -24.1855 5.86328 -30 25c-7.26758 23.9199 -37 40 -68 40c-25 0 -46 -18 -46 -43c0 -28 20.668 -44.1104 43 -61l82 -62
c27.915 -21.1123 48 -45 48 -80c0 -85 -69 -146 -151 -146c-28 0 -56 4 -66 8c-15 6 -20 7 -25 20s-17 48 -17 63c0 17 1 32 11 32s30 -9 44 -40c13 -27 44 -38 77 -38c30.7607 0 59 20 59 50c0 44 -20.5156 54.6641 -45 72l-48 34c-44.5615 31.5508 -84 62 -84 112
c0 68 58 125 128 125z" />
    <glyph glyph-name="t" unicode="t" horiz-adv-x="325" 
d="M186 -8c-59 0 -108 29 -108 114v238c0 9 6 14 -31 14c-9 0 -32 4 -32 14c0 14 42 42 67 63c14 12 52 50 65 50c12 0 14 -8 14 -25v-28c0 -10 9 -15 22 -15h97c16 0 20 -13 20 -23s-10 -36 -24 -36h-99c-12 0 -16 -5 -16 -19v-187c0 -70 17 -92 52 -92c37 0 62 18 72 18
s15 -4 15 -14c0 -23 -54 -72 -114 -72z" />
    <glyph glyph-name="u" unicode="u" horiz-adv-x="474" 
d="M311 324c0 28 -19 42 -47 46c-12 2 -23 8 -23 19s15 23 29 25c36 5 102 16 112 16c12 0 12 -8 12 -27v-334c0 -10 6 -13 16 -13c13 0 34 6 42 6c5 0 13 -9 13 -16c0 -13 -10 -21 -18 -25c-18 -9 -100 -33 -115 -33c-8 0 -13 9 -14 14c-3 10 -3 24 -6 38
c-4 18 -7 12 -20 1c-45 -36 -77 -45 -135 -45s-99 64 -99 122v198c0 17 -3 41 -27 50c-11 4 -21 12 -21 23s13 19 27 21c40 7 82 20 92 20c12 0 12 -8 12 -27v-252c0 -48 24.6035 -93 70 -93c55 0 100 33 100 77v189z" />
    <glyph glyph-name="v" unicode="v" horiz-adv-x="419" 
d="M306 380c-15 3 -28 12.999 -28 22.999s9 20 25 20c15 0 40 -6 55 -6s33 6 48 6c16 0 24 -10 24 -20s-19 -18 -34 -23c-11 -4 -29 -22 -43 -57l-79 -200c-17 -42 -45 -137 -63 -137c-10 0 -19 23 -25 40l-111 291c-10 26 -24 58 -39 63s-33 13 -33 23s8 20 24 20
c15 0 49 -6 64 -6s57 6 72 6c16 0 25 -10 25 -20s-12 -18 -34 -25c-5 -1 -9 -14 -5 -24l82 -215c3.56738 -9.3418 7.05469 -7.4375 10 0.000976562l72 182c8 20 10 34 10 41c0 10 -11 17 -17 18z" />
    <glyph glyph-name="w" unicode="w" horiz-adv-x="628" 
d="M515 380c-15 3 -28 13 -28 23s9 20 25 20c15 0 40 -6 55 -6s33 6 48 6c16 0 24 -10 24 -20s-19 -18 -34 -23c-11 -4 -29 -22 -43 -57l-79 -200c-17 -42 -45 -137 -63 -137c-10 0 -19 23 -25 40l-78 205l-43 -108c-17 -42 -45 -137 -63 -137c-10 0 -19 23 -25 40l-111 291
c-10 26 -24 58 -39 63s-33 13 -33 23s8 20 24 20c15 0 49 -6 64 -6s57 6 72 6c16 0 25 -10 25 -20s-12 -18 -34 -25c-5 -1 -9 -14 -5 -24l71 -183c4 -10 13 -40 19 -40c7 0 14 30 18 40l41 110l-14 36c-10 26 -24 58 -39 63s-33 13 -33 23s8 20 24 20c15 0 49 -6 64 -6
s69 6 84 6c16 0 25 -10 25 -20s-12 -20 -29 -28c-12 -5 -23 -18 -15 -39l64 -165c4 -10 13 -38 19 -38c7 0 14 28 18 38l56 150c8 20 10 34 10 41c0 10 -11 17 -17 18z" />
    <glyph glyph-name="x" unicode="x" horiz-adv-x="454" 
d="M437 41c15 -5 21 -13 21 -23s-8 -20 -24 -20c-15 0 -62 6 -77 6s-62 -6 -77 -6c-16 0 -25 10 -25 20s12 18 34 25c5 1 8 26 -11 52l-58 80l-51 -67c-4 -6 -30 -42 -30 -49c0 -10 11 -17 17 -18c15 -3 28 -13 28 -23s-9 -20 -25 -20c-15 0 -54 6 -69 6s-39 -6 -54 -6
c-16 0 -24 10 -24 20s19 18 34 23c11 4 42 17 63 45l89 118l-98 135c-7 9 -28 36 -43 41s-28 13 -28 23s8 20 24 20c15 0 53 -6 68 -6s62 6 77 6c16 0 25 -10 25 -20s-12 -18 -34 -25c-5 -1 -12 -11 13 -46l45 -63l50 66c9 12 15 20 15 27c0 10 -11 17 -17 18
c-15 3 -24 13 -24 23s13 20 29 20c15 0 46 -6 61 -6s33 6 48 6c16 0 24 -10 24 -20s-19 -18 -34 -23c-11 -4 -60 -47 -71 -61l-59 -79l64 -89c59 -81 76 -101 104 -110z" />
    <glyph glyph-name="y" unicode="y" horiz-adv-x="419" 
d="M187 35l-112 282.001c-10 26 -24 58 -39 63s-33 13 -33 23s8 20 24 20c15 0 49 -6 64 -6s57 6 72 6c16 0 25 -10 25 -20s-12 -18 -34 -25c-5 -1 -9 -14 -5 -24l81 -204c7.39453 -18.583 11.3184 -17.958 17 -3.00098l66 174c8 20 10 34 10 41c0 10 -11 17 -17 18
c-15 3 -28 13 -28 23s9 20 25 20c15 0 40 -6 55 -6s33 6 48 6c16 0 24 -10 24 -20s-19 -18 -34 -23c-11 -4 -30.2158 -23.3467 -43 -57l-193 -509c-9.23242 -24.3057 -43 -75 -89 -75c-32 0 -51 29 -51 57c0 30 30 56 60 56c38 0 60 20 71 43c23 49 41 93 41 115
c0 9 -2 18 -5 25z" />
    <glyph glyph-name="z" unicode="z" horiz-adv-x="432" 
d="M84 422c12 0 30 -5 50 -5h188c41 0 64 4 77 4c14 0 12 -14 12 -22c0 -12 -26.748 -36.1895 -44 -59l-224 -279c-8.77246 -10.9111 3 -14 17 -14h121c28 0 39 4 71 43c22 27 39 56 49 56c9 0 14 -8 14 -25c0 -50 -37 -123 -51 -123c-37 0 -82 6 -139 6
c-55 0 -105 -6 -174 -6c-17 0 -32 13 -32 25c0 14 11 27 29 50l223 277c13.1582 16.3662 12 18 -4 18h-124c-28 0 -39.9336 -7.06348 -62 -38c-11.6143 -16.2822 -25 -27 -32 -27c-10 0 -15 5 -15 22c0 35 32 97 50 97z" />
    <glyph glyph-name="braceleft" unicode="{" horiz-adv-x="373" 
d="M102 279c33 -9 106 -66 106 -132c0 -58 -13 -105 -13 -173c0 -73 53 -101 117 -101c11 0 26 -1 26 -12c0 -9 -9 -15 -18 -15c-94 0 -202 39 -202 133c0 70 13 116 13 178c0 58 -41 96 -95 116c-5 2 -11 3 -11 9s6 4 11 6c54 20 95 58 95 116c0 62 -13 108 -13 178
c0 94 108 133 202 133c9 0 18 -6 18 -15c0 -11 -15 -12 -26 -12c-64 0 -117 -28 -117 -101c0 -68 13 -115 13 -173c0 -66 -66 -114 -108 -131c-4 -2 -1 -3 2 -4z" />
    <glyph glyph-name="bar" unicode="|" horiz-adv-x="157" 
d="M55 574c0 20 20 36 37 36c9 0 10 -7 10 -36v-762c0 -17 -19 -30 -35 -30c-10 0 -12 8 -12 28v764z" />
    <glyph glyph-name="braceright" unicode="}" horiz-adv-x="373" 
d="M272 279c2 1 5 2 2 4c-42 17 -108 65 -108 131c0 58 13 105 13 173c0 73 -54 101 -118 101c-11 0 -26 1 -26 12c0 9 9 15 18 15c94 0 202 -39 202 -133c0 -70 -13 -116 -13 -178c0 -58 40 -96 95 -116c5 -2 11 0 11 -6s-6 -7 -11 -9c-55 -20 -95 -58 -95 -116
c0 -62 13 -108 13 -178c0 -94 -108 -133 -202 -133c-9 0 -18 6 -18 15c0 11 15 12 26 12c64 0 118 28 118 101c0 68 -13 115 -13 173c0 66 73 123 106 132z" />
    <glyph glyph-name="asciitilde" unicode="~" horiz-adv-x="386" 
d="M241 177c-50 0 -61 33 -111 33c-31 0 -59 -44 -69 -44c-8 0 -21 7 -21 17c0 23 51 92 100 92c48 0 65 -32 113 -32c33 0 59 43 71 43c10 0 22 -7 22 -17c0 -20 -56 -92 -105 -92z" />
    <glyph glyph-name="uni00A0" unicode="&#xa0;" horiz-adv-x="123" 
 />
    <glyph glyph-name="exclamdown" unicode="&#xa1;" horiz-adv-x="207" 
d="M101 288c-29 0 -58 21 -58 50c0 34 25 67 59 67c29 0 54 -23 54 -52c0 -33 -22 -65 -55 -65zM87 -200c-25 0 -45 13 -45 45c0 84 9 183 16 217c12 63 24 101 37 101c10 0 20 -12 24 -38c5 -36 23 -193 23 -270c0 -29 -25 -55 -55 -55z" />
    <glyph glyph-name="cent" unicode="&#xa2;" horiz-adv-x="389" 
d="M198 67.0879v314.092c-51.335 -11.8301 -86 -79.2188 -86 -139.18c0 -73.626 27.2998 -151.452 86 -174.912zM198 490.999c0 20 19.999 35.999 36.999 35.999c9 0 10 -7 10 -36v-61.7773c54.0469 -3.80469 79.8721 -20.7422 94.001 -32.2217c19 -16 33 -33 33 -46
c0 -24 -19 -39 -42 -39c-18 0 -43 14 -65 36c-7.08594 7.08594 -13.4619 14.3242 -20 20.3662v-308.046c44.2559 3.03809 95.6426 26.6797 105 26.6797c10 0 15 -4 15 -14c0 -24.3057 -47.0654 -64.7686 -120 -77.2305v-78.7695c0 -17 -19 -30 -35 -30c-10 0 -12 8 -12 28
v77.0117c-105.908 1.2002 -178 97.6504 -178 202.988c0 112.428 75.1094 218.812 178 233.321v62.6787z" />
    <glyph glyph-name="sterling" unicode="&#xa3;" horiz-adv-x="600" 
d="M404 379c23 0 33.001 -4.00195 33.001 -12.002c0 -16 -14 -32 -31 -32h-127.935c-5.08887 -30.5596 -10.9736 -58.1426 -18.0654 -78c-13 -37 -21 -56 -50 -91c-16 -19 0 -28 38 -38c74 -20 115 -73 183 -73c44 0 59 8 59 37c0 6 -6 23 -6 46c0 36 12 54 39 54
c28 0 39 -28 39 -64c0 -73 -95 -140 -168 -140c-96 0 -125 39 -179 93c-20 20 -32 22 -68 -25c-31 -41 -39 -49 -73 -49c-19 0 -34 17 -34 41s25 54 79 90c29 20 35 30 40 43c20.9502 58.2529 31.9785 105.539 40.5566 154h-59.5566c-28 0 -56 -11 -74 -11
c-13 0 -18 2 -18 11c0 20 8 44 19 44h139.777c5.125 33.0957 10.1543 68.2725 17.2227 109.001c25 140 108 203 225 203c39 0 69 -48 69 -102c0 -31 -16 -42 -50 -42c-12 0 -20 8 -20 24c0 9 6 37 6 41c0 20 -25 37 -52 37c-48 0 -82 -49 -94 -102
c-7.60059 -31.5713 -14.1758 -101.428 -23.3232 -167.999h119.322z" />
    <glyph glyph-name="currency" unicode="&#xa4;" horiz-adv-x="483" 
d="M241 405c-79 0 -132 -56 -132 -135s53 -135 132 -135s132 56 132 135s-53 135 -132 135zM41 434c-2 2 -3 4 -3 7c0 13 18 31 31 31c3 0 6 -1 8 -3l45 -41c33 25 74 37 119 37s86 -11 118 -37l46 42c2 2 5 3 8 3c12 0 30 -16 30 -30c0 -4 -1 -7 -4 -10l-41 -45
c25 -33 35 -74 35 -118s-10 -85 -35 -118l43 -47c2 -2 3 -4 3 -7c0 -13 -18 -31 -31 -31c-3 0 -6 1 -8 3l-46 42c-32 -26 -73 -37 -118 -37s-86 11 -118 37l-47 -42c-2 -2 -5 -3 -8 -3c-13 0 -30 17 -30 30c0 3 1 6 3 8l43 47c-25 33 -35 74 -35 118s10 85 35 117z" />
    <glyph glyph-name="yen" unicode="&#xa5;" horiz-adv-x="521" 
d="M140 148c-21 0 -52.999 5 -52.999 30c0 18 21 36 53 36h89.4639c-1.59766 21.9883 -6.61719 40.2871 -13.0059 56.2695l-76.459 -0.269531c-21 0 -53 5 -53 30c0 18 21 36 53 36h42.167l-64.167 110c-40.8135 69.9668 -65 98 -102 110c-9 3 -16 8 -16 17
c0 12 20 18 35 18c39 0 43 -5 79 -5c35 0 62 5 96 5c15 0 35 -6 35 -18c0 -9 -6 -14 -15 -17c-29 -10 -34.5742 -34.707 -24 -54l57 -104c11.7227 -23.207 29 -53 35 -53c7 0 20.8525 18.7578 49 74l49 96c6.35645 12.4736 -11 34 -29 40c-9 3 -17 9 -17 18
c0 12 20 18 35 18s57 -5 72 -5s49 5 64 5s35 -6 35 -18c0 -9 -8 -14 -17 -17c-60 -20 -83.7891 -32.6484 -119 -100l-62.7275 -120h67.7275c25 0 42 -13 42 -28s-13 -37 -43 -37l-96.8301 -0.34082c-1.55762 -6.52441 -2.16992 -12.0293 -2.16992 -16.6592v-40h100
c25 0 42 -13 42 -28s-13 -37 -43 -37l-99 -0.348633v-18.6514c0 -38 13 -70 47 -85c22 -10 55 -15 55 -30c0 -10 -21 -16 -32 -17c-7 0 -73 6 -121 6c-47 0 -106 -6 -113 -6c-11 1 -33 7 -33 17c0 15 33 20 55 30c34 15 47 47 47 85v18.3164z" />
    <glyph glyph-name="brokenbar" unicode="&#xa6;" horiz-adv-x="157" 
d="M55 574c0 20 20 36 37 36c9 0 10 -7 10 -36v-303c0 -17 -19 -30 -35 -30c-10 0 -12 8 -12 28v305zM55 115c0 20 20 36 37 36c9 0 10 -7 10 -36v-303c0 -17 -19 -30 -35 -30c-10 0 -12 8 -12 28v305z" />
    <glyph glyph-name="section" unicode="&#xa7;" horiz-adv-x="333" 
d="M79 317c0 -81 165 -289 170 -289c8 0 14 43 14 61c0 65 -165 281 -170 281c-13 0 -14 -41 -14 -53zM266 570c28 0 57 -19 57 -53c0 -14 -13 -32 -43 -32c-14 0 -27 10 -45 26c-8 7 -22 9 -34 9c-31 0 -53 -32 -53 -63c0 -57 163 -177 163 -302s-97 -303 -223 -303
c-35 0 -66 21 -66 55c0 14 12 25 38 25c24 0 42 -34 72 -34s49 32 49 67c0 41 -159 177 -159 295c0 124 86 310 244 310z" />
    <glyph glyph-name="dieresis" unicode="&#xa8;" horiz-adv-x="326" 
d="M77 654c29 0 54 -24 54 -53s-25 -53 -54 -53s-52 24 -52 53s23 53 52 53zM249 654c29 0 52 -24 52 -53s-23 -53 -52 -53s-54 24 -54 53s25 53 54 53z" />
    <glyph glyph-name="copyright" unicode="&#xa9;" horiz-adv-x="724" 
d="M391 499c44 0 85 -17 112 -30c20 -9 30 -27 30 -78c0 -17 -7 -28 -18 -28c-15 0 -30 23 -36 43c-7 23 -56 51 -100 51c-74 0 -132 -61 -132 -135c0 -88 53 -176 141 -176c51 0 84 31 112 73c4 6 22 35 28 35c9 0 11 -10 11 -28c0 -8 -7 -40 -16 -59
c-5 -11 -22 -26 -46 -38c-19 -9 -64 -25 -105 -25c-113 0 -215 82 -215 195c0 120 113.948 200 234 200zM366 604c174 0 326 -130 326 -304c0 -175 -151 -305 -326 -305s-326 130 -326 305c0 174 152 304 326 304zM366 569c-154.551 0 -291 -110 -291 -269
s132 -270 291 -270c154.816 0 291 115.184 291 270c0 154.551 -136.449 269 -291 269z" />
    <glyph glyph-name="ordfeminine" unicode="&#xaa;" 
d="M219 284c-37 0 -50 31 -55 31c-9 0 -27 -31 -80 -31c-27 0 -59 36 -59 59c0 25 6 41 38 53l79 28c17 6 18 8 18 24v23c0 20 -13 36 -37 36c-16 0 -39 -6 -44 -14c-3 -6 -1 -21 -1 -24c0 -8 -42 -19 -45 -19c-4 0 -5 2 -5 5c0 8 10 30 26 43c20 17 66 42 100 42
c31 0 61 -25 61 -53v-124c0 -17 0 -39 19 -39c18 0 23 10 25 10c3 0 9 -7 9 -16c0 -4 -25 -34 -49 -34zM80 358c0 -23 19 -34 32 -34c14 0 30 11 40 19c4 3 8 8 8 23v29c0 12 -4 14 -15 11c-50 -14 -65 -34 -65 -48zM49 212h206c6 0 14 -5 14 -11c0 -1 -1 -2 -1 -3
c-7 -13 -16 -21 -31 -21h-198c-7 0 -14 6 -14 12c0 9 11 23 24 23z" />
    <glyph glyph-name="guillemotleft" unicode="&#xab;" horiz-adv-x="640" 
d="M422 217c-6 -6 -6 -8 0 -14c42 -42 76 -88 112 -153c2 -3 4 -9 4 -12c0 -6 -5 -19 -10 -19c-13 0 -25 13 -30 18c-45 47 -103 100 -170 145c-9 6 -18 20 -18 29c0 3 1 6 3 7c77 52 128 100 193 170c5 5 12 12 24 12c4 0 10 -14 10 -19s-3 -11 -6 -16
c-56 -85 -75 -111 -112 -148zM212 217c-6 -6 -6 -8 0 -14c42 -42 76 -88 112 -153c2 -3 4 -9 4 -12c0 -6 -5 -19 -10 -19c-13 0 -25 13 -30 18c-45 47 -103 100 -170 145c-9 6 -18 20 -18 29c0 3 1 6 3 7c77 52 128 100 193 170c5 5 12 12 24 12c4 0 10 -14 10 -19
s-3 -11 -6 -16c-56 -85 -75 -111 -112 -148z" />
    <glyph glyph-name="logicalnot" unicode="&#xac;" horiz-adv-x="600" 
d="M64 322c-7 0 -14 6 -14 12c0 9 3 48 24 48h463c7 0 13 -7 13 -14v-301c0 -21 -39 -24 -48 -24c-6 0 -12 7 -12 14v247c0 10 -4 18 -14 18h-412z" />
    <glyph glyph-name="uni00AD" unicode="&#xad;" horiz-adv-x="0" 
 />
    <glyph glyph-name="registered" unicode="&#xae;" horiz-adv-x="665" 
d="M346 630c167 0 303 -136 303 -303s-137 -303 -304 -303s-302 136 -302 303s136 303 303 303zM346 590c-145 0 -263 -118 -263 -263c0 -146 116 -269 262 -269c147 0 264 122 264 269c0 145 -118 263 -263 263zM342 498c89 0 132 -30 132 -81c0 -41 -29 -68 -53 -78
c-9 -4 -4 -10 0 -17l66 -111c8 -14 19 -17 31 -17c4 0 16 4 16 -4c0 -18 -25 -27 -44 -27c-24 0 -46.1885 10.2646 -58 30l-58 97c-11 18 -29 30 -54 30c-8 0 -16 0 -16 -7l1 -80c0.275391 -21.998 18 -27 34 -32c9 -3 19 -10 19 -18c0 -6 -10 -11 -16 -11
c-32 0 -39 4 -67 4s-35 -4 -67 -4c-6 0 -16 5 -16 11c0 8 10 15 19 18c16 5 25 10 25 32v189c0 41 -3 37 -23 42c-14 4 -19 13 -19 18s7 14 16 14c28 0 100 2 132 2zM403 413c0 32 -26 54 -61 54c-30 0 -38 -4 -38 -17v-89c0 -8 13 -9 27 -9c39 0 72 22 72 61z" />
    <glyph glyph-name="macron" unicode="&#xaf;" horiz-adv-x="290" 
d="M49 669h203c6 0 13 -6 13 -12c0 -22 -10 -49 -31 -49h-195c-7 0 -14 6 -14 12c0 9 5 49 24 49z" />
    <glyph glyph-name="degree" unicode="&#xb0;" horiz-adv-x="357" 
d="M98 483c0 -47 38 -84 85 -84c49 0 85 44 85 93c0 46 -44 75 -90 75c-45 0 -80 -39 -80 -84zM178 620c73 0 145 -45 145 -118c0 -83 -62 -155 -145 -155c-78 0 -137 66 -137 144c0 73 64 129 137 129z" />
    <glyph glyph-name="plusminus" unicode="&#xb1;" horiz-adv-x="424" 
d="M200 277h-105c-21 0 -53 5 -53 30c0 18 21 36 53 36h105v105c0 36 17 53 32 53s33 -10 33 -42v-116h115c25 0 42 -13 42 -28s-13 -37 -43 -37h-114v-117c0 -19 -7 -40 -32 -40s-33 16 -33 38v118zM95 0c-21 0 -53 5 -53 30c0 18 21 36 53 36h285c25 0 42 -13 42 -28
s-13 -37 -43 -37z" />
    <glyph glyph-name="uni00B2" unicode="&#xb2;" horiz-adv-x="311" 
d="M70.5 665.4c-7.89062 -6.14258 -17.25 -19.9629 -19.7344 -19.9629c-7.45312 0 -14.7656 7.3125 -14.7656 18.5625c0 30 60 86 121 86c51 0 105 -31 105 -86c0 -62 -49.1436 -86.0537 -96 -126.6l-49 -42.4004c-12.4365 -11.5898 -10 -18 4 -18h104
c30 0 35.9424 10.9424 45 20c3.53516 3.53516 10 16 19 16c6 0 10 -10 10 -13c0 -1 -1 -3 -1 -4c-13 -36 -14 -37 -20 -68c-2 -11 -7 -12 -12 -12h-201c-23 0 -42 8 -42 22c0 12 5 18 16 27l96 84c29.3438 25.6885 55 51 55 89c0 31 -24 56 -55 56
c-35 0 -47.1406 -15.085 -64.5 -28.5996z" />
    <glyph glyph-name="uni00B3" unicode="&#xb3;" horiz-adv-x="300" 
d="M112 434c-29 0 -66 5 -66 33c0 8 9 28 18 28c6 0 11 -3 13 -5c12 -8 35 -22 65 -22c13 0 59 10 59 68c0 34 -29 57 -67 57c-10 0 -26 -4 -37 -7c-6 -2 -19 6 -14 11c15 15 35 18 49 25c34 18 55 31 55 64c0 21 -29 37 -47 37c-23 0 -49 -7 -72 -30c-2 -2 -6 -6 -8 -6
c-3 0 -10 7 -8 11c16 31 50 72 103 72c51 0 88 -20 88 -71c0 -25 -23 -48 -59 -66c-4 -2 -4 -8 0 -8c40 0 69 -35 69 -75c0 -81 -88 -116 -141 -116z" />
    <glyph glyph-name="acute" unicode="&#xb4;" horiz-adv-x="207" 
d="M64 541c-8 -9 -22 -22 -30 -22c-9 0 -9 4 -9 13c0 15 57 129 76 162c6 10 17 18 27 18c25 0 54 -7 54 -23c0 -14 -87 -115 -118 -148z" />
    <glyph glyph-name="mu" unicode="&#xb5;" horiz-adv-x="510" 
d="M420 77c37 0 65 39 73 39c5 0 11 -4 11 -9c0 -75 -55 -115 -98 -115c-33 0 -47 15 -67 63c-2 6 -11 33 -13 54c-7 -16 -66 -115 -116 -115c-105 0 -117 75 -132 75c-7 0 -10 -13 -10 -34c0 -29 6 -71 12 -106c13 -78 61 -135 61 -153c0 -20 -13 -42 -32 -42
c-32 0 -51 20 -63 51c-9 24 -15 147 -15 222c0 17 7 60 7 92c0 33 -7 200 -7 244c0 42 13 86 52 86c29 0 47 -27 47 -75c0 -42 -31 -175 -31 -215c0 -26 26 -74 70 -74c53 0 80 19 104 64c38 73 32 134 32 214c0 39 23 83 57 83s43 -41 43 -63c0 -37 -48 -141 -48 -194
c0 -37 18 -92 63 -92z" />
    <glyph glyph-name="paragraph" unicode="&#xb6;" horiz-adv-x="586" 
d="M210 -183c0 -26 21 -51 48 -51c70 0 102 76 102 146v140c0 10 -2 25 -13 25c-161 0 -301 102 -301 263c0 173 179 268 352 266h140c11 0 15 -13 15 -22s-6 -34 -14 -34h-105c-10 0 -18 -9 -18 -18v-591c0 -100 -55 -210 -154 -210c-54 0 -100 42 -100 97
c0 49 33 95 82 95c37 0 66 -28 66 -65c0 -27 -20 -50 -47 -50c-20 0 -35 23 -44 23c-6 0 -9 -7 -9 -14z" />
    <glyph glyph-name="periodcentered" unicode="&#xb7;" horiz-adv-x="204" 
d="M102 434c34 0 62 -28 62 -62s-28 -62 -62 -62s-62 28 -62 62s28 62 62 62z" />
    <glyph glyph-name="cedilla" unicode="&#xb8;" horiz-adv-x="207" 
d="M177 9c-40 -28 -58 -56 -58 -67c0 -20 81 -64 81 -113c0 -55 -76 -94 -131 -94c-24 0 -34 16 -34 42c0 15 12 32 23 32c6 0 37 -29 58 -29c17 0 18 9 18 24c0 37 -82 75 -82 101c0 30 22 49 85 104h40z" />
    <glyph glyph-name="uni00B9" unicode="&#xb9;" horiz-adv-x="300" 
d="M178 784c6 0 10 -6 9 -14c-2 -13 -4 -32 -4 -54c0 -45 -1 -99 -1 -127c0 -30 0 -55 1 -79c2 -39 6 -40 50 -46c8 -1 12 -7 12 -13s-4 -12 -12 -12c-57 0 -50 5 -82 5s-28 -5 -82 -5c-7 0 -11 7 -11 14c0 6 3 11 11 11c26 2 54 5 54 46v153c0 27 -37 41 -54 47
c-8 3 -11 8 -11 13c0 7 5 13 10 14c51 5 104 47 110 47z" />
    <glyph glyph-name="ordmasculine" unicode="&#xba;" horiz-adv-x="309" 
d="M160 524c65 0 124 -55 124 -120c0 -70 -46 -136 -136 -136c-67 0 -123 48 -123 120c0 74 61 136 135 136zM149 491c-45 0 -63 -43 -63 -89c0 -55 30 -103 74 -103s63 42 63 90c0 52 -29 102 -74 102zM49 196h222c6 0 14 -5 14 -11c0 -1 -1 -2 -1 -3
c-7 -13 -16 -21 -31 -21h-214c-7 0 -14 6 -14 12c0 9 11 23 24 23z" />
    <glyph glyph-name="guillemotright" unicode="&#xbb;" horiz-adv-x="640" 
d="M428 202c6 6 6 8 0 14c-42 42 -76 88 -112 153c-2 3 -4 9 -4 12c0 6 5 19 10 19c13 0 25 -13 30 -18c45 -47 103 -100 170 -145c9 -6 18 -20 18 -29c0 -3 -1 -6 -3 -7c-77 -52 -128 -100 -193 -170c-5 -5 -12 -12 -24 -12c-4 0 -10 14 -10 19s3 11 6 16
c56 85 75 111 112 148zM218 202c6 6 6 8 0 14c-42 42 -76 88 -112 153c-2 3 -4 9 -4 12c0 6 5 19 10 19c13 0 25 -13 30 -18c45 -47 103 -100 170 -145c9 -6 18 -20 18 -29c0 -3 -1 -6 -3 -7c-77 -52 -128 -100 -193 -170c-5 -5 -12 -12 -24 -12c-4 0 -10 14 -10 19
s3 11 6 16c56 85 75 111 112 148z" />
    <glyph glyph-name="onequarter" unicode="&#xbc;" horiz-adv-x="641" 
d="M154 626c3 1 5 2 7 2c6 0 10 -6 9 -14c-2 -14 -4 -38 -4 -70c0 -44 -1 -80 -1 -111c0 -30 1 -55 1 -79c1 -39 6 -40 50 -46c8 -1 12 -7 12 -13s-4 -12 -12 -12c-57 0 -50 5 -82 5s-28 -5 -82 -5c-7 0 -11 7 -11 14c0 6 3 11 11 11c27 2 54 5 54 46v153
c0 27 -37 41 -54 47c-8 3 -11 8 -11 13c0 7 5 13 10 14c51 5 91 39 103 45zM584 108c-7 0 -22 -1 -22 -5v-84c0 -15 -39 -29 -43 -29c-5 0 -9 2 -9 8v102c0 4 -8 5 -9 5c-49 0 -83 -3 -146 -4c-4 0 -8 6 -6 8c42 56 87 110 131 164c12 15 35 40 58 65c5 5 11 11 15 12
s7 -5 7 -8c0 -26 0 -117 2 -191c0 -2 1 -4 3 -4h18c14 0 25 0 41 1c3 0 7 -2 7 -5c0 -14 -10 -36 -13 -36c-11 0 -24 1 -34 1zM502 148c3 0 8 2 8 5v111c0 2 -4 3 -6 1c-38 -42 -64 -75 -93 -112c-1 -2 -2 -5 0 -5h91zM121 -11l412 649c9 14 22 17 39 17c8 0 17 -10 13 -17
l-412 -649c-8 -13 -21 -15 -36 -15c-9 0 -21 8 -16 15z" />
    <glyph glyph-name="onehalf" unicode="&#xbd;" horiz-adv-x="699" 
d="M154 626c3 1 5 2 7 2c6 0 10 -6 9 -14c-2 -14 -4 -38 -4 -70c0 -44 -1 -80 -1 -111c0 -30 1 -55 1 -79c1 -39 6 -40 50 -46c8 -1 12 -7 12 -13s-4 -12 -12 -12c-57 0 -50 5 -82 5s-28 -5 -82 -5c-7 0 -11 7 -11 14c0 6 3 11 11 11c27 2 54 5 54 46v153
c0 27 -37 41 -54 47c-8 3 -11 8 -11 13c0 7 5 13 10 14c51 5 91 39 103 45zM121 -11l412 649c9 14 22 17 39 17c7 0 14 -7 14 -13c0 -1 0 -3 -1 -4l-412 -649c-8 -13 -21 -15 -36 -15c-9 0 -21 8 -16 15zM443 232c-5 -10 -16 -6 -16 5c0 20 47 87 117 87c51 0 91 -42 91 -93
c0 -34 -17 -54 -34 -79c-22 -33 -92 -92 -99 -100c-4 -4 8 -6 12 -6h69c30 0 59 20 74 50c2 5 9 9 15 8c3 0 4 -2 4 -5c0 -1 -1 -3 -1 -4c-13 -36 -21 -60 -27 -91c-2 -14 -8 -14 -12 -13c-51 3 -51 3 -84 3c-48 0 -72 0 -123 -2c-5 -1 -7 9 0 16l39 40
c16 16 111 94 111 159c0 37 -27 63 -57 63c-36 0 -51 -8 -79 -38z" />
    <glyph glyph-name="threequarters" unicode="&#xbe;" horiz-adv-x="641" 
d="M584 108c-7 0 -22 -1 -22 -5v-84c0 -15 -39 -29 -43 -29c-5 0 -9 2 -9 8v102c0 4 -8 5 -9 5c-49 0 -83 -3 -146 -4c-3 0 -7 4 -7 7c0 1 1 1 1 1c42 56 87 110 131 164c12 15 35 40 58 65c5 5 11 11 15 12h1c3 0 6 -5 6 -8c0 -26 0 -117 2 -191c0 -2 1 -4 3 -4h18
c14 0 25 0 41 1c3 0 7 -2 7 -5c0 -14 -10 -36 -13 -36c-11 0 -24 1 -34 1zM502 148c3 0 8 2 8 5v111c0 2 -4 3 -6 1c-38 -42 -64 -75 -93 -112c-1 -2 -2 -5 0 -5h91zM121 -11l412 649c9 14 22 17 39 17c8 0 17 -10 13 -17l-412 -649c-8 -13 -21 -15 -36 -15
c-8 0 -17 6 -17 12c0 1 0 2 1 3zM121 274c-30 0 -68 4 -68 33c0 8 9 28 18 28c6 0 11 -3 13 -5c12 -8 37 -22 67 -22c13 0 59 15 59 73c0 39 -29 76 -67 76c-10 0 -26 -4 -37 -7c-6 -2 -19 6 -14 11c15 15 36 16 49 25c30 20 55 30 55 62c0 21 -29 37 -47 37
c-23 0 -48 -10 -72 -30c-3 -3 -6 -7 -10 -6c-4 2 -8 7 -6 11c16 31 50 72 103 72c51 -1 88 -20 88 -71c0 -25 -23 -49 -59 -67c-4 -2 -4 -5 0 -5c44 -2 69 -44 69 -88c0 -81 -88 -127 -141 -127z" />
    <glyph glyph-name="questiondown" unicode="&#xbf;" horiz-adv-x="266" 
d="M110 340c0 36 23 65 61 65c32 0 59 -24 59 -57c0 -34 -27 -60 -63 -60c-31 0 -57 20 -57 52zM42 42c0 51 12 67 30 74c26 10 43 14 74 26c8 3 19 60 38 60c15 0 26 -56 26 -83c0 -21 -4 -51 -17 -56c-25 -10 -45 -14 -66 -23c-35 -15 -52 -36 -52 -70
c0 -21 18 -45 34 -50c22 -6 45 -12 74 -23c22 -8 36 -20 36 -47c0 -43 -6 -72 -18 -72c-121 0 -159 107 -159 264z" />
    <glyph glyph-name="Agrave" unicode="&#xc0;" horiz-adv-x="649" 
d="M372 650c-3 0 -9 2 -18 9c-40 30 -90 68 -130 102c-9 8 -13 12 -13 19c0 14 50 23 64 23c11 0 20 -3 27 -13c27 -39 47 -79 71 -119c3 -5 5 -11 5 -15c0 -3 -2 -6 -6 -6zM238 272c-6 -16 -9 -21 9 -21h122c20 0 21 4 11 36l-61 187c-3 10 -7 7 -11 -3zM523 4
c-66 0 -104 -6 -134 -6c-13 0 -32 6 -32 17c0 15 32 20 54 30c36 17 34 36 29 53l-29 95c-3 9 -8 12 -16 12h-167c-5 0 -12 -1 -16 -11l-38 -109c-6 -18 -7 -34 22 -42c26 -7 37 -18 37 -28c0 -11 -10 -17 -35 -17c-19 0 -63 6 -82 6c-25 0 -48 -6 -63 -6
c-19 0 -33 6 -33 17c0 15 33 20 55 30c33 15 32 20 47 61l153 423c17 43 17 56 28 57c19 2 37 30 43 30c17 0 23 -33 37 -72l132 -373c29 -81 40 -108 89 -126c31 -11 40 -21 40 -31c0 -11 -10 -16 -29 -16c-23 0 -59 6 -92 6z" />
    <glyph glyph-name="Aacute" unicode="&#xc1;" horiz-adv-x="649" 
d="M300 650c-4 0 -6 3 -6 6c0 4 2 10 5 15c24 40 44 80 71 119c7 10 16 13 27 13c14 0 64 -9 64 -23c0 -7 -4 -11 -13 -19c-40 -34 -90 -72 -130 -102c-9 -7 -15 -9 -18 -9zM238 272c-6 -16 -9 -21 9 -21h122c20 0 21 4 11 36l-61 187c-3 10 -7 7 -11 -3zM523 4
c-66 0 -104 -6 -134 -6c-13 0 -32 6 -32 17c0 15 32 20 54 30c36 17 34 36 29 53l-29 95c-3 9 -8 12 -16 12h-167c-5 0 -12 -1 -16 -11l-38 -109c-6 -18 -7 -34 22 -42c26 -7 37 -18 37 -28c0 -11 -10 -17 -35 -17c-19 0 -63 6 -82 6c-25 0 -48 -6 -63 -6
c-19 0 -33 6 -33 17c0 15 33 20 55 30c33 15 32 20 47 61l153 423c17 43 17 56 28 57c19 2 37 30 43 30c17 0 23 -33 37 -72l132 -373c29 -81 40 -108 89 -126c31 -11 40 -21 40 -31c0 -11 -10 -16 -29 -16c-23 0 -59 6 -92 6z" />
    <glyph glyph-name="Acircumflex" unicode="&#xc2;" horiz-adv-x="649" 
d="M205 646c-9 0 -15 4 -15 10c0 4 2 8 7 12l98 83c19 17 26 22 41 22s22 -5 41 -22l98 -83c5 -4 6 -8 6 -12c0 -6 -5 -11 -14 -11c-13 0 -95 35 -121 50c-9 5 -11 5 -20 0c-26 -15 -108 -49 -121 -49zM238 272c-6 -16 -9 -21 9 -21h122c20 0 21 4 11 36l-61 187
c-3 10 -7 7 -11 -3zM523 4c-66 0 -104 -6 -134 -6c-13 0 -32 6 -32 17c0 15 32 20 54 30c36 17 34 36 29 53l-29 95c-3 9 -8 12 -16 12h-167c-5 0 -12 -1 -16 -11l-38 -109c-6 -18 -7 -34 22 -42c26 -7 37 -18 37 -28c0 -11 -10 -17 -35 -17c-19 0 -63 6 -82 6
c-25 0 -48 -6 -63 -6c-19 0 -33 6 -33 17c0 15 33 20 55 30c33 15 32 20 47 61l153 423c17 43 17 56 28 57c19 2 37 30 43 30c17 0 23 -33 37 -72l132 -373c29 -81 40 -108 89 -126c31 -11 40 -21 40 -31c0 -11 -10 -16 -29 -16c-23 0 -59 6 -92 6z" />
    <glyph glyph-name="Atilde" unicode="&#xc3;" horiz-adv-x="649" 
d="M396 674c-25 0 -99 5 -124 5c-20 0 -47 -25 -57 -25c-8 0 -16 7 -16 17c0 23 59 68 84 68s94 -4 119 -4c35 0 50 39 62 39c10 0 17 -7 17 -17c0 -20 -58 -83 -85 -83zM238 272c-6 -16 -9 -21 9 -21h122c20 0 21 4 11 36l-61 187c-3 10 -7 7 -11 -3zM523 4
c-66 0 -104 -6 -134 -6c-13 0 -32 6 -32 17c0 15 32 20 54 30c36 17 34 36 29 53l-29 95c-3 9 -8 12 -16 12h-167c-5 0 -12 -1 -16 -11l-38 -109c-6 -18 -7 -34 22 -42c26 -7 37 -18 37 -28c0 -11 -10 -17 -35 -17c-19 0 -63 6 -82 6c-25 0 -48 -6 -63 -6
c-19 0 -33 6 -33 17c0 15 33 20 55 30c33 15 32 20 47 61l153 423c17 43 17 56 28 57c19 2 37 30 43 30c17 0 23 -33 37 -72l132 -373c29 -81 40 -108 89 -126c31 -11 40 -21 40 -31c0 -11 -10 -16 -29 -16c-23 0 -59 6 -92 6z" />
    <glyph glyph-name="Adieresis" unicode="&#xc4;" horiz-adv-x="649" 
d="M245 760c28 0 54 -26 54 -54s-26 -54 -54 -54s-54 26 -54 54s26 54 54 54zM432 760c28 0 54 -26 54 -54s-26 -54 -54 -54s-54 26 -54 54s26 54 54 54zM238 272c-6 -16 -9 -21 9 -21h122c20 0 21 4 11 36l-61 187c-3 10 -7 7 -11 -3zM523 4c-66 0 -104 -6 -134 -6
c-13 0 -32 6 -32 17c0 15 32 20 54 30c36 17 34 36 29 53l-29 95c-3 9 -8 12 -16 12h-167c-5 0 -12 -1 -16 -11l-38 -109c-6 -18 -7 -34 22 -42c26 -7 37 -18 37 -28c0 -11 -10 -17 -35 -17c-19 0 -63 6 -82 6c-25 0 -48 -6 -63 -6c-19 0 -33 6 -33 17c0 15 33 20 55 30
c33 15 32 20 47 61l153 423c17 43 17 56 28 57c19 2 37 30 43 30c17 0 23 -33 37 -72l132 -373c29 -81 40 -108 89 -126c31 -11 40 -21 40 -31c0 -11 -10 -16 -29 -16c-23 0 -59 6 -92 6z" />
    <glyph glyph-name="Aring" unicode="&#xc5;" horiz-adv-x="649" 
d="M291 707c0 -28 18 -46 46 -46c25 0 36 21 36 46c0 27 -17 45 -44 45c-26 0 -38 -19 -38 -45zM336 779c42 0 83 -25 83 -67c0 -47 -44 -77 -91 -77c-43 0 -83 26 -83 69c0 46 45 75 91 75zM238 272c-6 -16 -9 -21 9 -21h122c20 0 21 4 11 36l-61 187c-3 10 -7 7 -11 -3z
M523 4c-66 0 -104 -6 -134 -6c-13 0 -32 6 -32 17c0 15 32 20 54 30c36 17 34 36 29 53l-29 95c-3 9 -8 12 -16 12h-167c-5 0 -12 -1 -16 -11l-38 -109c-6 -18 -7 -34 22 -42c26 -7 37 -18 37 -28c0 -11 -10 -17 -35 -17c-19 0 -63 6 -82 6c-25 0 -48 -6 -63 -6
c-19 0 -33 6 -33 17c0 15 33 20 55 30c33 15 32 20 47 61l153 423c17 43 17 56 28 57c19 2 37 30 43 30c17 0 23 -33 37 -72l132 -373c29 -81 40 -108 89 -126c31 -11 40 -21 40 -31c0 -11 -10 -16 -29 -16c-23 0 -59 6 -92 6z" />
    <glyph glyph-name="AE" unicode="&#xc6;" horiz-adv-x="887" 
d="M326 324c-8 -15 -7 -19 11 -19h106c11 0 12 10 12 23v170c0 35 -12 29 -20 15zM313 556c-15 2 -24 10 -24 19c0 12 14 16 35 16h340c42 0 101 5 119 5c16 0 24 -5 26 -14c4 -16 9 -71 9 -82c0 -12 -4 -26 -16 -26s-27 18 -36 38c-8 17 -33 33 -81 33h-104
c-27 0 -31 -8 -31 -21v-188c0 -24 9 -31 23 -31h71c32 0 43 11 61 28c11 10 20 25 31 25c9 0 11 -8 11 -20c0 -8 -4 -43 -4 -58s1 -46 1 -57c0 -10 -3 -26 -13 -26c-13 0 -26 28 -32 38c-7 11 -14 21 -35 21h-90c-19 0 -24 -5 -24 -24v-92c0 -52 21 -95 69 -95h94
c77 0 90 32 119 93c5 11 18 19 27 19c10 0 14 -10 14 -25c0 -28 -30 -102 -38 -115c-8 -15 -10 -19 -27 -19c-37 0 -203 5 -309 5c-47 0 -106 -5 -113 -5c-11 1 -33 7 -33 17c0 15 33 20 55 30c34 15 47 47 47 83v104c0 12 -4 24 -12 24h-141c-10 0 -22 -11 -27 -21
l-88 -150c-10 -16 -20 -34 9 -42c26 -7 37 -18 37 -28c0 -11 -10 -17 -35 -17c-19 0 -63 6 -82 6c-25 0 -48 -6 -63 -6c-19 0 -33 6 -33 17c0 15 33 20 55 30c33 15 38 24 60 61l237 397c22 36 -4 47 -59 53z" />
    <glyph glyph-name="Ccedilla" unicode="&#xc7;" horiz-adv-x="677" 
d="M325 -115c0 7 3 11 6 15l80 108h31l-41 -62c-5 -7 5 -14 10 -16c28 -12 66 -42 66 -89c0 -68 -84 -116 -129 -116c-35 0 -45 17 -45 32c0 23 8 34 16 34s14 -13 63 -13c17 0 42 10 42 39c0 24 -12 54 -47 54c-12 0 -17 -3 -26 -3c-17 0 -26 11 -26 17zM408 608
c76 0 166 -38 189 -40s30 -55 30 -110c0 -17 -7 -28 -18 -28c-15 0 -27 21 -40 63c-14 44 -110 70 -181 70c-129 0 -230 -108 -230 -246c0 -153 113 -289 272 -289c101 0 124 70 177 145c4 6 10 8 18 8s16 -10 16 -28c0 -8 -31 -76 -40 -95c-16 -33 -21 -40 -46 -49
c-40 -14 -110 -25 -166 -25c-169 0 -343 113 -343 291c0 197 165 333 362 333z" />
    <glyph glyph-name="Egrave" unicode="&#xc8;" horiz-adv-x="569" 
d="M342 650c-3 0 -9 2 -18 9c-40 30 -90 68 -130 102c-9 8 -13 12 -13 19c0 14 50 23 64 23c11 0 20 -3 27 -13c27 -39 47 -79 71 -119c3 -5 5 -11 5 -15c0 -3 -2 -6 -6 -6zM217 356c0 -24 9 -31 23 -31h86c32 0 43 11 61 28c11 10 20 25 31 25c9 0 11 -8 11 -20
c0 -8 -4 -43 -4 -58s1 -46 1 -57c0 -10 -3 -26 -13 -26c-13 0 -26 28 -32 38c-7 11 -14 21 -35 21h-105c-19 0 -24 -5 -24 -24v-168c0 -26 9 -39 38 -39h140c77 0 90 32 119 93c5 11 18 19 27 19c10 0 14 -10 14 -25c0 -28 -30 -102 -38 -115c-8 -15 -10 -19 -27 -19
c-37 0 -218 5 -324 5c-47 0 -106 -5 -113 -5c-11 1 -33 7 -33 17c0 15 33 20 55 30c34 15 47 35 47 72v365c0 57 -25 58 -82 74c-9 3 -16 8 -16 17c0 12 14 18 35 18h287c42 0 101 5 119 5c16 0 24 -5 26 -14c4 -16 9 -71 9 -82c0 -12 -4 -26 -16 -26s-27 18 -36 38
c-8 17 -33 33 -81 33h-119c-27 0 -31 -8 -31 -21v-168z" />
    <glyph glyph-name="Eacute" unicode="&#xc9;" horiz-adv-x="569" 
d="M270 650c-4 0 -6 3 -6 6c0 4 2 10 5 15c24 40 44 80 71 119c7 10 16 13 27 13c14 0 64 -9 64 -23c0 -7 -4 -11 -13 -19c-40 -34 -90 -72 -130 -102c-9 -7 -15 -9 -18 -9zM217 356c0 -24 9 -31 23 -31h86c32 0 43 11 61 28c11 10 20 25 31 25c9 0 11 -8 11 -20
c0 -8 -4 -43 -4 -58s1 -46 1 -57c0 -10 -3 -26 -13 -26c-13 0 -26 28 -32 38c-7 11 -14 21 -35 21h-105c-19 0 -24 -5 -24 -24v-168c0 -26 9 -39 38 -39h140c77 0 90 32 119 93c5 11 18 19 27 19c10 0 14 -10 14 -25c0 -28 -30 -102 -38 -115c-8 -15 -10 -19 -27 -19
c-37 0 -218 5 -324 5c-47 0 -106 -5 -113 -5c-11 1 -33 7 -33 17c0 15 33 20 55 30c34 15 47 35 47 72v365c0 57 -25 58 -82 74c-9 3 -16 8 -16 17c0 12 14 18 35 18h287c42 0 101 5 119 5c16 0 24 -5 26 -14c4 -16 9 -71 9 -82c0 -12 -4 -26 -16 -26s-27 18 -36 38
c-8 17 -33 33 -81 33h-119c-27 0 -31 -8 -31 -21v-168z" />
    <glyph glyph-name="Ecircumflex" unicode="&#xca;" horiz-adv-x="569" 
d="M175 646c-9 0 -15 4 -15 10c0 4 2 8 7 12l98 83c19 17 26 22 41 22s22 -5 41 -22l98 -83c5 -4 6 -8 6 -12c0 -6 -5 -11 -14 -11c-13 0 -95 35 -121 50c-9 5 -11 5 -20 0c-26 -15 -108 -49 -121 -49zM217 356c0 -24 9 -31 23 -31h86c32 0 43 11 61 28c11 10 20 25 31 25
c9 0 11 -8 11 -20c0 -8 -4 -43 -4 -58s1 -46 1 -57c0 -10 -3 -26 -13 -26c-13 0 -26 28 -32 38c-7 11 -14 21 -35 21h-105c-19 0 -24 -5 -24 -24v-168c0 -26 9 -39 38 -39h140c77 0 90 32 119 93c5 11 18 19 27 19c10 0 14 -10 14 -25c0 -28 -30 -102 -38 -115
c-8 -15 -10 -19 -27 -19c-37 0 -218 5 -324 5c-47 0 -106 -5 -113 -5c-11 1 -33 7 -33 17c0 15 33 20 55 30c34 15 47 35 47 72v365c0 57 -25 58 -82 74c-9 3 -16 8 -16 17c0 12 14 18 35 18h287c42 0 101 5 119 5c16 0 24 -5 26 -14c4 -16 9 -71 9 -82
c0 -12 -4 -26 -16 -26s-27 18 -36 38c-8 17 -33 33 -81 33h-119c-27 0 -31 -8 -31 -21v-168z" />
    <glyph glyph-name="Edieresis" unicode="&#xcb;" horiz-adv-x="569" 
d="M215 760c28 0 54 -26 54 -54s-26 -54 -54 -54s-54 26 -54 54s26 54 54 54zM402 760c28 0 54 -26 54 -54s-26 -54 -54 -54s-54 26 -54 54s26 54 54 54zM217 356c0 -24 9 -31 23 -31h86c32 0 43 11 61 28c11 10 20 25 31 25c9 0 11 -8 11 -20c0 -8 -4 -43 -4 -58
s1 -46 1 -57c0 -10 -3 -26 -13 -26c-13 0 -26 28 -32 38c-7 11 -14 21 -35 21h-105c-19 0 -24 -5 -24 -24v-168c0 -26 9 -39 38 -39h140c77 0 90 32 119 93c5 11 18 19 27 19c10 0 14 -10 14 -25c0 -28 -30 -102 -38 -115c-8 -15 -10 -19 -27 -19c-37 0 -218 5 -324 5
c-47 0 -106 -5 -113 -5c-11 1 -33 7 -33 17c0 15 33 20 55 30c34 15 47 35 47 72v365c0 57 -25 58 -82 74c-9 3 -16 8 -16 17c0 12 14 18 35 18h287c42 0 101 5 119 5c16 0 24 -5 26 -14c4 -16 9 -71 9 -82c0 -12 -4 -26 -16 -26s-27 18 -36 38c-8 17 -33 33 -81 33h-119
c-27 0 -31 -8 -31 -21v-168z" />
    <glyph glyph-name="Igrave" unicode="&#xcc;" horiz-adv-x="339" 
d="M206 650c-3 0 -9 2 -18 9c-40 30 -90 68 -130 102c-9 8 -13 12 -13 19c0 14 50 23 64 23c11 0 20 -3 27 -13c27 -39 47 -79 71 -119c3 -5 5 -11 5 -15c0 -3 -2 -6 -6 -6zM280 591c15 0 35 -6 35 -18c0 -9 -6 -14 -15 -17c-57 -16 -83 -17 -83 -74v-365
c0 -37 13 -57 47 -72c22 -10 55 -15 55 -30c0 -10 -21 -16 -32 -17c-7 0 -73 6 -121 6c-47 0 -106 -6 -113 -6c-11 1 -33 7 -33 17c0 15 33 20 55 30c34 15 47 35 47 72v365c0 57 -25 58 -82 74c-9 3 -16 8 -16 17c0 12 20 18 35 18c39 0 75 -5 111 -5c35 0 76 5 110 5z" />
    <glyph glyph-name="Iacute" unicode="&#xcd;" horiz-adv-x="339" 
d="M134 650c-4 0 -6 3 -6 6c0 4 2 10 5 15c24 40 44 80 71 119c7 10 16 13 27 13c14 0 64 -9 64 -23c0 -7 -4 -11 -13 -19c-40 -34 -90 -72 -130 -102c-9 -7 -15 -9 -18 -9zM280 591c15 0 35 -6 35 -18c0 -9 -6 -14 -15 -17c-57 -16 -83 -17 -83 -74v-365
c0 -37 13 -57 47 -72c22 -10 55 -15 55 -30c0 -10 -21 -16 -32 -17c-7 0 -73 6 -121 6c-47 0 -106 -6 -113 -6c-11 1 -33 7 -33 17c0 15 33 20 55 30c34 15 47 35 47 72v365c0 57 -25 58 -82 74c-9 3 -16 8 -16 17c0 12 20 18 35 18c39 0 75 -5 111 -5c35 0 76 5 110 5z" />
    <glyph glyph-name="Icircumflex" unicode="&#xce;" horiz-adv-x="339" 
d="M39 646c-9 0 -15 4 -15 10c0 4 2 8 7 12l98 83c19 17 26 22 41 22s22 -5 41 -22l98 -83c5 -4 6 -8 6 -12c0 -6 -5 -11 -14 -11c-13 0 -95 35 -121 50c-9 5 -11 5 -20 0c-26 -15 -108 -49 -121 -49zM280 591c15 0 35 -6 35 -18c0 -9 -6 -14 -15 -17
c-57 -16 -83 -17 -83 -74v-365c0 -37 13 -57 47 -72c22 -10 55 -15 55 -30c0 -10 -21 -16 -32 -17c-7 0 -73 6 -121 6c-47 0 -106 -6 -113 -6c-11 1 -33 7 -33 17c0 15 33 20 55 30c34 15 47 35 47 72v365c0 57 -25 58 -82 74c-9 3 -16 8 -16 17c0 12 20 18 35 18
c39 0 75 -5 111 -5c35 0 76 5 110 5z" />
    <glyph glyph-name="Idieresis" unicode="&#xcf;" horiz-adv-x="339" 
d="M79 760c28 0 54 -26 54 -54s-26 -54 -54 -54s-54 26 -54 54s26 54 54 54zM266 760c28 0 54 -26 54 -54s-26 -54 -54 -54s-54 26 -54 54s26 54 54 54zM280 591c15 0 35 -6 35 -18c0 -9 -6 -14 -15 -17c-57 -16 -83 -17 -83 -74v-365c0 -37 13 -57 47 -72
c22 -10 55 -15 55 -30c0 -10 -21 -16 -32 -17c-7 0 -73 6 -121 6c-47 0 -106 -6 -113 -6c-11 1 -33 7 -33 17c0 15 33 20 55 30c34 15 47 35 47 72v365c0 57 -25 58 -82 74c-9 3 -16 8 -16 17c0 12 20 18 35 18c39 0 75 -5 111 -5c35 0 76 5 110 5z" />
    <glyph glyph-name="Eth" unicode="&#xd0;" horiz-adv-x="716" 
d="M217 521v-354c0 -106 72 -129 160 -129c119 0 182 134 182 261c0 146 -113 254 -255 254c-43 0 -87 -10 -87 -32zM337 598c168 0 334 -109 334 -279c0 -173 -97 -326 -312 -326c-95 0 -148 11 -194 11s-105 -6 -112 -6c-11 1 -33 6 -33 17c0 15 33 20 55 30
c33 15 47 47 47 84v353c0 57 -25 57 -82 74c-9 3 -16 8 -16 17c0 12 14 18 35 18c31 0 50 -1 80 -1c62 0 136 8 198 8z" />
    <glyph glyph-name="Ntilde" unicode="&#xd1;" horiz-adv-x="685" 
d="M406 674c-25 0 -99 5 -124 5c-20 0 -47 -25 -57 -25c-8 0 -16 7 -16 17c0 23 59 68 84 68s94 -4 119 -4c35 0 50 39 62 39c10 0 17 -7 17 -17c0 -20 -58 -83 -85 -83zM167 129c0 -38 13 -69 47 -84c22 -10 55 -15 55 -30c0 -10 -21 -16 -32 -17c-7 0 -51 6 -99 6
c-47 0 -85 -6 -92 -6c-11 1 -33 7 -33 17c0 15 33 20 55 30c34 15 47 46 47 84v261c0 48 -3 84 -14 97l-37 40c-21.7422 23.4795 -60 30 -60 48c0 8 7 11 21 11h105c22 0 43 -25 53 -36l333 -374c13.3047 -14.9326 28 -20 28 0v306c0 58 -25 58 -82 74c-9 3 -16 8 -16 17
c0 12 20 18 35 18c39 0 55 -5 91 -5c35 0 56 5 90 5c15 0 35 -6 35 -18c0 -9 -6 -14 -15 -17c-57 -16 -83 -16 -83 -74v-399c0 -47 3 -55 3 -82c0 -10 -10 -12 -20 -12c-11 0 -47 18 -85 60l-311 345c-10.0371 11.1475 -19 12 -19 -10v-255z" />
    <glyph glyph-name="Ograve" unicode="&#xd2;" horiz-adv-x="713" 
d="M398 650c-3 0 -9 2 -18 9c-40 30 -90 68 -130 102c-9 8 -13 12 -13 19c0 14 50 23 64 23c11 0 20 -3 27 -13c27 -39 47 -79 71 -119c3 -5 5 -11 5 -15c0 -3 -2 -6 -6 -6zM162 330c0 -139 79 -296 218 -296c119 0 171 127 171 246c0 130 -69 272 -199 272
c-110 0 -190 -112 -190 -222zM390 598c136 0 273 -142 273 -288c0 -171 -126 -322 -297 -322c-179 0 -316 125 -316 307c0 189 142 303 340 303z" />
    <glyph glyph-name="Oacute" unicode="&#xd3;" horiz-adv-x="713" 
d="M326 650c-4 0 -6 3 -6 6c0 4 2 10 5 15c24 40 44 80 71 119c7 10 16 13 27 13c14 0 64 -9 64 -23c0 -7 -4 -11 -13 -19c-40 -34 -90 -72 -130 -102c-9 -7 -15 -9 -18 -9zM162 330c0 -139 79 -296 218 -296c119 0 171 127 171 246c0 130 -69 272 -199 272
c-110 0 -190 -112 -190 -222zM390 598c136 0 273 -142 273 -288c0 -171 -126 -322 -297 -322c-179 0 -316 125 -316 307c0 189 142 303 340 303z" />
    <glyph glyph-name="Ocircumflex" unicode="&#xd4;" horiz-adv-x="713" 
d="M231 646c-9 0 -15 4 -15 10c0 4 2 8 7 12l98 83c19 17 26 22 41 22s22 -5 41 -22l98 -83c5 -4 6 -8 6 -12c0 -6 -5 -11 -14 -11c-13 0 -95 35 -121 50c-9 5 -11 5 -20 0c-26 -15 -108 -49 -121 -49zM162 330c0 -139 79 -296 218 -296c119 0 171 127 171 246
c0 130 -69 272 -199 272c-110 0 -190 -112 -190 -222zM390 598c136 0 273 -142 273 -288c0 -171 -126 -322 -297 -322c-179 0 -316 125 -316 307c0 189 142 303 340 303z" />
    <glyph glyph-name="Otilde" unicode="&#xd5;" horiz-adv-x="713" 
d="M422 674c-25 0 -99 5 -124 5c-20 0 -47 -25 -57 -25c-8 0 -16 7 -16 17c0 23 59 68 84 68s94 -4 119 -4c35 0 50 39 62 39c10 0 17 -7 17 -17c0 -20 -58 -83 -85 -83zM162 330c0 -139 79 -296 218 -296c119 0 171 127 171 246c0 130 -69 272 -199 272
c-110 0 -190 -112 -190 -222zM390 598c136 0 273 -142 273 -288c0 -171 -126 -322 -297 -322c-179 0 -316 125 -316 307c0 189 142 303 340 303z" />
    <glyph glyph-name="Odieresis" unicode="&#xd6;" horiz-adv-x="713" 
d="M271 760c28 0 54 -26 54 -54s-26 -54 -54 -54s-54 26 -54 54s26 54 54 54zM458 760c28 0 54 -26 54 -54s-26 -54 -54 -54s-54 26 -54 54s26 54 54 54zM162 330c0 -139 79 -296 218 -296c119 0 171 127 171 246c0 130 -69 272 -199 272c-110 0 -190 -112 -190 -222z
M390 598c136 0 273 -142 273 -288c0 -171 -126 -322 -297 -322c-179 0 -316 125 -316 307c0 189 142 303 340 303z" />
    <glyph glyph-name="multiply" unicode="&#xd7;" horiz-adv-x="376" 
d="M331 93c0 -15 -19 -32 -32 -32c-10 0 -19 6 -28 15l-83 83l-75 -74c-11 -11 -26 -24 -41 -24s-25 12 -25 28c0 13 6 28 20 42l74 75l-74 74c-15 15 -22 30 -22 42c0 16 14 28 29 28c9 0 19 -4 31 -16l82 -82l81 81c11 11 23 16 33 16c18 0 26 -14 26 -31
c0 -10 -4 -22 -14 -32l-80 -80l83 -83c8 -8 15 -19 15 -30z" />
    <glyph glyph-name="Oslash" unicode="&#xd8;" horiz-adv-x="713" 
d="M218 131c37 -57 92 -97 162 -97c119 0 171 127 171 246c0 51 -11 103 -31 148zM198 167l303 297c-34 52 -84 88 -149 88c-110 0 -190 -112 -190 -222c0 -55 12 -113 36 -163zM562 524l36 36c29 29 40 38 54 38c11 0 11 -5 11 -15s-6 -20 -13 -27l-61 -60
c45 -52 74 -119 74 -186c0 -171 -126 -322 -297 -322c-85 0 -160 28 -216 77l-47 -47c-14 -14 -28 -30 -40 -30c-9 0 -13 4 -13 13c0 10 5 26 19 39l53 53c-46 52 -72 121 -72 202c0 189 142 303 340 303c61 0 123 -29 172 -74z" />
    <glyph glyph-name="Ugrave" unicode="&#xd9;" horiz-adv-x="617" 
d="M378 650c-3 0 -9 2 -18 9c-40 30 -90 68 -130 102c-9 8 -13 12 -13 19c0 14 50 23 64 23c11 0 20 -3 27 -13c27 -39 47 -79 71 -119c3 -5 5 -11 5 -15c0 -3 -2 -6 -6 -6zM560 492v-242c0 -155 -102 -256 -249 -256c-179 0 -225 101 -225 254v234c0 48 -7 53 -70 74
c-9 3 -16 8 -16 17c0 12 20 18 35 18c39 0 43 -5 79 -5c35 0 80 5 114 5c15 0 35 -6 35 -18c0 -9 -6 -14 -15 -17c-43 -14 -67 -32 -67 -72v-200c0 -160 29 -240 151 -240c137 0 171 104 171 260v186c0 52 -11 51 -53 65c-9 3 -17 9 -17 18c0 12 20 18 35 18s50 -5 65 -5
s49 5 64 5s35 -6 35 -18c0 -9 -8 -14 -17 -17c-46 -15 -55 -25 -55 -64z" />
    <glyph glyph-name="Uacute" unicode="&#xda;" horiz-adv-x="617" 
d="M306 650c-4 0 -6 3 -6 6c0 4 2 10 5 15c24 40 44 80 71 119c7 10 16 13 27 13c14 0 64 -9 64 -23c0 -7 -4 -11 -13 -19c-40 -34 -90 -72 -130 -102c-9 -7 -15 -9 -18 -9zM560 492v-242c0 -155 -102 -256 -249 -256c-179 0 -225 101 -225 254v234c0 48 -7 53 -70 74
c-9 3 -16 8 -16 17c0 12 20 18 35 18c39 0 43 -5 79 -5c35 0 80 5 114 5c15 0 35 -6 35 -18c0 -9 -6 -14 -15 -17c-43 -14 -67 -32 -67 -72v-200c0 -160 29 -240 151 -240c137 0 171 104 171 260v186c0 52 -11 51 -53 65c-9 3 -17 9 -17 18c0 12 20 18 35 18s50 -5 65 -5
s49 5 64 5s35 -6 35 -18c0 -9 -8 -14 -17 -17c-46 -15 -55 -25 -55 -64z" />
    <glyph glyph-name="Ucircumflex" unicode="&#xdb;" horiz-adv-x="617" 
d="M211 646c-9 0 -15 4 -15 10c0 4 2 8 7 12l98 83c19 17 26 22 41 22s22 -5 41 -22l98 -83c5 -4 6 -8 6 -12c0 -6 -5 -11 -14 -11c-13 0 -95 35 -121 50c-9 5 -11 5 -20 0c-26 -15 -108 -49 -121 -49zM560 492v-242c0 -155 -102 -256 -249 -256c-179 0 -225 101 -225 254
v234c0 48 -7 53 -70 74c-9 3 -16 8 -16 17c0 12 20 18 35 18c39 0 43 -5 79 -5c35 0 80 5 114 5c15 0 35 -6 35 -18c0 -9 -6 -14 -15 -17c-43 -14 -67 -32 -67 -72v-200c0 -160 29 -240 151 -240c137 0 171 104 171 260v186c0 52 -11 51 -53 65c-9 3 -17 9 -17 18
c0 12 20 18 35 18s50 -5 65 -5s49 5 64 5s35 -6 35 -18c0 -9 -8 -14 -17 -17c-46 -15 -55 -25 -55 -64z" />
    <glyph glyph-name="Udieresis" unicode="&#xdc;" horiz-adv-x="617" 
d="M251 760c28 0 54 -26 54 -54s-26 -54 -54 -54s-54 26 -54 54s26 54 54 54zM438 760c28 0 54 -26 54 -54s-26 -54 -54 -54s-54 26 -54 54s26 54 54 54zM560 492v-242c0 -155 -102 -256 -249 -256c-179 0 -225 101 -225 254v234c0 48 -7 53 -70 74c-9 3 -16 8 -16 17
c0 12 20 18 35 18c39 0 43 -5 79 -5c35 0 80 5 114 5c15 0 35 -6 35 -18c0 -9 -6 -14 -15 -17c-43 -14 -67 -32 -67 -72v-200c0 -160 29 -240 151 -240c137 0 171 104 171 260v186c0 52 -11 51 -53 65c-9 3 -17 9 -17 18c0 12 20 18 35 18s50 -5 65 -5s49 5 64 5
s35 -6 35 -18c0 -9 -8 -14 -17 -17c-46 -15 -55 -25 -55 -64z" />
    <glyph glyph-name="Yacute" unicode="&#xdd;" horiz-adv-x="521" 
d="M248 650c-4 0 -6 3 -6 6c0 4 2 10 5 15c24 40 44 80 71 119c7 10 16 13 27 13c14 0 64 -9 64 -23c0 -7 -4 -11 -13 -19c-40 -34 -90 -72 -130 -102c-9 -7 -15 -9 -18 -9zM325 118c0 -38 13 -58 47 -73c22 -10 55 -15 55 -30c0 -10 -21 -16 -32 -17c-7 0 -73 6 -121 6
c-47 0 -106 -6 -113 -6c-11 1 -33 7 -33 17c0 15 33 20 55 30c34 15 47 35 47 73v114c0 24 -4.90039 31.0049 -16 50l-96 164c-40.8135 69.9668 -65 98 -102 110c-9 3 -16 8 -16 17c0 12 20 18 35 18c39 0 43 -5 79 -5c35 0 62 5 96 5c15 0 35 -6 35 -18
c0 -9 -6 -14 -15 -17c-29 -10 -44.5742 -34.707 -34 -54l91 -156c8.57715 -14.6777 11.7344 -16.7236 21 1l88 168c6.35645 12.4736 -11 34 -29 40c-9 3 -17 9 -17 18c0 12 20 18 35 18s57 -5 72 -5s49 5 64 5s35 -6 35 -18c0 -9 -8 -14 -17 -17
c-60 -20 -83.7891 -32.6484 -119 -100l-77 -147c-15.752 -30.1309 -18 -41 -18 -55v-136z" />
    <glyph glyph-name="Thorn" unicode="&#xde;" horiz-adv-x="535" 
d="M228 467c14 2 30 5 49 5c101 0 213 -44 213 -145c0 -82 -52 -131 -122 -169c-37 -20 -53 -20 -64 -20s-18 5 -18 17c0 10 15 12 43 36c39 33 61 69 61 121c0 67 -59 116 -126 116c-28 0 -50 -15 -50 -34v-265c0 -37 13 -69 47 -84c22 -10 55 -15 55 -30
c0 -10 -21 -16 -32 -17c-7 0 -73 6 -121 6c-43 0 -103 -6 -110 -6c-11 1 -33 7 -33 17c0 15 33 20 55 30c34 15 47 47 47 84v353c0 57 -25 58 -82 74c-9 3 -16 8 -16 17c0 12 20 18 35 18c39 0 75 -5 111 -5c35 0 76 5 110 5c15 0 35 -6 35 -18c0 -9 -6 -14 -15 -17
c-57 -16 -83 -31 -83 -74c0 -18 5 -16 11 -15z" />
    <glyph glyph-name="germandbls" unicode="&#xdf;" horiz-adv-x="552" 
d="M317 648c-98 0 -137 -135 -137 -223v-317c0 -36 6 -59 23 -64c23 -7 33 -16 33 -26s-8 -20 -34 -20c-22 0 -47 6 -63 6c-20 0 -67 -6 -89 -6c-26 0 -35 10 -35 20s17 18 44 26s38 39 38 64l1 254h-48c-10 1 -27 3 -27 13c0 14 33 43 61 53c11 4 13 10 13 21
c0 122 114 241 240 241c70 0 147 -31 147 -100c0 -49 -24.9375 -77.9375 -61 -114l-47 -47c-15.5566 -15.5566 -24 -31 -24 -53s10.1992 -36.168 26 -50l105 -92c25.582 -22.3955 48 -51 48 -91c0 -82 -68 -151 -151 -151c-28 0 -56 4 -66 8c-15 6 -20 7 -25 20
s-17 48 -17 63c0 17 1 32 11 32s30 -9 44 -40c13 -27 44 -38 77 -38c35 0 61 30 61 63c0 31 -23.6748 49.5811 -47 70l-64 56c-36.1162 31.6172 -74 67 -74 104c0 44 23.0742 82.8633 57 116l31 30c26.5703 25.749 37 59 37 92c0 48 -38 80 -88 80z" />
    <glyph glyph-name="agrave" unicode="&#xe0;" horiz-adv-x="409" 
d="M187 512c-31 33 -118 134 -118 148c0 16 30 23 55 23c10 0 21 -8 27 -18c19 -33 75 -147 75 -162c0 -9 0 -13 -9 -13c-8 0 -22 13 -30 22zM111 131c0 -49 23 -72 59 -72c28 0 62 14 62 38v94c0 11 -12 11 -23 7l-48 -19c-35 -11 -50 -31 -50 -48zM185 430
c85 0 131 -49 131 -102v-237c0 -16 19 -28 36 -28c14 0 29 13 36 13c6 0 9 -11 9 -22c0 -36 -50 -62 -90 -62c-33 0 -56 23 -69 41c-7 10 -8 9 -15 2c-23 -23 -63 -43 -102 -43c-49 0 -99 46 -99 96s24 81 54 94l131 55c18 8 23 13 23 23v49c0 35 -38 61 -73 61
c-21 0 -46 -8 -46 -29c0 -25 -1 -33 -10 -39c-6 -4 -46 -21 -56 -21c-6 0 -8 26 -8 34c0 23 17 53 38 68c35 24 73 47 110 47z" />
    <glyph glyph-name="aacute" unicode="&#xe1;" horiz-adv-x="409" 
d="M184 512c-8 -9 -22 -22 -30 -22c-9 0 -9 4 -9 13c0 15 57 129 76 162c6 10 17 18 27 18c25 0 54 -7 54 -23c0 -14 -87 -115 -118 -148zM111 131c0 -49 23 -72 59 -72c28 0 62 14 62 38v94c0 11 -12 11 -23 7l-48 -19c-35 -11 -50 -31 -50 -48zM185 430
c85 0 131 -49 131 -102v-237c0 -16 19 -28 36 -28c14 0 29 13 36 13c6 0 9 -11 9 -22c0 -36 -50 -62 -90 -62c-33 0 -56 23 -69 41c-7 10 -8 9 -15 2c-23 -23 -63 -43 -102 -43c-49 0 -99 46 -99 96s24 81 54 94l131 55c18 8 23 13 23 23v49c0 35 -38 61 -73 61
c-21 0 -46 -8 -46 -29c0 -25 -1 -33 -10 -39c-6 -4 -46 -21 -56 -21c-6 0 -8 26 -8 34c0 23 17 53 38 68c35 24 73 47 110 47z" />
    <glyph glyph-name="acircumflex" unicode="&#xe2;" horiz-adv-x="409" 
d="M176 586c-23 -32 -47 -59 -60 -74c-8 -9 -22 -22 -30 -22c-9 0 -9 4 -9 13c0 15 68 137 88 170c5 9 12 18 20 18s15 -9 20 -18c20 -33 89 -155 89 -170c0 -9 0 -13 -9 -13c-8 0 -22 13 -30 22c-13 15 -39 44 -61 74c-6 8 -12 8 -18 0zM111 131c0 -49 23 -72 59 -72
c28 0 62 14 62 38v94c0 11 -12 11 -23 7l-48 -19c-35 -11 -50 -31 -50 -48zM185 430c85 0 131 -49 131 -102v-237c0 -16 19 -28 36 -28c14 0 29 13 36 13c6 0 9 -11 9 -22c0 -36 -50 -62 -90 -62c-33 0 -56 23 -69 41c-7 10 -8 9 -15 2c-23 -23 -63 -43 -102 -43
c-49 0 -99 46 -99 96s24 81 54 94l131 55c18 8 23 13 23 23v49c0 35 -38 61 -73 61c-21 0 -46 -8 -46 -29c0 -25 -1 -33 -10 -39c-6 -4 -46 -21 -56 -21c-6 0 -8 26 -8 34c0 23 17 53 38 68c35 24 73 47 110 47z" />
    <glyph glyph-name="atilde" unicode="&#xe3;" horiz-adv-x="409" 
d="M59 489c-10 0 -14 10 -14 20s63 84 88 84s82 -2 107 -2c35 0 58 44 66 44c10 0 16 -7 16 -17s-69 -101 -94 -101s-87 1 -112 1s-49 -29 -57 -29zM111 131c0 -49 23 -72 59 -72c28 0 62 14 62 38v94c0 11 -12 11 -23 7l-48 -19c-35 -11 -50 -31 -50 -48zM185 430
c85 0 131 -49 131 -102v-237c0 -16 19 -28 36 -28c14 0 29 13 36 13c6 0 9 -11 9 -22c0 -36 -50 -62 -90 -62c-33 0 -56 23 -69 41c-7 10 -8 9 -15 2c-23 -23 -63 -43 -102 -43c-49 0 -99 46 -99 96s24 81 54 94l131 55c18 8 23 13 23 23v49c0 35 -38 61 -73 61
c-21 0 -46 -8 -46 -29c0 -25 -1 -33 -10 -39c-6 -4 -46 -21 -56 -21c-6 0 -8 26 -8 34c0 23 17 53 38 68c35 24 73 47 110 47z" />
    <glyph glyph-name="adieresis" unicode="&#xe4;" horiz-adv-x="409" 
d="M100 625c29 0 53 -24 53 -53s-24 -53 -53 -53s-53 24 -53 53s24 53 53 53zM271 625c29 0 53 -24 53 -53s-24 -53 -53 -53s-53 24 -53 53s24 53 53 53zM111 131c0 -49 23 -72 59 -72c28 0 62 14 62 38v94c0 11 -12 11 -23 7l-48 -19c-35 -11 -50 -31 -50 -48zM185 430
c85 0 131 -49 131 -102v-237c0 -16 19 -28 36 -28c14 0 29 13 36 13c6 0 9 -11 9 -22c0 -36 -50 -62 -90 -62c-33 0 -56 23 -69 41c-7 10 -8 9 -15 2c-23 -23 -63 -43 -102 -43c-49 0 -99 46 -99 96s24 81 54 94l131 55c18 8 23 13 23 23v49c0 35 -38 61 -73 61
c-21 0 -46 -8 -46 -29c0 -25 -1 -33 -10 -39c-6 -4 -46 -21 -56 -21c-6 0 -8 26 -8 34c0 23 17 53 38 68c35 24 73 47 110 47z" />
    <glyph glyph-name="aring" unicode="&#xe5;" horiz-adv-x="409" 
d="M145 613c0 -28 14 -58 42 -58c24 0 34 28 34 52c0 27 -17 53 -44 53c-22 0 -32 -25 -32 -47zM186 692c44 0 81 -34 81 -78c0 -52 -43 -89 -87 -89s-81 39 -81 83s43 84 87 84zM111 131c0 -49 23 -72 59 -72c28 0 62 14 62 38v94c0 11 -12 11 -23 7l-48 -19
c-35 -11 -50 -31 -50 -48zM185 430c85 0 131 -49 131 -102v-237c0 -16 19 -28 36 -28c14 0 29 13 36 13c6 0 9 -11 9 -22c0 -36 -50 -62 -90 -62c-33 0 -56 23 -69 41c-7 10 -8 9 -15 2c-23 -23 -63 -43 -102 -43c-49 0 -99 46 -99 96s24 81 54 94l131 55c18 8 23 13 23 23
v49c0 35 -38 61 -73 61c-21 0 -46 -8 -46 -29c0 -25 -1 -33 -10 -39c-6 -4 -46 -21 -56 -21c-6 0 -8 26 -8 34c0 23 17 53 38 68c35 24 73 47 110 47z" />
    <glyph glyph-name="ae" unicode="&#xe6;" horiz-adv-x="569" 
d="M549 326c0 -27 -22 -39 -47 -47l-163 -52c-18 -6 -23 -9 -23 -19c0 -67 18 -148 95 -148c50 0 94 23 104 23s15 -4 15 -14c0 -29 -76 -77 -156 -77c-47 0 -76 21 -105 55c-8 9 -14 10 -23 0c-34 -36 -86 -55 -125 -55c-49 0 -99 46 -99 96s27 79 57 91l128 47
c18 7 23 13 23 23v60c0 35 -38 61 -73 61c-21 0 -46 -8 -46 -29c0 -25 -1 -33 -10 -39c-6 -4 -46 -21 -56 -21c-6 0 -8 26 -8 34c0 23 17 53 38 68c35 24 74 47 111 47c52 0 89 -18 110 -45l12 9c34 23 64 36 109 36c67 0 132 -40 132 -104zM317 280c0 -7 2 -15 13 -11
l104 35c18 5 28 17 28 31c0 30 -29 49 -59 49c-36 0 -86 -51 -86 -104zM111 124c0 -38 21 -65 59 -65c29 0 62 14 62 38v83c0 11 -12 10 -23 7l-48 -15c-38 -12 -50 -24 -50 -48z" />
    <glyph glyph-name="ccedilla" unicode="&#xe7;" horiz-adv-x="392" 
d="M281 6c-40 -28 -58 -56 -58 -67c0 -20 81 -64 81 -113c0 -55 -76 -94 -131 -94c-24 0 -34 16 -34 42c0 15 12 32 23 32c6 0 37 -29 58 -29c17 0 18 9 18 24c0 37 -82 75 -82 101c0 30 22 49 85 104h40zM203 -8c-107 0 -180 97 -180 203c0 121 87 235 202 235
c70 0 101 -20 117 -33c19 -16 33 -33 33 -46c0 -24 -19 -39 -42 -39c-18 0 -43 14 -65 36c-17 17 -30 35 -51 35c-60 0 -102 -75 -102 -141c0 -88 39 -182 124 -182c46 0 95 23 105 23s15 -4 15 -14c0 -29 -58 -77 -156 -77z" />
    <glyph glyph-name="egrave" unicode="&#xe8;" horiz-adv-x="391" 
d="M226 512c-31 33 -118 134 -118 148c0 16 30 23 55 23c10 0 21 -8 27 -18c19 -33 75 -147 75 -162c0 -9 0 -13 -9 -13c-8 0 -22 13 -30 22zM124 315c0 -6.6416 1 -11 13 -11h132c10 0 15 17 15 31c0 29 -30 49 -59 49c-60 0 -101 -49 -101 -69zM371 326
c0 -27 -4 -68 -30 -68h-211c-14 0 -16 -2 -19 -10c-4 -11 -4 -13 -4 -30c0 -76 47 -158 126 -158c50 0 94 23 104 23s15 -4 15 -14c0 -29 -58 -77 -156 -77c-111 0 -173 108 -173 221c0 123 94 217 216 217c68 0 132 -53 132 -104z" />
    <glyph glyph-name="eacute" unicode="&#xe9;" horiz-adv-x="391" 
d="M223 512c-8 -9 -22 -22 -30 -22c-9 0 -9 4 -9 13c0 15 57 129 76 162c6 10 17 18 27 18c25 0 54 -7 54 -23c0 -14 -87 -115 -118 -148zM124 315c0 -6.6416 1 -11 13 -11h132c10 0 15 17 15 31c0 29 -30 49 -59 49c-60 0 -101 -49 -101 -69zM371 326c0 -27 -4 -68 -30 -68
h-211c-14 0 -16 -2 -19 -10c-4 -11 -4 -13 -4 -30c0 -76 47 -158 126 -158c50 0 94 23 104 23s15 -4 15 -14c0 -29 -58 -77 -156 -77c-111 0 -173 108 -173 221c0 123 94 217 216 217c68 0 132 -53 132 -104z" />
    <glyph glyph-name="ecircumflex" unicode="&#xea;" horiz-adv-x="391" 
d="M215 586c-23 -32 -47 -59 -60 -74c-8 -9 -22 -22 -30 -22c-9 0 -9 4 -9 13c0 15 68 137 88 170c5 9 12 18 20 18s15 -9 20 -18c20 -33 89 -155 89 -170c0 -9 0 -13 -9 -13c-8 0 -22 13 -30 22c-13 15 -39 44 -61 74c-6 8 -12 8 -18 0zM124 315c0 -6.6416 1 -11 13 -11
h132c10 0 15 17 15 31c0 29 -30 49 -59 49c-60 0 -101 -49 -101 -69zM371 326c0 -27 -4 -68 -30 -68h-211c-14 0 -16 -2 -19 -10c-4 -11 -4 -13 -4 -30c0 -76 47 -158 126 -158c50 0 94 23 104 23s15 -4 15 -14c0 -29 -58 -77 -156 -77c-111 0 -173 108 -173 221
c0 123 94 217 216 217c68 0 132 -53 132 -104z" />
    <glyph glyph-name="edieresis" unicode="&#xeb;" horiz-adv-x="391" 
d="M139 625c29 0 53 -24 53 -53s-24 -53 -53 -53s-53 24 -53 53s24 53 53 53zM310 625c29 0 53 -24 53 -53s-24 -53 -53 -53s-53 24 -53 53s24 53 53 53zM124 315c0 -6.6416 1 -11 13 -11h132c10 0 15 17 15 31c0 29 -30 49 -59 49c-60 0 -101 -49 -101 -69zM371 326
c0 -27 -4 -68 -30 -68h-211c-14 0 -16 -2 -19 -10c-4 -11 -4 -13 -4 -30c0 -76 47 -158 126 -158c50 0 94 23 104 23s15 -4 15 -14c0 -29 -58 -77 -156 -77c-111 0 -173 108 -173 221c0 123 94 217 216 217c68 0 132 -53 132 -104z" />
    <glyph glyph-name="igrave" unicode="&#xec;" horiz-adv-x="276" 
d="M135 512c-31 33 -118 134 -118 148c0 16 30 23 55 23c10 0 21 -8 27 -18c19 -33 75 -147 75 -162c0 -9 0 -13 -9 -13c-8 0 -22 13 -30 22zM97 302c0 17 -17 42 -41 51c-11 4 -21 10 -21 21s16 19 29 25c11 6 94 39 104 39c12 0 12 -9 12 -29v-301c0 -25 11 -56 38 -64
s43 -16 43 -26s-8 -20 -34 -20c-22 0 -72 6 -88 6c-20 0 -67 -6 -89 -6c-26 0 -35 10 -35 20s17 18 44 26s38 39 38 64v194z" />
    <glyph glyph-name="iacute" unicode="&#xed;" horiz-adv-x="276" 
d="M132 512c-8 -9 -22 -22 -30 -22c-9 0 -9 4 -9 13c0 15 57 129 76 162c6 10 17 18 27 18c25 0 54 -7 54 -23c0 -14 -87 -115 -118 -148zM97 302c0 17 -17 42 -41 51c-11 4 -21 10 -21 21s16 19 29 25c11 6 94 39 104 39c12 0 12 -9 12 -29v-301c0 -25 11 -56 38 -64
s43 -16 43 -26s-8 -20 -34 -20c-22 0 -72 6 -88 6c-20 0 -67 -6 -89 -6c-26 0 -35 10 -35 20s17 18 44 26s38 39 38 64v194z" />
    <glyph glyph-name="icircumflex" unicode="&#xee;" horiz-adv-x="276" 
d="M124 586c-23 -32 -47 -59 -60 -74c-8 -9 -22 -22 -30 -22c-9 0 -9 4 -9 13c0 15 68 137 88 170c5 9 12 18 20 18s15 -9 20 -18c20 -33 89 -155 89 -170c0 -9 0 -13 -9 -13c-8 0 -22 13 -30 22c-13 15 -39 44 -61 74c-6 8 -12 8 -18 0zM97 302c0 17 -17 42 -41 51
c-11 4 -21 10 -21 21s16 19 29 25c11 6 94 39 104 39c12 0 12 -9 12 -29v-301c0 -25 11 -56 38 -64s43 -16 43 -26s-8 -20 -34 -20c-22 0 -72 6 -88 6c-20 0 -67 -6 -89 -6c-26 0 -35 10 -35 20s17 18 44 26s38 39 38 64v194z" />
    <glyph glyph-name="idieresis" unicode="&#xef;" horiz-adv-x="276" 
d="M48 625c29 0 53 -24 53 -53s-24 -53 -53 -53s-53 24 -53 53s24 53 53 53zM219 625c29 0 53 -24 53 -53s-24 -53 -53 -53s-53 24 -53 53s24 53 53 53zM97 302c0 17 -17 42 -41 51c-11 4 -21 10 -21 21s16 19 29 25c11 6 94 39 104 39c12 0 12 -9 12 -29v-301
c0 -25 11 -56 38 -64s43 -16 43 -26s-8 -20 -34 -20c-22 0 -72 6 -88 6c-20 0 -67 -6 -89 -6c-26 0 -35 10 -35 20s17 18 44 26s38 39 38 64v194z" />
    <glyph glyph-name="eth" unicode="&#xf0;" horiz-adv-x="445" 
d="M393 681c12 0 12 -8 12 -27v-94h126c13 0 21 9 25 18c5 13 12 30 22 30c22 0 38 -25 38 -72c0 -14 -9 -24 -20 -24h-191v-428c0 -23 6 -28 16 -28c13 0 46 6 54 6c5 0 13 -9 13 -16c0 -13 -5 -21 -13 -25c-18 -9 -117 -33 -132 -33c-8 0 -13 9 -14 14c-3 10 -6 23 -9 38
c-2 10 -5 11 -12 1c-23 -33 -62 -49 -102 -49c-102 0 -183 88 -183 190c0 125 82 248 208 248c32 0 64 -12 78 -26c9 -8 11 -3 13 16v92h-193c-16 0 -24 6 -24 14c0 15 9 34 33 34h184v7c0 17 -17 37 -41 46c-11 4 -23 12 -23 23s15 19 29 21c40 7 96 24 106 24zM115 233
c0 -90 43 -177 129 -177c39 0 78 22 78 62v153c0 63 -50 116 -112 116c-70 0 -95 -84 -95 -154z" />
    <glyph glyph-name="ntilde" unicode="&#xf1;" horiz-adv-x="543" 
d="M156 489c-10 0 -14 10 -14 20s63 84 88 84s82 -2 107 -2c35 0 58 44 66 44c10 0 16 -7 16 -17s-69 -101 -94 -101s-87 1 -112 1s-49 -29 -57 -29zM449 110c0 -26 11 -58 38 -66s36 -16 36 -26s-1 -20 -27 -20c-22 0 -72 6 -88 6c-20 0 -52 -6 -74 -6c-26 0 -30 10 -30 20
s12 18 39 26c18 5 23 39 23 64v153c0 59 -35 117 -87 117c-58 0 -98 -34 -98 -110l-1 -160c0 -25 4 -58 23 -64c27 -8 38 -16 38 -26s-3 -20 -29 -20c-22 0 -57 6 -73 6c-20 0 -67 -6 -89 -6c-26 0 -30 10 -30 20s12 18 39 26s38 39 38 64v194c0 17 -17 42 -41 51
c-11 4 -21 10 -21 21s16 19 29 25c12 6 94 39 104 39c12 0 12 -9 12 -28v-25c0 -15 12 -1 20 6c33 27 72 39 124 39c70 0 125 -66 125 -139v-181z" />
    <glyph glyph-name="ograve" unicode="&#xf2;" horiz-adv-x="487" 
d="M244 512c-31 33 -118 134 -118 148c0 16 30 23 55 23c10 0 21 -8 27 -18c19 -33 75 -147 75 -162c0 -9 0 -13 -9 -13c-8 0 -22 13 -30 22zM122 237c0 -94 45 -198 138 -198c74 0 105 90 105 164c0 89 -46 185 -133 185c-72 0 -110 -79 -110 -151zM239 430
c116 0 225 -84 225 -200c0 -129 -102 -238 -230 -238c-122 0 -212 104 -212 223c0 120 109 215 217 215z" />
    <glyph glyph-name="oacute" unicode="&#xf3;" horiz-adv-x="487" 
d="M241 512c-8 -9 -22 -22 -30 -22c-9 0 -9 4 -9 13c0 15 57 129 76 162c6 10 17 18 27 18c25 0 54 -7 54 -23c0 -14 -87 -115 -118 -148zM122 237c0 -94 45 -198 138 -198c74 0 105 90 105 164c0 89 -46 185 -133 185c-72 0 -110 -79 -110 -151zM239 430
c116 0 225 -84 225 -200c0 -129 -102 -238 -230 -238c-122 0 -212 104 -212 223c0 120 109 215 217 215z" />
    <glyph glyph-name="ocircumflex" unicode="&#xf4;" horiz-adv-x="487" 
d="M233 586c-23 -32 -47 -59 -60 -74c-8 -9 -22 -22 -30 -22c-9 0 -9 4 -9 13c0 15 68 137 88 170c5 9 12 18 20 18s15 -9 20 -18c20 -33 89 -155 89 -170c0 -9 0 -13 -9 -13c-8 0 -22 13 -30 22c-13 15 -39 44 -61 74c-6 8 -12 8 -18 0zM122 237c0 -94 45 -198 138 -198
c74 0 105 90 105 164c0 89 -46 185 -133 185c-72 0 -110 -79 -110 -151zM239 430c116 0 225 -84 225 -200c0 -129 -102 -238 -230 -238c-122 0 -212 104 -212 223c0 120 109 215 217 215z" />
    <glyph glyph-name="otilde" unicode="&#xf5;" horiz-adv-x="487" 
d="M116 489c-10 0 -14 10 -14 20s63 84 88 84s82 -2 107 -2c35 0 58 44 66 44c10 0 16 -7 16 -17s-69 -101 -94 -101s-87 1 -112 1s-49 -29 -57 -29zM122 237c0 -94 45 -198 138 -198c74 0 105 90 105 164c0 89 -46 185 -133 185c-72 0 -110 -79 -110 -151zM239 430
c116 0 225 -84 225 -200c0 -129 -102 -238 -230 -238c-122 0 -212 104 -212 223c0 120 109 215 217 215z" />
    <glyph glyph-name="odieresis" unicode="&#xf6;" horiz-adv-x="487" 
d="M157 625c29 0 53 -24 53 -53s-24 -53 -53 -53s-53 24 -53 53s24 53 53 53zM328 625c29 0 53 -24 53 -53s-24 -53 -53 -53s-53 24 -53 53s24 53 53 53zM122 237c0 -94 45 -198 138 -198c74 0 105 90 105 164c0 89 -46 185 -133 185c-72 0 -110 -79 -110 -151zM239 430
c116 0 225 -84 225 -200c0 -129 -102 -238 -230 -238c-122 0 -212 104 -212 223c0 120 109 215 217 215z" />
    <glyph glyph-name="divide" unicode="&#xf7;" horiz-adv-x="469" 
d="M242 405c32 0 54 -30 54 -62c0 -35 -32 -59 -67 -59c-31 0 -56 25 -56 56c0 37 32 65 69 65zM242 116c32 0 54 -30 54 -62c0 -35 -32 -59 -67 -59c-31 0 -56 25 -56 56c0 37 32 65 69 65zM95 167c-21 0 -53 5 -53 30c0 18 21 36 53 36h285c25 0 42 -13 42 -28
s-13 -37 -43 -37z" />
    <glyph glyph-name="oslash" unicode="&#xf8;" horiz-adv-x="487" 
d="M161 104c25 -38 59 -65 99 -65c70 0 105 77 105 147c0 33 -6 68 -18 99zM140 144l186 182c-23 37 -55 62 -94 62c-72 0 -110 -79 -110 -151c0 -31 6 -64 18 -93zM383 381l28 28c12 12 26 21 41 21c10 0 12 -7 12 -20c0 -10 -12 -22 -25 -35l-25 -24
c31 -37 50 -85 50 -138c0 -128 -102 -221 -230 -221c-53 0 -98 20 -134 52l-32 -31c-18 -17 -23 -21 -33 -21s-13 15 -13 26c0 10 6 18 15 26l33 33c-31 42 -48 95 -48 151c0 116 112 202 217 202c55 0 105 -18 144 -49z" />
    <glyph glyph-name="ugrave" unicode="&#xf9;" horiz-adv-x="474" 
d="M219 512c-31 33 -118 134 -118 148c0 16 30 23 55 23c10 0 21 -8 27 -18c19 -33 75 -147 75 -162c0 -9 0 -13 -9 -13c-8 0 -22 13 -30 22zM311 324c0 28 -19 42 -47 46c-12 2 -23 8 -23 19s15 23 29 25c36 5 102 16 112 16c12 0 12 -8 12 -27v-334c0 -10 6 -13 16 -13
c13 0 34 6 42 6c5 0 13 -9 13 -16c0 -13 -10 -21 -18 -25c-18 -9 -100 -33 -115 -33c-8 0 -13 9 -14 14c-3 10 -3 24 -6 38c-4 18 -7 12 -20 1c-45 -36 -77 -45 -135 -45s-99 64 -99 122v198c0 17 -3 41 -27 50c-11 4 -21 12 -21 23s13 19 27 21c40 7 82 20 92 20
c12 0 12 -8 12 -27v-252c0 -48 24.6035 -93 70 -93c55 0 100 33 100 77v189z" />
    <glyph glyph-name="uacute" unicode="&#xfa;" horiz-adv-x="474" 
d="M216 512c-8 -9 -22 -22 -30 -22c-9 0 -9 4 -9 13c0 15 57 129 76 162c6 10 17 18 27 18c25 0 54 -7 54 -23c0 -14 -87 -115 -118 -148zM311 324c0 28 -19 42 -47 46c-12 2 -23 8 -23 19s15 23 29 25c36 5 102 16 112 16c12 0 12 -8 12 -27v-334c0 -10 6 -13 16 -13
c13 0 34 6 42 6c5 0 13 -9 13 -16c0 -13 -10 -21 -18 -25c-18 -9 -100 -33 -115 -33c-8 0 -13 9 -14 14c-3 10 -3 24 -6 38c-4 18 -7 12 -20 1c-45 -36 -77 -45 -135 -45s-99 64 -99 122v198c0 17 -3 41 -27 50c-11 4 -21 12 -21 23s13 19 27 21c40 7 82 20 92 20
c12 0 12 -8 12 -27v-252c0 -48 24.6035 -93 70 -93c55 0 100 33 100 77v189z" />
    <glyph glyph-name="ucircumflex" unicode="&#xfb;" horiz-adv-x="474" 
d="M208 586c-23 -32 -47 -59 -60 -74c-8 -9 -22 -22 -30 -22c-9 0 -9 4 -9 13c0 15 68 137 88 170c5 9 12 18 20 18s15 -9 20 -18c20 -33 89 -155 89 -170c0 -9 0 -13 -9 -13c-8 0 -22 13 -30 22c-13 15 -39 44 -61 74c-6 8 -12 8 -18 0zM311 324c0 28 -19 42 -47 46
c-12 2 -23 8 -23 19s15 23 29 25c36 5 102 16 112 16c12 0 12 -8 12 -27v-334c0 -10 6 -13 16 -13c13 0 34 6 42 6c5 0 13 -9 13 -16c0 -13 -10 -21 -18 -25c-18 -9 -100 -33 -115 -33c-8 0 -13 9 -14 14c-3 10 -3 24 -6 38c-4 18 -7 12 -20 1c-45 -36 -77 -45 -135 -45
s-99 64 -99 122v198c0 17 -3 41 -27 50c-11 4 -21 12 -21 23s13 19 27 21c40 7 82 20 92 20c12 0 12 -8 12 -27v-252c0 -48 24.6035 -93 70 -93c55 0 100 33 100 77v189z" />
    <glyph glyph-name="udieresis" unicode="&#xfc;" horiz-adv-x="474" 
d="M132 625c29 0 53 -24 53 -53s-24 -53 -53 -53s-53 24 -53 53s24 53 53 53zM303 625c29 0 53 -24 53 -53s-24 -53 -53 -53s-53 24 -53 53s24 53 53 53zM311 324c0 28 -19 42 -47 46c-12 2 -23 8 -23 19s15 23 29 25c36 5 102 16 112 16c12 0 12 -8 12 -27v-334
c0 -10 6 -13 16 -13c13 0 34 6 42 6c5 0 13 -9 13 -16c0 -13 -10 -21 -18 -25c-18 -9 -100 -33 -115 -33c-8 0 -13 9 -14 14c-3 10 -3 24 -6 38c-4 18 -7 12 -20 1c-45 -36 -77 -45 -135 -45s-99 64 -99 122v198c0 17 -3 41 -27 50c-11 4 -21 12 -21 23s13 19 27 21
c40 7 82 20 92 20c12 0 12 -8 12 -27v-252c0 -48 24.6035 -93 70 -93c55 0 100 33 100 77v189z" />
    <glyph glyph-name="yacute" unicode="&#xfd;" horiz-adv-x="419" 
d="M224 512c-8 -9 -22 -22 -30 -22c-9 0 -9 4 -9 13c0 15 57 129 76 162c6 10 17 18 27 18c25 0 54 -7 54 -23c0 -14 -87 -115 -118 -148zM187 35l-112 282c-10 26 -24 58 -39 63s-33 13 -33 23s8 20 24 20c15 0 49 -6 64 -6s57 6 72 6c16 0 25 -10 25 -20s-12 -18 -34 -25
c-5 -1 -9 -14 -5 -24l81 -204c7.39453 -18.583 11.3184 -17.957 17 -3l66 174c8 20 10 34 10 41c0 10 -11 17 -17 18c-15 3 -28 13 -28 23s9 20 25 20c15 0 40 -6 55 -6s33 6 48 6c16 0 24 -10 24 -20s-19 -18 -34 -23c-11 -4 -30.2158 -23.3467 -43 -57l-193 -509
c-9.23242 -24.3057 -43 -75 -89 -75c-32 0 -51 29 -51 57c0 30 30 56 60 56c38 0 60 20 71 43c23 49 41 93 41 115c0 9 -2 18 -5 25z" />
    <glyph glyph-name="thorn" unicode="&#xfe;" horiz-adv-x="445" 
d="M148 294v-187c0 -37 35 -62 72 -62c78 0 113 84 113 166c0 83 -23 167 -110 167c-45 0 -75 -40 -75 -84zM65 564c0 20 -15 40 -39 49c-11 4 -23 12 -23 23s15 19 29 21c40 7 94 24 104 24c12 0 12 -8 12 -30v-259c0 -5 6 -10 14 -2c16 16 68 40 113 40
c83 0 150 -89 150 -173c0 -136 -95 -263 -228 -263c-20 0 -35 12 -39 12c-9 0 -10 -5 -10 -14v-161c0 -35 14 -43 68 -58c27 -8 43 -16 43 -26s-8 -20 -34 -20c-34 0 -94 13 -187 13c-26 0 -35 10 -35 20s17 18 44 26c13 4 18 28 18 53v725z" />
    <glyph glyph-name="ydieresis" unicode="&#xff;" horiz-adv-x="419" 
d="M140 625c29 0 53 -24 53 -53s-24 -53 -53 -53s-53 24 -53 53s24 53 53 53zM311 625c29 0 53 -24 53 -53s-24 -53 -53 -53s-53 24 -53 53s24 53 53 53zM187 35l-112 282c-10 26 -24 58 -39 63s-33 13 -33 23s8 20 24 20c15 0 49 -6 64 -6s57 6 72 6c16 0 25 -10 25 -20
s-12 -18 -34 -25c-5 -1 -9 -14 -5 -24l81 -204c7.39453 -18.583 11.3184 -17.957 17 -3l66 174c8 20 10 34 10 41c0 10 -11 17 -17 18c-15 3 -28 13 -28 23s9 20 25 20c15 0 40 -6 55 -6s33 6 48 6c16 0 24 -10 24 -20s-19 -18 -34 -23c-11 -4 -30.2158 -23.3467 -43 -57
l-193 -509c-9.23242 -24.3057 -43 -75 -89 -75c-32 0 -51 29 -51 57c0 30 30 56 60 56c38 0 60 20 71 43c23 49 41 93 41 115c0 9 -2 18 -5 25z" />
    <glyph glyph-name="Amacron" unicode="&#x100;" horiz-adv-x="649" 
d="M211 742h263c6 0 13 -6 13 -12c0 -20 -15 -48 -31 -48h-255c-7 0 -14 6 -14 12c0 9 5 48 24 48zM238 272c-6 -16 -9 -21 9 -21h122c20 0 21 4 11 36l-61 187c-3 10 -7 7 -11 -3zM523 4c-66 0 -104 -6 -134 -6c-13 0 -32 6 -32 17c0 15 32 20 54 30c36 17 34 36 29 53
l-29 95c-3 9 -8 12 -16 12h-167c-5 0 -12 -1 -16 -11l-38 -109c-6 -18 -7 -34 22 -42c26 -7 37 -18 37 -28c0 -11 -10 -17 -35 -17c-19 0 -63 6 -82 6c-25 0 -48 -6 -63 -6c-19 0 -33 6 -33 17c0 15 33 20 55 30c33 15 32 20 47 61l153 423c17 43 17 56 28 57
c19 2 37 30 43 30c17 0 23 -33 37 -72l132 -373c29 -81 40 -108 89 -126c31 -11 40 -21 40 -31c0 -11 -10 -16 -29 -16c-23 0 -59 6 -92 6z" />
    <glyph glyph-name="amacron" unicode="&#x101;" horiz-adv-x="409" 
d="M91 596h203c6 0 13 -6 13 -12c0 -22 -10 -49 -31 -49h-195c-7 0 -14 6 -14 12c0 9 5 49 24 49zM111 131c0 -49 23 -72 59 -72c28 0 62 14 62 38v94c0 11 -12 11 -23 7l-48 -19c-35 -11 -50 -31 -50 -48zM185 430c85 0 131 -49 131 -102v-237c0 -16 19 -28 36 -28
c14 0 29 13 36 13c6 0 9 -11 9 -22c0 -36 -50 -62 -90 -62c-33 0 -56 23 -69 41c-7 10 -8 9 -15 2c-23 -23 -63 -43 -102 -43c-49 0 -99 46 -99 96s24 81 54 94l131 55c18 8 23 13 23 23v49c0 35 -38 61 -73 61c-21 0 -46 -8 -46 -29c0 -25 -1 -33 -10 -39
c-6 -4 -46 -21 -56 -21c-6 0 -8 26 -8 34c0 23 17 53 38 68c35 24 73 47 110 47z" />
    <glyph glyph-name="Abreve" unicode="&#x102;" horiz-adv-x="649" 
d="M230 764c27 -32 60 -41 103 -41s76 9 103 41c6 8 14 21 24 21s10 -11 10 -24c0 -40 -52 -104 -137 -104s-137 64 -137 104c0 13 4 24 10 24c10 0 18 -13 24 -21zM238 272c-6 -16 -9 -21 9 -21h122c20 0 21 4 11 36l-61 187c-3 10 -7 7 -11 -3zM523 4
c-66 0 -104 -6 -134 -6c-13 0 -32 6 -32 17c0 15 32 20 54 30c36 17 34 36 29 53l-29 95c-3 9 -8 12 -16 12h-167c-5 0 -12 -1 -16 -11l-38 -109c-6 -18 -7 -34 22 -42c26 -7 37 -18 37 -28c0 -11 -10 -17 -35 -17c-19 0 -63 6 -82 6c-25 0 -48 -6 -63 -6
c-19 0 -33 6 -33 17c0 15 33 20 55 30c33 15 32 20 47 61l153 423c17 43 17 56 28 57c19 2 37 30 43 30c17 0 23 -33 37 -72l132 -373c29 -81 40 -108 89 -126c31 -11 40 -21 40 -31c0 -11 -10 -16 -29 -16c-23 0 -59 6 -92 6z" />
    <glyph glyph-name="abreve" unicode="&#x103;" horiz-adv-x="409" 
d="M107 615c5 -25 29 -43 79 -43s70 18 75 43c2 10 5 21 15 21s15 -11 15 -24c0 -50 -47 -106 -117 -106s-97 56 -97 106c0 13 5 24 15 24s13 -11 15 -21zM111 131c0 -49 23 -72 59 -72c28 0 62 14 62 38v94c0 11 -12 11 -23 7l-48 -19c-35 -11 -50 -31 -50 -48zM185 430
c85 0 131 -49 131 -102v-237c0 -16 19 -28 36 -28c14 0 29 13 36 13c6 0 9 -11 9 -22c0 -36 -50 -62 -90 -62c-33 0 -56 23 -69 41c-7 10 -8 9 -15 2c-23 -23 -63 -43 -102 -43c-49 0 -99 46 -99 96s24 81 54 94l131 55c18 8 23 13 23 23v49c0 35 -38 61 -73 61
c-21 0 -46 -8 -46 -29c0 -25 -1 -33 -10 -39c-6 -4 -46 -21 -56 -21c-6 0 -8 26 -8 34c0 23 17 53 38 68c35 24 73 47 110 47z" />
    <glyph glyph-name="Aogonek" unicode="&#x104;" horiz-adv-x="649" 
d="M423 -274c-63 0 -107 50 -107 113c0 101 145 179 145 179h26s-86 -60 -86 -160c0 -35 24 -61 59 -61s72 35 81 40c5 3 12 2 12 -6c0 -43 -76 -105 -130 -105zM238 272c-6 -16 -9 -21 9 -21h122c20 0 21 4 11 36l-61 187c-3 10 -7 7 -11 -3zM523 4c-66 0 -104 -6 -134 -6
c-13 0 -32 6 -32 17c0 15 32 20 54 30c36 17 34 36 29 53l-29 95c-3 9 -8 12 -16 12h-167c-5 0 -12 -1 -16 -11l-38 -109c-6 -18 -7 -34 22 -42c26 -7 37 -18 37 -28c0 -11 -10 -17 -35 -17c-19 0 -63 6 -82 6c-25 0 -48 -6 -63 -6c-19 0 -33 6 -33 17c0 15 33 20 55 30
c33 15 32 20 47 61l153 423c17 43 17 56 28 57c19 2 37 30 43 30c17 0 23 -33 37 -72l132 -373c29 -81 40 -108 89 -126c31 -11 40 -21 40 -31c0 -11 -10 -16 -29 -16c-23 0 -59 6 -92 6z" />
    <glyph glyph-name="aogonek" unicode="&#x105;" horiz-adv-x="409" 
d="M272 -127c0 -31 12 -65 43 -65c27 0 50 11 66 33c4 6 9 13 14 13c9 0 12 -7 12 -18c0 -60 -64 -106 -125 -106c-43 0 -72 49 -72 100c0 82 49 140 111 178h40c-62 -48 -89 -76 -89 -135zM111 131c0 -49 23 -72 59 -72c28 0 62 14 62 38v94c0 11 -12 11 -23 7l-48 -19
c-35 -11 -50 -31 -50 -48zM185 430c85 0 131 -49 131 -102v-237c0 -16 19 -28 36 -28c14 0 29 13 36 13c6 0 9 -11 9 -22c0 -36 -50 -62 -90 -62c-33 0 -56 23 -69 41c-7 10 -8 9 -15 2c-23 -23 -63 -43 -102 -43c-49 0 -99 46 -99 96s24 81 54 94l131 55c18 8 23 13 23 23
v49c0 35 -38 61 -73 61c-21 0 -46 -8 -46 -29c0 -25 -1 -33 -10 -39c-6 -4 -46 -21 -56 -21c-6 0 -8 26 -8 34c0 23 17 53 38 68c35 24 73 47 110 47z" />
    <glyph glyph-name="Cacute" unicode="&#x106;" horiz-adv-x="677" 
d="M368 650c-4 0 -6 3 -6 6c0 4 2 10 5 15c24 40 44 80 71 119c7 10 16 13 27 13c14 0 64 -9 64 -23c0 -7 -4 -11 -13 -19c-40 -34 -90 -72 -130 -102c-9 -7 -15 -9 -18 -9zM408 608c76 0 166 -38 189 -40s30 -55 30 -110c0 -17 -7 -28 -18 -28c-15 0 -27 21 -40 63
c-14 44 -110 70 -181 70c-129 0 -230 -108 -230 -246c0 -153 113 -289 272 -289c101 0 124 70 177 145c4 6 10 8 18 8s16 -10 16 -28c0 -8 -31 -76 -40 -95c-16 -33 -21 -40 -46 -49c-40 -14 -110 -25 -166 -25c-169 0 -343 113 -343 291c0 197 165 333 362 333z" />
    <glyph glyph-name="cacute" unicode="&#x107;" horiz-adv-x="392" 
d="M225 512c-8 -9 -22 -22 -30 -22c-9 0 -9 4 -9 13c0 15 57 129 76 162c6 10 17 18 27 18c25 0 54 -7 54 -23c0 -14 -87 -115 -118 -148zM203 -8c-107 0 -180 97 -180 203c0 121 87 235 202 235c70 0 101 -20 117 -33c19 -16 33 -33 33 -46c0 -24 -19 -39 -42 -39
c-18 0 -43 14 -65 36c-17 17 -30 35 -51 35c-60 0 -102 -75 -102 -141c0 -88 39 -182 124 -182c46 0 95 23 105 23s15 -4 15 -14c0 -29 -58 -77 -156 -77z" />
    <glyph glyph-name="Ccircumflex" unicode="&#x108;" horiz-adv-x="677" 
d="M273 646c-9 0 -15 4 -15 10c0 4 2 8 7 12l98 83c19 17 26 22 41 22s22 -5 41 -22l98 -83c5 -4 6 -8 6 -12c0 -6 -5 -11 -14 -11c-13 0 -95 35 -121 50c-9 5 -11 5 -20 0c-26 -15 -108 -49 -121 -49zM408 608c76 0 166 -38 189 -40s30 -55 30 -110c0 -17 -7 -28 -18 -28
c-15 0 -27 21 -40 63c-14 44 -110 70 -181 70c-129 0 -230 -108 -230 -246c0 -153 113 -289 272 -289c101 0 124 70 177 145c4 6 10 8 18 8s16 -10 16 -28c0 -8 -31 -76 -40 -95c-16 -33 -21 -40 -46 -49c-40 -14 -110 -25 -166 -25c-169 0 -343 113 -343 291
c0 197 165 333 362 333z" />
    <glyph glyph-name="ccircumflex" unicode="&#x109;" horiz-adv-x="392" 
d="M217 586c-23 -32 -47 -59 -60 -74c-8 -9 -22 -22 -30 -22c-9 0 -9 4 -9 13c0 15 68 137 88 170c5 9 12 18 20 18s15 -9 20 -18c20 -33 89 -155 89 -170c0 -9 0 -13 -9 -13c-8 0 -22 13 -30 22c-13 15 -39 44 -61 74c-6 8 -12 8 -18 0zM203 -8c-107 0 -180 97 -180 203
c0 121 87 235 202 235c70 0 101 -20 117 -33c19 -16 33 -33 33 -46c0 -24 -19 -39 -42 -39c-18 0 -43 14 -65 36c-17 17 -30 35 -51 35c-60 0 -102 -75 -102 -141c0 -88 39 -182 124 -182c46 0 95 23 105 23s15 -4 15 -14c0 -29 -58 -77 -156 -77z" />
    <glyph glyph-name="Cdotaccent" unicode="&#x10a;" horiz-adv-x="677" 
d="M400 770c32 0 59 -27 59 -59s-27 -59 -59 -59s-59 27 -59 59s27 59 59 59zM408 608c76 0 166 -38 189 -40s30 -55 30 -110c0 -17 -7 -28 -18 -28c-15 0 -27 21 -40 63c-14 44 -110 70 -181 70c-129 0 -230 -108 -230 -246c0 -153 113 -289 272 -289c101 0 124 70 177 145
c4 6 10 8 18 8s16 -10 16 -28c0 -8 -31 -76 -40 -95c-16 -33 -21 -40 -46 -49c-40 -14 -110 -25 -166 -25c-169 0 -343 113 -343 291c0 197 165 333 362 333z" />
    <glyph glyph-name="cdotaccent" unicode="&#x10b;" horiz-adv-x="392" 
d="M226 645c30 0 55 -24 55 -54c0 -31 -24 -56 -55 -56s-55 25 -55 56c0 30 25 54 55 54zM203 -8c-107 0 -180 97 -180 203c0 121 87 235 202 235c70 0 101 -20 117 -33c19 -16 33 -33 33 -46c0 -24 -19 -39 -42 -39c-18 0 -43 14 -65 36c-17 17 -30 35 -51 35
c-60 0 -102 -75 -102 -141c0 -88 39 -182 124 -182c46 0 95 23 105 23s15 -4 15 -14c0 -29 -58 -77 -156 -77z" />
    <glyph glyph-name="Ccaron" unicode="&#x10c;" horiz-adv-x="677" 
d="M273 787c13 0 95 -34 121 -49c9 -5 11 -5 20 0c26 15 108 50 121 50c9 0 14 -5 14 -11c0 -4 -1 -8 -6 -12l-98 -78c-20 -16 -26 -22 -41 -22s-21 6 -41 22l-98 78c-5 4 -7 8 -7 12c0 6 6 10 15 10zM408 608c76 0 166 -38 189 -40s30 -55 30 -110c0 -17 -7 -28 -18 -28
c-15 0 -27 21 -40 63c-14 44 -110 70 -181 70c-129 0 -230 -108 -230 -246c0 -153 113 -289 272 -289c101 0 124 70 177 145c4 6 10 8 18 8s16 -10 16 -28c0 -8 -31 -76 -40 -95c-16 -33 -21 -40 -46 -49c-40 -14 -110 -25 -166 -25c-169 0 -343 113 -343 291
c0 197 165 333 362 333z" />
    <glyph glyph-name="ccaron" unicode="&#x10d;" horiz-adv-x="392" 
d="M234 590c23 32 47 59 60 74c8 9 22 22 30 22c9 0 9 -4 9 -13c0 -15 -68 -137 -88 -170c-5 -9 -12 -18 -20 -18s-15 9 -20 18c-20 33 -89 155 -89 170c0 9 0 13 9 13c8 0 22 -13 30 -22c13 -15 39 -44 61 -74c6 -8 12 -8 18 0zM203 -8c-107 0 -180 97 -180 203
c0 121 87 235 202 235c70 0 101 -20 117 -33c19 -16 33 -33 33 -46c0 -24 -19 -39 -42 -39c-18 0 -43 14 -65 36c-17 17 -30 35 -51 35c-60 0 -102 -75 -102 -141c0 -88 39 -182 124 -182c46 0 95 23 105 23s15 -4 15 -14c0 -29 -58 -77 -156 -77z" />
    <glyph glyph-name="Dcaron" unicode="&#x10e;" horiz-adv-x="716" 
d="M215 787c13 0 95 -34 121 -49c9 -5 11 -5 20 0c26 15 108 50 121 50c9 0 14 -5 14 -11c0 -4 -1 -8 -6 -12l-98 -78c-20 -16 -26 -22 -41 -22s-21 6 -41 22l-98 78c-5 4 -7 8 -7 12c0 6 6 10 15 10zM217 521v-398c0 -67 26 -85 160 -85c119 0 182 134 182 261
c0 146 -113 254 -255 254c-43 0 -87 -10 -87 -32zM337 598c168 0 334 -109 334 -279c0 -173 -97 -326 -312 -326c-95 0 -148 11 -194 11s-105 -6 -112 -6c-11 1 -33 6 -33 17c0 15 33 20 55 30c33 15 47 35 47 72v365c0 57 -25 57 -82 74c-9 3 -16 8 -16 17
c0 12 14 18 35 18c31 0 50 -1 80 -1c62 0 136 8 198 8z" />
    <glyph glyph-name="dcaron" unicode="&#x10f;" horiz-adv-x="492" 
d="M425 639c0 21 35 48 56 48c12 0 13 -14 13 -30c0 -37 -21 -101 -39 -138c-8 -17 -15 -25 -21 -25c-4 0 -7 10 -7 23c0 5 3 34 3 49c0 37 -5 57 -5 73zM115 233c0 -90 43 -177 129 -177c39 0 78 22 78 62v153c0 63 -50 116 -112 116c-70 0 -95 -84 -95 -154zM393 681
c12 0 12 -8 12 -27v-570c0 -23 6 -28 16 -28c13 0 46 6 54 6c5 0 13 -9 13 -16c0 -13 -5 -21 -13 -25c-18 -9 -117 -33 -132 -33c-8 0 -13 9 -14 14c-3 10 -6 23 -9 38c-2 10 -5 11 -12 1c-23 -33 -62 -49 -102 -49c-102 0 -183 88 -183 190c0 125 82 248 208 248
c32 0 64 -12 78 -26c9 -8 11 -3 13 16v147c0 17 -17 37 -41 46c-11 4 -23 12 -23 23s15 19 29 21c40 7 96 24 106 24z" />
    <glyph glyph-name="Dcroat" unicode="&#x110;" horiz-adv-x="716" 
d="M36 302c-14 0 -36 1 -36 12c0 18 21 36 53 36h306c25 0 42 -2 42 -10c0 -15 -13 -38 -43 -38h-322zM217 521v-398c0 -67 26 -85 160 -85c119 0 182 134 182 261c0 146 -113 254 -255 254c-43 0 -87 -10 -87 -32zM337 598c168 0 334 -109 334 -279
c0 -173 -97 -326 -312 -326c-95 0 -148 11 -194 11s-105 -6 -112 -6c-11 1 -33 6 -33 17c0 15 33 20 55 30c33 15 47 35 47 72v365c0 57 -25 57 -82 74c-9 3 -16 8 -16 17c0 12 14 18 35 18c31 0 50 -1 80 -1c62 0 136 8 198 8z" />
    <glyph glyph-name="dcroat" unicode="&#x111;" horiz-adv-x="445" 
d="M393 681c12 0 12 -8 12 -27v-94h126c13 0 21 9 25 18c5 13 12 30 22 30c22 0 38 -25 38 -72c0 -14 -9 -24 -20 -24h-191v-428c0 -23 6 -28 16 -28c13 0 46 6 54 6c5 0 13 -9 13 -16c0 -13 -5 -21 -13 -25c-18 -9 -117 -33 -132 -33c-8 0 -13 9 -14 14c-3 10 -6 23 -9 38
c-2 10 -5 11 -12 1c-23 -33 -62 -49 -102 -49c-102 0 -183 88 -183 190c0 125 82 248 208 248c32 0 64 -12 78 -26c9 -8 11 -3 13 16v92h-193c-16 0 -24 6 -24 14c0 15 9 34 33 34h184v7c0 17 -17 37 -41 46c-11 4 -23 12 -23 23s15 19 29 21c40 7 96 24 106 24zM115 233
c0 -90 43 -177 129 -177c39 0 78 22 78 62v153c0 63 -50 116 -112 116c-70 0 -95 -84 -95 -154z" />
    <glyph glyph-name="Emacron" unicode="&#x112;" horiz-adv-x="569" 
d="M181 742h263c6 0 13 -6 13 -12c0 -20 -15 -48 -31 -48h-255c-7 0 -14 6 -14 12c0 9 5 48 24 48zM217 356c0 -24 9 -31 23 -31h86c32 0 43 11 61 28c11 10 20 25 31 25c9 0 11 -8 11 -20c0 -8 -4 -43 -4 -58s1 -46 1 -57c0 -10 -3 -26 -13 -26c-13 0 -26 28 -32 38
c-7 11 -14 21 -35 21h-105c-19 0 -24 -5 -24 -24v-168c0 -26 9 -39 38 -39h140c77 0 90 32 119 93c5 11 18 19 27 19c10 0 14 -10 14 -25c0 -28 -30 -102 -38 -115c-8 -15 -10 -19 -27 -19c-37 0 -218 5 -324 5c-47 0 -106 -5 -113 -5c-11 1 -33 7 -33 17c0 15 33 20 55 30
c34 15 47 35 47 72v365c0 57 -25 58 -82 74c-9 3 -16 8 -16 17c0 12 14 18 35 18h287c42 0 101 5 119 5c16 0 24 -5 26 -14c4 -16 9 -71 9 -82c0 -12 -4 -26 -16 -26s-27 18 -36 38c-8 17 -33 33 -81 33h-119c-27 0 -31 -8 -31 -21v-168z" />
    <glyph glyph-name="emacron" unicode="&#x113;" horiz-adv-x="391" 
d="M130 596h203c6 0 13 -6 13 -12c0 -22 -10 -49 -31 -49h-195c-7 0 -14 6 -14 12c0 9 5 49 24 49zM124 315c0 -6.6416 1 -11 13 -11h132c10 0 15 17 15 31c0 29 -30 49 -59 49c-60 0 -101 -49 -101 -69zM371 326c0 -27 -4 -68 -30 -68h-211c-14 0 -16 -2 -19 -10
c-4 -11 -4 -13 -4 -30c0 -76 47 -158 126 -158c50 0 94 23 104 23s15 -4 15 -14c0 -29 -58 -77 -156 -77c-111 0 -173 108 -173 221c0 123 94 217 216 217c68 0 132 -53 132 -104z" />
    <glyph glyph-name="Ebreve" unicode="&#x114;" horiz-adv-x="569" 
d="M200 764c27 -32 60 -41 103 -41s76 9 103 41c6 8 14 21 24 21s10 -11 10 -24c0 -40 -52 -104 -137 -104s-137 64 -137 104c0 13 4 24 10 24c10 0 18 -13 24 -21zM217 356c0 -24 9 -31 23 -31h86c32 0 43 11 61 28c11 10 20 25 31 25c9 0 11 -8 11 -20c0 -8 -4 -43 -4 -58
s1 -46 1 -57c0 -10 -3 -26 -13 -26c-13 0 -26 28 -32 38c-7 11 -14 21 -35 21h-105c-19 0 -24 -5 -24 -24v-168c0 -26 9 -39 38 -39h140c77 0 90 32 119 93c5 11 18 19 27 19c10 0 14 -10 14 -25c0 -28 -30 -102 -38 -115c-8 -15 -10 -19 -27 -19c-37 0 -218 5 -324 5
c-47 0 -106 -5 -113 -5c-11 1 -33 7 -33 17c0 15 33 20 55 30c34 15 47 35 47 72v365c0 57 -25 58 -82 74c-9 3 -16 8 -16 17c0 12 14 18 35 18h287c42 0 101 5 119 5c16 0 24 -5 26 -14c4 -16 9 -71 9 -82c0 -12 -4 -26 -16 -26s-27 18 -36 38c-8 17 -33 33 -81 33h-119
c-27 0 -31 -8 -31 -21v-168z" />
    <glyph glyph-name="ebreve" unicode="&#x115;" horiz-adv-x="391" 
d="M146 615c5 -25 29 -43 79 -43s70 18 75 43c2 10 5 21 15 21s15 -11 15 -24c0 -50 -47 -106 -117 -106s-97 56 -97 106c0 13 5 24 15 24s13 -11 15 -21zM124 315c0 -6.6416 1 -11 13 -11h132c10 0 15 17 15 31c0 29 -30 49 -59 49c-60 0 -101 -49 -101 -69zM371 326
c0 -27 -4 -68 -30 -68h-211c-14 0 -16 -2 -19 -10c-4 -11 -4 -13 -4 -30c0 -76 47 -158 126 -158c50 0 94 23 104 23s15 -4 15 -14c0 -29 -58 -77 -156 -77c-111 0 -173 108 -173 221c0 123 94 217 216 217c68 0 132 -53 132 -104z" />
    <glyph glyph-name="Edotaccent" unicode="&#x116;" horiz-adv-x="569" 
d="M302 770c32 0 59 -27 59 -59s-27 -59 -59 -59s-59 27 -59 59s27 59 59 59zM217 356c0 -24 9 -31 23 -31h86c32 0 43 11 61 28c11 10 20 25 31 25c9 0 11 -8 11 -20c0 -8 -4 -43 -4 -58s1 -46 1 -57c0 -10 -3 -26 -13 -26c-13 0 -26 28 -32 38c-7 11 -14 21 -35 21h-105
c-19 0 -24 -5 -24 -24v-168c0 -26 9 -39 38 -39h140c77 0 90 32 119 93c5 11 18 19 27 19c10 0 14 -10 14 -25c0 -28 -30 -102 -38 -115c-8 -15 -10 -19 -27 -19c-37 0 -218 5 -324 5c-47 0 -106 -5 -113 -5c-11 1 -33 7 -33 17c0 15 33 20 55 30c34 15 47 35 47 72v365
c0 57 -25 58 -82 74c-9 3 -16 8 -16 17c0 12 14 18 35 18h287c42 0 101 5 119 5c16 0 24 -5 26 -14c4 -16 9 -71 9 -82c0 -12 -4 -26 -16 -26s-27 18 -36 38c-8 17 -33 33 -81 33h-119c-27 0 -31 -8 -31 -21v-168z" />
    <glyph glyph-name="edotaccent" unicode="&#x117;" horiz-adv-x="391" 
d="M224 645c30 0 55 -24 55 -54c0 -31 -24 -56 -55 -56s-55 25 -55 56c0 30 25 54 55 54zM124 315c0 -6.6416 1 -11 13 -11h132c10 0 15 17 15 31c0 29 -30 49 -59 49c-60 0 -101 -49 -101 -69zM371 326c0 -27 -4 -68 -30 -68h-211c-14 0 -16 -2 -19 -10
c-4 -11 -4 -13 -4 -30c0 -76 47 -158 126 -158c50 0 94 23 104 23s15 -4 15 -14c0 -29 -58 -77 -156 -77c-111 0 -173 108 -173 221c0 123 94 217 216 217c68 0 132 -53 132 -104z" />
    <glyph glyph-name="Eogonek" unicode="&#x118;" horiz-adv-x="569" 
d="M423 -274c-63 0 -107 50 -107 113c0 101 145 179 145 179h26s-86 -60 -86 -160c0 -35 24 -61 59 -61s72 35 81 40c5 3 12 2 12 -6c0 -43 -76 -105 -130 -105zM217 356c0 -24 9 -31 23 -31h86c32 0 43 11 61 28c11 10 20 25 31 25c9 0 11 -8 11 -20c0 -8 -4 -43 -4 -58
s1 -46 1 -57c0 -10 -3 -26 -13 -26c-13 0 -26 28 -32 38c-7 11 -14 21 -35 21h-105c-19 0 -24 -5 -24 -24v-168c0 -26 9 -39 38 -39h140c77 0 90 32 119 93c5 11 18 19 27 19c10 0 14 -10 14 -25c0 -28 -30 -102 -38 -115c-8 -15 -10 -19 -27 -19c-37 0 -218 5 -324 5
c-47 0 -106 -5 -113 -5c-11 1 -33 7 -33 17c0 15 33 20 55 30c34 15 47 35 47 72v365c0 57 -25 58 -82 74c-9 3 -16 8 -16 17c0 12 14 18 35 18h287c42 0 101 5 119 5c16 0 24 -5 26 -14c4 -16 9 -71 9 -82c0 -12 -4 -26 -16 -26s-27 18 -36 38c-8 17 -33 33 -81 33h-119
c-27 0 -31 -8 -31 -21v-168z" />
    <glyph glyph-name="eogonek" unicode="&#x119;" horiz-adv-x="391" 
d="M195 -127c0 -31 12 -65 43 -65c27 0 50 11 66 33c4 6 9 13 14 13c9 0 12 -7 12 -18c0 -60 -64 -106 -125 -106c-43 0 -72 49 -72 100c0 82 49 140 111 178h40c-62 -48 -89 -76 -89 -135zM124 315c0 -6.6416 1 -11 13 -11h132c10 0 15 17 15 31c0 29 -30 49 -59 49
c-60 0 -101 -49 -101 -69zM371 326c0 -27 -4 -68 -30 -68h-211c-14 0 -16 -2 -19 -10c-4 -11 -4 -13 -4 -30c0 -76 47 -158 126 -158c50 0 94 23 104 23s15 -4 15 -14c0 -29 -58 -77 -156 -77c-111 0 -173 108 -173 221c0 123 94 217 216 217c68 0 132 -53 132 -104z" />
    <glyph glyph-name="Ecaron" unicode="&#x11a;" horiz-adv-x="569" 
d="M175 787c13 0 95 -34 121 -49c9 -5 11 -5 20 0c26 15 108 50 121 50c9 0 14 -5 14 -11c0 -4 -1 -8 -6 -12l-98 -78c-20 -16 -26 -22 -41 -22s-21 6 -41 22l-98 78c-5 4 -7 8 -7 12c0 6 6 10 15 10zM217 356c0 -24 9 -31 23 -31h86c32 0 43 11 61 28c11 10 20 25 31 25
c9 0 11 -8 11 -20c0 -8 -4 -43 -4 -58s1 -46 1 -57c0 -10 -3 -26 -13 -26c-13 0 -26 28 -32 38c-7 11 -14 21 -35 21h-105c-19 0 -24 -5 -24 -24v-168c0 -26 9 -39 38 -39h140c77 0 90 32 119 93c5 11 18 19 27 19c10 0 14 -10 14 -25c0 -28 -30 -102 -38 -115
c-8 -15 -10 -19 -27 -19c-37 0 -218 5 -324 5c-47 0 -106 -5 -113 -5c-11 1 -33 7 -33 17c0 15 33 20 55 30c34 15 47 35 47 72v365c0 57 -25 58 -82 74c-9 3 -16 8 -16 17c0 12 14 18 35 18h287c42 0 101 5 119 5c16 0 24 -5 26 -14c4 -16 9 -71 9 -82
c0 -12 -4 -26 -16 -26s-27 18 -36 38c-8 17 -33 33 -81 33h-119c-27 0 -31 -8 -31 -21v-168z" />
    <glyph glyph-name="ecaron" unicode="&#x11b;" horiz-adv-x="391" 
d="M232 590c23 32 47 59 60 74c8 9 22 22 30 22c9 0 9 -4 9 -13c0 -15 -68 -137 -88 -170c-5 -9 -12 -18 -20 -18s-15 9 -20 18c-20 33 -89 155 -89 170c0 9 0 13 9 13c8 0 22 -13 30 -22c13 -15 39 -44 61 -74c6 -8 12 -8 18 0zM124 315c0 -6.6416 1 -11 13 -11h132
c10 0 15 17 15 31c0 29 -30 49 -59 49c-60 0 -101 -49 -101 -69zM371 326c0 -27 -4 -68 -30 -68h-211c-14 0 -16 -2 -19 -10c-4 -11 -4 -13 -4 -30c0 -76 47 -158 126 -158c50 0 94 23 104 23s15 -4 15 -14c0 -29 -58 -77 -156 -77c-111 0 -173 108 -173 221
c0 123 94 217 216 217c68 0 132 -53 132 -104z" />
    <glyph glyph-name="Gcircumflex" unicode="&#x11c;" horiz-adv-x="710" 
d="M284 646c-9 0 -15 4 -15 10c0 4 2 8 7 12l98 83c19 17 26 22 41 22s22 -5 41 -22l98 -83c5 -4 6 -8 6 -12c0 -6 -5 -11 -14 -11c-13 0 -95 35 -121 50c-9 5 -11 5 -20 0c-26 -15 -108 -49 -121 -49zM419 608c93 0 109 -16 176 -34c11 -3 14 -22 17 -33
c4 -15 12 -70 12 -98c0 -9 -7 -15 -16 -15c-8 0 -19 13 -33 40c-37 70 -112 95 -190 95c-133 0 -227 -124 -227 -260c0 -145 97 -283 241 -283c53 0 129 21 129 38v121c0 21 -32 33 -54 41c-30 11 -47 14 -47 29c0 11 11 16 21 16c26 0 101 -4 135 -4c33 0 62 4 87 4
c13 0 20 -8 20 -20c0 -6 -11 -18 -24 -23c-14 -6 -45 -18 -45 -41v-105c0 -23 27 -36 27 -45c0 -23 -189 -55 -292 -55c-159 0 -310 133 -310 292c0 200 171 340 373 340z" />
    <glyph glyph-name="gcircumflex" unicode="&#x11d;" horiz-adv-x="479" 
d="M199 586c-23 -32 -47 -59 -60 -74c-8 -9 -22 -22 -30 -22c-9 0 -9 4 -9 13c0 15 68 137 88 170c5 9 12 18 20 18s15 -9 20 -18c20 -33 89 -155 89 -170c0 -9 0 -13 -9 -13c-8 0 -22 13 -30 22c-13 15 -39 44 -61 74c-6 8 -12 8 -18 0zM81 -131c0 -62 66 -85 125 -85
c73 0 132 37 132 100c0 65 -52 83 -153 83c-26 0 -45 -9 -67 -29c-25 -23 -37 -47 -37 -69zM119 289c0 -58 24 -126 82 -126c56 0 80 64 80 123c0 53 -40 102 -95 102c-46 0 -67 -53 -67 -99zM201 430c53 0 75 -9 90 -17c16 -8 31 -17 41 -17l104 2c20 0 28 -21 28 -35
c0 -18 -10 -31 -36 -31c-13 0 -59 5 -68 5c-7 0 -11 -5 -9 -11c3 -8 8 -37 8 -44c0 -73 -78 -161 -168 -161c-11 0 -20 3 -25 3c-1 0 -8 -1 -13 -5c-15 -13 -34 -38 -34 -54c0 -14 27.9844 -24.4326 75 -26l120 -4c44 -2 101 -39 101 -94c0 -130 -124 -213 -254 -213
c-92 0 -163 34 -163 112c0 48 48 94 96 124c5 3 4 8 -6 13c-33 15 -57 28 -57 61c0 9 6 16 14 23c15 13 51 43 67 67c3 4 7 9 0 13c-45 26 -81 73 -81 132c0 90 80 157 170 157z" />
    <glyph glyph-name="Gbreve" unicode="&#x11e;" horiz-adv-x="710" 
d="M309 764c27 -32 60 -41 103 -41s76 9 103 41c6 8 14 21 24 21s10 -11 10 -24c0 -40 -52 -104 -137 -104s-137 64 -137 104c0 13 4 24 10 24c10 0 18 -13 24 -21zM419 608c93 0 109 -16 176 -34c11 -3 14 -22 17 -33c4 -15 12 -70 12 -98c0 -9 -7 -15 -16 -15
c-8 0 -19 13 -33 40c-37 70 -112 95 -190 95c-133 0 -227 -124 -227 -260c0 -145 97 -283 241 -283c53 0 129 21 129 38v121c0 21 -32 33 -54 41c-30 11 -47 14 -47 29c0 11 11 16 21 16c26 0 101 -4 135 -4c33 0 62 4 87 4c13 0 20 -8 20 -20c0 -6 -11 -18 -24 -23
c-14 -6 -45 -18 -45 -41v-105c0 -23 27 -36 27 -45c0 -23 -189 -55 -292 -55c-159 0 -310 133 -310 292c0 200 171 340 373 340z" />
    <glyph glyph-name="gbreve" unicode="&#x11f;" horiz-adv-x="479" 
d="M130 615c5 -25 29 -43 79 -43s70 18 75 43c2 10 5 21 15 21s15 -11 15 -24c0 -50 -47 -106 -117 -106s-97 56 -97 106c0 13 5 24 15 24s13 -11 15 -21zM81 -131c0 -62 66 -85 125 -85c73 0 132 37 132 100c0 65 -52 83 -153 83c-26 0 -45 -9 -67 -29
c-25 -23 -37 -47 -37 -69zM119 289c0 -58 24 -126 82 -126c56 0 80 64 80 123c0 53 -40 102 -95 102c-46 0 -67 -53 -67 -99zM201 430c53 0 75 -9 90 -17c16 -8 31 -17 41 -17l104 2c20 0 28 -21 28 -35c0 -18 -10 -31 -36 -31c-13 0 -59 5 -68 5c-7 0 -11 -5 -9 -11
c3 -8 8 -37 8 -44c0 -73 -78 -161 -168 -161c-11 0 -20 3 -25 3c-1 0 -8 -1 -13 -5c-15 -13 -34 -38 -34 -54c0 -14 27.9844 -24.4326 75 -26l120 -4c44 -2 101 -39 101 -94c0 -130 -124 -213 -254 -213c-92 0 -163 34 -163 112c0 48 48 94 96 124c5 3 4 8 -6 13
c-33 15 -57 28 -57 61c0 9 6 16 14 23c15 13 51 43 67 67c3 4 7 9 0 13c-45 26 -81 73 -81 132c0 90 80 157 170 157z" />
    <glyph glyph-name="Gdotaccent" unicode="&#x120;" horiz-adv-x="710" 
d="M411 770c32 0 59 -27 59 -59s-27 -59 -59 -59s-59 27 -59 59s27 59 59 59zM419 608c93 0 109 -16 176 -34c11 -3 14 -22 17 -33c4 -15 12 -70 12 -98c0 -9 -7 -15 -16 -15c-8 0 -19 13 -33 40c-37 70 -112 95 -190 95c-133 0 -227 -124 -227 -260
c0 -145 97 -283 241 -283c53 0 129 21 129 38v121c0 21 -32 33 -54 41c-30 11 -47 14 -47 29c0 11 11 16 21 16c26 0 101 -4 135 -4c33 0 62 4 87 4c13 0 20 -8 20 -20c0 -6 -11 -18 -24 -23c-14 -6 -45 -18 -45 -41v-105c0 -23 27 -36 27 -45c0 -23 -189 -55 -292 -55
c-159 0 -310 133 -310 292c0 200 171 340 373 340z" />
    <glyph glyph-name="gdotaccent" unicode="&#x121;" horiz-adv-x="479" 
d="M208 645c30 0 55 -24 55 -54c0 -31 -24 -56 -55 -56s-55 25 -55 56c0 30 25 54 55 54zM81 -131c0 -62 66 -85 125 -85c73 0 132 37 132 100c0 65 -52 83 -153 83c-26 0 -45 -9 -67 -29c-25 -23 -37 -47 -37 -69zM119 289c0 -58 24 -126 82 -126c56 0 80 64 80 123
c0 53 -40 102 -95 102c-46 0 -67 -53 -67 -99zM201 430c53 0 75 -9 90 -17c16 -8 31 -17 41 -17l104 2c20 0 28 -21 28 -35c0 -18 -10 -31 -36 -31c-13 0 -59 5 -68 5c-7 0 -11 -5 -9 -11c3 -8 8 -37 8 -44c0 -73 -78 -161 -168 -161c-11 0 -20 3 -25 3c-1 0 -8 -1 -13 -5
c-15 -13 -34 -38 -34 -54c0 -14 27.9844 -24.4326 75 -26l120 -4c44 -2 101 -39 101 -94c0 -130 -124 -213 -254 -213c-92 0 -163 34 -163 112c0 48 48 94 96 124c5 3 4 8 -6 13c-33 15 -57 28 -57 61c0 9 6 16 14 23c15 13 51 43 67 67c3 4 7 9 0 13c-45 26 -81 73 -81 132
c0 90 80 157 170 157z" />
    <glyph glyph-name="uni0122" unicode="&#x122;" horiz-adv-x="710" 
d="M366 -60c45 0 87 -34 87 -80c0 -62 -49 -120 -105 -120c-11 0 -16 3 -16 13c0 12 55 33 55 65c0 29 -12 44 -36 51c-18 6 -32 20 -32 40c0 22 24 31 47 31zM419 608c93 0 109 -16 176 -34c11 -3 14 -22 17 -33c4 -15 12 -70 12 -98c0 -9 -7 -15 -16 -15
c-8 0 -19 13 -33 40c-37 70 -112 95 -190 95c-133 0 -227 -124 -227 -260c0 -145 97 -283 241 -283c53 0 129 21 129 38v121c0 21 -32 33 -54 41c-30 11 -47 14 -47 29c0 11 11 16 21 16c26 0 101 -4 135 -4c33 0 62 4 87 4c13 0 20 -8 20 -20c0 -6 -11 -18 -24 -23
c-14 -6 -45 -18 -45 -41v-105c0 -23 27 -36 27 -45c0 -23 -189 -55 -292 -55c-159 0 -310 133 -310 292c0 200 171 340 373 340z" />
    <glyph glyph-name="uni0123" unicode="&#x123;" horiz-adv-x="479" 
d="M217 490c-45 0 -87 34 -87 80c0 62 58 120 114 120c11 0 16 -3 16 -13c0 -12 -64 -33 -64 -65c0 -29 12 -44 36 -51c18 -6 32 -20 32 -40c0 -22 -24 -31 -47 -31zM81 -131c0 -62 66 -85 125 -85c73 0 132 37 132 100c0 65 -52 83 -153 83c-26 0 -45 -9 -67 -29
c-25 -23 -37 -47 -37 -69zM119 289c0 -58 24 -126 82 -126c56 0 80 64 80 123c0 53 -40 102 -95 102c-46 0 -67 -53 -67 -99zM201 430c53 0 75 -9 90 -17c16 -8 31 -17 41 -17l104 2c20 0 28 -21 28 -35c0 -18 -10 -31 -36 -31c-13 0 -59 5 -68 5c-7 0 -11 -5 -9 -11
c3 -8 8 -37 8 -44c0 -73 -78 -161 -168 -161c-11 0 -20 3 -25 3c-1 0 -8 -1 -13 -5c-15 -13 -34 -38 -34 -54c0 -14 27.9844 -24.4326 75 -26l120 -4c44 -2 101 -39 101 -94c0 -130 -124 -213 -254 -213c-92 0 -163 34 -163 112c0 48 48 94 96 124c5 3 4 8 -6 13
c-33 15 -57 28 -57 61c0 9 6 16 14 23c15 13 51 43 67 67c3 4 7 9 0 13c-45 26 -81 73 -81 132c0 90 80 157 170 157z" />
    <glyph glyph-name="Hcircumflex" unicode="&#x124;" horiz-adv-x="725" 
d="M231 646c-9 0 -15 4 -15 10c0 4 2 8 7 12l98 83c19 17 26 22 41 22s22 -5 41 -22l98 -83c5 -4 6 -8 6 -12c0 -6 -5 -11 -14 -11c-13 0 -95 35 -121 50c-9 5 -11 5 -20 0c-26 -15 -108 -49 -121 -49zM217 266v-149c0 -37 3 -57 37 -72c22 -10 55 -15 55 -30
c0 -10 -21 -16 -32 -17c-7 0 -63 6 -111 6c-47 0 -106 -6 -113 -6c-11 1 -33 7 -33 17c0 15 33 20 55 30c34 15 47 35 47 72v365c0 57 -25 58 -82 74c-9 3 -16 8 -16 17c0 12 20 18 35 18c39 0 75 -5 111 -5c35 0 66 5 100 5c15 0 35 -6 35 -18c0 -9 -6 -14 -15 -17
c-57 -16 -73 -17 -73 -74v-148c0 -5 3 -11 13 -11h265c10 0 13 3 13 13v146c0 57 -15 58 -72 74c-9 3 -16 8 -16 17c0 12 20 18 35 18c39 0 65 -5 101 -5c35 0 76 5 110 5c15 0 35 -6 35 -18c0 -9 -6 -14 -15 -17c-57 -16 -83 -17 -83 -74v-365c0 -37 13 -57 47 -72
c22 -10 55 -15 55 -30c0 -10 -21 -16 -32 -17c-7 0 -73 6 -121 6c-47 0 -96 -6 -103 -6c-11 1 -33 7 -33 17c0 15 33 20 55 30c34 15 37 35 37 72v147c0 10 -4 11 -14 11h-262c-10 0 -15 1 -15 -9z" />
    <glyph glyph-name="hcircumflex" unicode="&#x125;" horiz-adv-x="543" 
d="M149 739c-8 4 -12 4 -20 0l-54 -21c-13 -5 -39 -17 -52 -17c-9 0 -15 4 -15 10c0 4 2 8 7 12l86 67c12 9 27 22 38 22s26 -13 38 -22l86 -66c5 -4 6 -8 6 -12c0 -6 -5 -11 -14 -11c-13 0 -40 12 -52 17zM449 110c1 -26 11 -58 38 -66s36 -16 36 -26s-1 -20 -27 -20
c-22 0 -72 6 -88 6c-20 0 -52 -6 -74 -6c-26 0 -30 10 -30 20s12 18 39 26c18 5 23 39 23 64v153c0 59 -35 117 -87 117c-58 0 -98 -34 -98 -110l-1 -160c0 -25 4 -58 23 -64c27 -8 38 -16 38 -26s-3 -20 -29 -20c-22 0 -57 6 -73 6c-20 0 -67 -6 -89 -6
c-26 0 -30 10 -30 20s12 18 39 26s38 39 38 64v459c0 17 -15 37 -39 46c-11 4 -23 12 -23 23s15 19 29 21c40 7 94 24 104 24c12 0 12 -8 12 -27v-259c0 -26 12 -11 20 -4c33 27 72 39 124 39c70 0 125 -66 125 -139v-181z" />
    <glyph glyph-name="Hbar" unicode="&#x126;" horiz-adv-x="725" 
d="M36 413c-14 0 -36 1 -36 12c0 18 21 36 53 36h630c25 0 42 -2 42 -10c0 -15 -13 -38 -43 -38h-646zM217 266v-149c0 -37 3 -57 37 -72c22 -10 55 -15 55 -30c0 -10 -21 -16 -32 -17c-7 0 -63 6 -111 6c-47 0 -106 -6 -113 -6c-11 1 -33 7 -33 17c0 15 33 20 55 30
c34 15 47 35 47 72v365c0 57 -25 58 -82 74c-9 3 -16 8 -16 17c0 12 20 18 35 18c39 0 75 -5 111 -5c35 0 66 5 100 5c15 0 35 -6 35 -18c0 -9 -6 -14 -15 -17c-57 -16 -73 -17 -73 -74v-148c0 -5 3 -11 13 -11h265c10 0 13 3 13 13v146c0 57 -15 58 -72 74
c-9 3 -16 8 -16 17c0 12 20 18 35 18c39 0 65 -5 101 -5c35 0 76 5 110 5c15 0 35 -6 35 -18c0 -9 -6 -14 -15 -17c-57 -16 -83 -17 -83 -74v-365c0 -37 13 -57 47 -72c22 -10 55 -15 55 -30c0 -10 -21 -16 -32 -17c-7 0 -73 6 -121 6c-47 0 -96 -6 -103 -6
c-11 1 -33 7 -33 17c0 15 33 20 55 30c34 15 37 35 37 72v147c0 10 -4 11 -14 11h-262c-10 0 -15 1 -15 -9z" />
    <glyph glyph-name="hbar" unicode="&#x127;" horiz-adv-x="543" 
d="M36 495c-14 0 -36 1 -36 12c0 18 21 36 53 36h253c25 0 42 -2 42 -10c0 -15 -13 -38 -43 -38h-269zM449 110c1 -26 11 -58 38 -66s36 -16 36 -26s-1 -20 -27 -20c-22 0 -72 6 -88 6c-20 0 -52 -6 -74 -6c-26 0 -30 10 -30 20s12 18 39 26c18 5 23 39 23 64v153
c0 59 -35 117 -87 117c-58 0 -98 -34 -98 -110l-1 -160c0 -25 4 -58 23 -64c27 -8 38 -16 38 -26s-3 -20 -29 -20c-22 0 -57 6 -73 6c-20 0 -67 -6 -89 -6c-26 0 -30 10 -30 20s12 18 39 26s38 39 38 64v459c0 17 -15 37 -39 46c-11 4 -23 12 -23 23s15 19 29 21
c40 7 94 24 104 24c12 0 12 -8 12 -27v-259c0 -26 12 -11 20 -4c33 27 72 39 124 39c70 0 125 -66 125 -139v-181z" />
    <glyph glyph-name="Itilde" unicode="&#x128;" horiz-adv-x="339" 
d="M230 674c-25 0 -99 5 -124 5c-20 0 -47 -25 -57 -25c-8 0 -16 7 -16 17c0 23 59 68 84 68s94 -4 119 -4c35 0 50 39 62 39c10 0 17 -7 17 -17c0 -20 -58 -83 -85 -83zM280 591c15 0 35 -6 35 -18c0 -9 -6 -14 -15 -17c-57 -16 -83 -17 -83 -74v-365c0 -37 13 -57 47 -72
c22 -10 55 -15 55 -30c0 -10 -21 -16 -32 -17c-7 0 -73 6 -121 6c-47 0 -106 -6 -113 -6c-11 1 -33 7 -33 17c0 15 33 20 55 30c34 15 47 35 47 72v365c0 57 -25 58 -82 74c-9 3 -16 8 -16 17c0 12 20 18 35 18c39 0 75 -5 111 -5c35 0 76 5 110 5z" />
    <glyph glyph-name="itilde" unicode="&#x129;" horiz-adv-x="276" 
d="M7 489c-10 0 -14 10 -14 20s63 84 88 84s82 -2 107 -2c35 0 58 44 66 44c10 0 16 -7 16 -17s-69 -101 -94 -101s-87 1 -112 1s-49 -29 -57 -29zM97 302c0 17 -17 42 -41 51c-11 4 -21 10 -21 21s16 19 29 25c11 6 94 39 104 39c12 0 12 -9 12 -29v-301
c0 -25 11 -56 38 -64s43 -16 43 -26s-8 -20 -34 -20c-22 0 -72 6 -88 6c-20 0 -67 -6 -89 -6c-26 0 -35 10 -35 20s17 18 44 26s38 39 38 64v194z" />
    <glyph glyph-name="Imacron" unicode="&#x12a;" horiz-adv-x="339" 
d="M45 742h263c6 0 13 -6 13 -12c0 -20 -15 -48 -31 -48h-255c-7 0 -14 6 -14 12c0 9 5 48 24 48zM280 591c15 0 35 -6 35 -18c0 -9 -6 -14 -15 -17c-57 -16 -83 -17 -83 -74v-365c0 -37 13 -57 47 -72c22 -10 55 -15 55 -30c0 -10 -21 -16 -32 -17c-7 0 -73 6 -121 6
c-47 0 -106 -6 -113 -6c-11 1 -33 7 -33 17c0 15 33 20 55 30c34 15 47 35 47 72v365c0 57 -25 58 -82 74c-9 3 -16 8 -16 17c0 12 20 18 35 18c39 0 75 -5 111 -5c35 0 76 5 110 5z" />
    <glyph glyph-name="imacron" unicode="&#x12b;" horiz-adv-x="276" 
d="M39 596h203c6 0 13 -6 13 -12c0 -22 -10 -49 -31 -49h-195c-7 0 -14 6 -14 12c0 9 5 49 24 49zM97 302c0 17 -17 42 -41 51c-11 4 -21 10 -21 21s16 19 29 25c11 6 94 39 104 39c12 0 12 -9 12 -29v-301c0 -25 11 -56 38 -64s43 -16 43 -26s-8 -20 -34 -20
c-22 0 -72 6 -88 6c-20 0 -67 -6 -89 -6c-26 0 -35 10 -35 20s17 18 44 26s38 39 38 64v194z" />
    <glyph glyph-name="Ibreve" unicode="&#x12c;" horiz-adv-x="339" 
d="M64 764c27 -32 60 -41 103 -41s76 9 103 41c6 8 14 21 24 21s10 -11 10 -24c0 -40 -52 -104 -137 -104s-137 64 -137 104c0 13 4 24 10 24c10 0 18 -13 24 -21zM280 591c15 0 35 -6 35 -18c0 -9 -6 -14 -15 -17c-57 -16 -83 -17 -83 -74v-365c0 -37 13 -57 47 -72
c22 -10 55 -15 55 -30c0 -10 -21 -16 -32 -17c-7 0 -73 6 -121 6c-47 0 -106 -6 -113 -6c-11 1 -33 7 -33 17c0 15 33 20 55 30c34 15 47 35 47 72v365c0 57 -25 58 -82 74c-9 3 -16 8 -16 17c0 12 20 18 35 18c39 0 75 -5 111 -5c35 0 76 5 110 5z" />
    <glyph glyph-name="ibreve" unicode="&#x12d;" horiz-adv-x="276" 
d="M55 615c5 -25 29 -43 79 -43s70 18 75 43c2 10 5 21 15 21s15 -11 15 -24c0 -50 -47 -106 -117 -106s-97 56 -97 106c0 13 5 24 15 24s13 -11 15 -21zM97 302c0 17 -17 42 -41 51c-11 4 -21 10 -21 21s16 19 29 25c11 6 94 39 104 39c12 0 12 -9 12 -29v-301
c0 -25 11 -56 38 -64s43 -16 43 -26s-8 -20 -34 -20c-22 0 -72 6 -88 6c-20 0 -67 -6 -89 -6c-26 0 -35 10 -35 20s17 18 44 26s38 39 38 64v194z" />
    <glyph glyph-name="Iogonek" unicode="&#x12e;" horiz-adv-x="339" 
d="M156 -274c-63 0 -107 50 -107 113c0 101 145 179 145 179h26s-86 -60 -86 -160c0 -35 24 -61 59 -61s72 35 81 40c5 3 12 2 12 -6c0 -43 -76 -105 -130 -105zM280 591c15 0 35 -6 35 -18c0 -9 -6 -14 -15 -17c-57 -16 -83 -17 -83 -74v-365c0 -37 13 -57 47 -72
c22 -10 55 -15 55 -30c0 -10 -21 -16 -32 -17c-7 0 -73 6 -121 6c-47 0 -106 -6 -113 -6c-11 1 -33 7 -33 17c0 15 33 20 55 30c34 15 47 35 47 72v365c0 57 -25 58 -82 74c-9 3 -16 8 -16 17c0 12 20 18 35 18c39 0 75 -5 111 -5c35 0 76 5 110 5z" />
    <glyph glyph-name="iogonek" unicode="&#x12f;" horiz-adv-x="276" 
d="M101 -127c0 -31 12 -65 43 -65c27 0 50 11 66 33c4 6 9 13 14 13c9 0 12 -7 12 -18c0 -60 -64 -106 -125 -106c-43 0 -72 49 -72 100c0 82 49 140 111 178h40c-62 -48 -89 -76 -89 -135zM133 645c30 0 55 -24 55 -54c0 -31 -24 -56 -55 -56s-55 25 -55 56
c0 30 25 54 55 54zM97 302c0 17 -17 42 -41 51c-11 4 -21 10 -21 21s16 19 29 25c11 6 94 39 104 39c12 0 12 -9 12 -29v-301c0 -25 11 -56 38 -64s43 -16 43 -26s-8 -20 -34 -20c-22 0 -72 6 -88 6c-20 0 -67 -6 -89 -6c-26 0 -35 10 -35 20s17 18 44 26s38 39 38 64v194z
" />
    <glyph glyph-name="Idotaccent" unicode="&#x130;" horiz-adv-x="339" 
d="M166 770c32 0 59 -27 59 -59s-27 -59 -59 -59s-59 27 -59 59s27 59 59 59zM280 591c15 0 35 -6 35 -18c0 -9 -6 -14 -15 -17c-57 -16 -83 -17 -83 -74v-365c0 -37 13 -57 47 -72c22 -10 55 -15 55 -30c0 -10 -21 -16 -32 -17c-7 0 -73 6 -121 6c-47 0 -106 -6 -113 -6
c-11 1 -33 7 -33 17c0 15 33 20 55 30c34 15 47 35 47 72v365c0 57 -25 58 -82 74c-9 3 -16 8 -16 17c0 12 20 18 35 18c39 0 75 -5 111 -5c35 0 76 5 110 5z" />
    <glyph glyph-name="dotlessi" unicode="&#x131;" horiz-adv-x="276" 
d="M97 302c0 17 -17 42 -41 51c-11 4 -21 10 -21 21s16 19 29 25c11 6 94 39 104 39c12 0 12 -9 12 -29v-301c0 -25 11 -56 38 -64s43 -16 43 -26s-8 -20 -34 -20c-22 0 -72 6 -88 6c-20 0 -67 -6 -89 -6c-26 0 -35 10 -35 20s17 18 44 26s38 39 38 64v194z" />
    <glyph glyph-name="IJ" unicode="&#x132;" horiz-adv-x="653" 
d="M556 481v-341c0 -210 -29 -242 -60 -276c-32 -35 -73 -57 -132 -57c-65 0 -94 29 -94 50c0 27 18 56 36 56c26 0 38 -8 50 -26c15 -23 30 -38 47 -38c47 0 58 60 58 157v475c0 58 -25 59 -82 75c-9 3 -16 8 -16 17c0 12 20 18 35 18c39 0 75 -5 111 -5c35 0 76 5 110 5
c15 0 35 -6 35 -18c0 -9 -6 -14 -15 -17c-57 -16 -83 -17 -83 -75zM280 591c15 0 35 -6 35 -18c0 -9 -6 -14 -15 -17c-57 -16 -83 -17 -83 -74v-365c0 -37 13 -57 47 -72c22 -10 55 -15 55 -30c0 -10 -21 -16 -32 -17c-7 0 -73 6 -121 6c-47 0 -106 -6 -113 -6
c-11 1 -33 7 -33 17c0 15 33 20 55 30c34 15 47 35 47 72v365c0 57 -25 58 -82 74c-9 3 -16 8 -16 17c0 12 20 18 35 18c39 0 75 -5 111 -5c35 0 76 5 110 5z" />
    <glyph glyph-name="ij" unicode="&#x133;" horiz-adv-x="507" 
d="M409 645c30 0 55 -24 55 -54c0 -31 -24 -56 -55 -56s-55 25 -55 56c0 30 25 54 55 54zM369 302c0 18 -17 42 -41 51c-11 4 -21 10 -21 21s16 19 29 25c11 6 94 39 104 39c12 0 12 -9 12 -28v-383c0 -122 -69 -214 -124 -269c-24 -24 -34 -25 -40 -25c-11 0 -17 9 -17 21
c0 5 3 15 12 21c15 10 36 35 43 47c21 34 43 92 43 169v311zM133 645c30 0 55 -24 55 -54c0 -31 -24 -56 -55 -56s-55 25 -55 56c0 30 25 54 55 54zM97 302c0 17 -17 42 -41 51c-11 4 -21 10 -21 21s16 19 29 25c11 6 94 39 104 39c12 0 12 -9 12 -29v-301
c0 -25 11 -56 38 -64s43 -16 43 -26s-8 -20 -34 -20c-22 0 -72 6 -88 6c-20 0 -67 -6 -89 -6c-26 0 -35 10 -35 20s17 18 44 26s38 39 38 64v194z" />
    <glyph glyph-name="Jcircumflex" unicode="&#x134;" horiz-adv-x="314" 
d="M40 646c-9 0 -15 4 -15 10c0 4 2 8 7 12l98 83c19 17 26 22 41 22s22 -5 41 -22l98 -83c5 -4 6 -8 6 -12c0 -6 -5 -11 -14 -11c-13 0 -95 35 -121 50c-9 5 -11 5 -20 0c-26 -15 -108 -49 -121 -49zM217 481v-341c0 -210 -29 -242 -60 -276c-32 -35 -73 -57 -132 -57
c-65 0 -94 29 -94 50c0 27 18 56 36 56c26 0 38 -8 50 -26c15 -23 30 -38 47 -38c47 0 58 60 58 157v475c0 58 -25 59 -82 75c-9 3 -16 8 -16 17c0 12 20 18 35 18c39 0 75 -5 111 -5c35 0 76 5 110 5c15 0 35 -6 35 -18c0 -9 -6 -14 -15 -17c-57 -16 -83 -17 -83 -75z" />
    <glyph glyph-name="jcircumflex" unicode="&#x135;" horiz-adv-x="231" 
d="M124 586c-23 -32 -47 -59 -60 -74c-8 -9 -22 -22 -30 -22c-9 0 -9 4 -9 13c0 15 68 137 88 170c5 9 12 18 20 18s15 -9 20 -18c20 -33 89 -155 89 -170c0 -9 0 -13 -9 -13c-8 0 -22 13 -30 22c-13 15 -39 44 -61 74c-6 8 -12 8 -18 0zM93 302c0 18 -17 42 -41 51
c-11 4 -21 10 -21 21s16 19 29 25c11 6 94 39 104 39c12 0 12 -9 12 -28v-383c0 -122 -69 -214 -124 -269c-24 -24 -34 -25 -40 -25c-11 0 -17 9 -17 21c0 5 3 15 12 21c15 10 36 35 43 47c21 34 43 92 43 169v311z" />
    <glyph glyph-name="uni0136" unicode="&#x136;" horiz-adv-x="628" 
d="M371 -60c45 0 87 -34 87 -80c0 -62 -49 -120 -105 -120c-11 0 -16 3 -16 13c0 12 55 33 55 65c0 29 -12 44 -36 51c-18 6 -32 20 -32 40c0 22 24 31 47 31zM393 555c-10 3 -17 9 -17 18c0 12 20 18 35 18s70 -5 85 -5s70 5 85 5s28 -6 28 -18
c0 -9 -10.1855 -18.8096 -23 -21c-57.1709 -9.77246 -103.598 -37.9658 -147 -85l-109.5 -118.5c-13.6357 -14.6328 -21.6904 -16.3115 -1.5 -38.5l190 -218c26.9521 -30.8965 62 -40 100 -40c14 0 25 -14 25 -18c0 -16 -24 -42 -66 -42
c-60.1172 0 -104.558 9.78613 -144 55l-156 179c-18.5166 21.0029 -32 32 -45 32c-11 0 -15 -5 -15 -16v-125c0 -37 13 -57 47 -72c22 -10 55 -15 55 -30c0 -10 -21 -16 -32 -17c-7 0 -73 6 -121 6c-47 0 -106 -6 -113 -6c-11 1 -33 7 -33 17c0 15 33 20 55 30
c34 15 47 35 47 72v365c0 57 -25 58 -82 74c-9 3 -16 8 -16 17c0 12 20 18 35 18c39 0 75 -5 111 -5c35 0 76 5 110 5c15 0 35 -6 35 -18c0 -9 -6 -14 -15 -17c-57 -16 -83 -17 -83 -74v-133c0 -13 6 -18 18 -18c7 0 21.4248 14.3311 47 43l124 139c8 10 12 34 -13 42z" />
    <glyph glyph-name="uni0137" unicode="&#x137;" horiz-adv-x="529" 
d="M261 -60c45 0 87 -34 87 -80c0 -62 -49 -120 -105 -120c-11 0 -16 3 -16 13c0 12 55 33 55 65c0 29 -12 44 -36 51c-18 6 -32 20 -32 40c0 22 24 31 47 31zM315 82l-63 66c-23 24 -41 44 -51 44c-15 0 -21 -8 -21 -19v-65c0 -25 11 -56 38 -64s33 -16 33 -26
s-8 -20 -34 -20c-22 0 -62 6 -78 6c-20 0 -67 -6 -89 -6c-26 0 -35 10 -35 20s17 18 44 26s38 39 38 64v459c0 17 -15 37 -39 46c-11 4 -23 12 -23 23s15 19 29 21c40 7 94 24 104 24c12 0 12 -7 12 -27v-414c0 -13 2 -18 22 -18c17 0 34.1465 5.22949 65 42l57 68
c11 13 16 23 16 30c0 10 -11 17 -17 18c-15 3 -24 7 -24 17s9 20 25 20h79c15 0 45 6 60 6c16 0 24 -10 24 -20s-19 -18 -34 -23c-11 -4 -49 -29 -74 -57l-67 -74c-7 -7 -17 -19 -17 -29c0 -15 39 -47 79 -87s92 -80 121 -89c27 -8 43 -16 43 -26s-8 -20 -34 -20
c-22 0 -72 6 -88 6c-20 0 -55 -6 -77 -6c-26 0 -35 10 -35 20s37 22 37 27s-11 21 -26 37z" />
    <glyph glyph-name="kgreenlandic" unicode="&#x138;" horiz-adv-x="529" 
d="M97 302c0 16 -17 42 -41 51c-11 4 -21 10 -21 21s16 19 29 25c11 6 94 39 104 39c12 0 12 -10 12 -29v-164c0 -13 2 -23 22 -23c17 0 52 24 65 42l57 68c11 13 16 23 16 30c0 10 -11 17 -17 18c-15 3 -24 7 -24 17s9 20 25 20h79c15 0 45 6 60 6c16 0 24 -10 24 -20
s-19 -18 -34 -23c-11 -4 -49 -29 -74 -57l-67 -74c-7 -7 -17 -19 -17 -29c0 -15 39 -47 79 -87s92 -80 121 -89c27 -8 43 -16 43 -26s-8 -20 -34 -20c-22 0 -72 6 -88 6c-20 0 -55 -6 -77 -6c-26 0 -35 10 -35 20s37 22 37 27s-11 21 -26 37l-63 66c-23 24 -41 44 -51 44
c-15 0 -21 -15 -21 -37v-47c0 -25 11 -56 38 -64s33 -16 33 -26s-8 -20 -34 -20c-22 0 -62 6 -78 6c-20 0 -67 -6 -89 -6c-26 0 -35 10 -35 20s17 18 44 26s38 39 38 64v194z" />
    <glyph glyph-name="Lacute" unicode="&#x139;" horiz-adv-x="591" 
d="M133 650c-4 0 -6 3 -6 6c0 4 2 10 5 15c24 40 44 80 71 119c7 10 16 13 27 13c14 0 64 -9 64 -23c0 -7 -4 -11 -13 -19c-40 -34 -90 -72 -130 -102c-9 -7 -15 -9 -18 -9zM217 85c0 -29 13 -40 44 -40h134c77 0 90 60 119 121c5 11 18 19 27 19c10 0 18 -19 18 -47
c0 -27 -25 -108 -33 -121c-8 -15 -11 -19 -28 -19c-37 0 -226 5 -332 5c-47 0 -106 -5 -113 -5c-11 1 -33 7 -33 17c0 15 33 20 55 30c34 15 47 35 47 72v365c0 57 -25 58 -82 74c-9 3 -16 8 -16 17c0 12 14 18 36 18c39 0 75 -5 111 -5c35 0 76 5 110 5c15 0 35 -6 35 -18
c0 -9 -6 -14 -15 -17c-57 -16 -84 -17 -84 -74v-397z" />
    <glyph glyph-name="lacute" unicode="&#x13a;" horiz-adv-x="276" 
d="M60 699c-8 -2 -18 -5 -27 -5c-7 0 -14 3 -14 8c0 3 1 6 4 10c18 19 121 83 155 97c7 3 14 6 21 6c24 0 40 -38 40 -50c0 -3 -1 -7 -4 -9c-22 -12 -131 -45 -175 -57zM97 567c0 17 -15 37 -39 46c-11 4 -23 12 -23 23s15 19 29 21c40 7 94 24 104 24c12 0 12 -8 12 -27
v-546c0 -25 11 -56 38 -64s43 -16 43 -26s-8 -20 -34 -20c-22 0 -72 6 -88 6c-20 0 -67 -6 -89 -6c-26 0 -35 10 -35 20s17 18 44 26s38 39 38 64v459z" />
    <glyph glyph-name="uni013B" unicode="&#x13b;" horiz-adv-x="591" 
d="M290 -60c45 0 87 -34 87 -80c0 -62 -49 -120 -105 -120c-11 0 -16 3 -16 13c0 12 55 33 55 65c0 29 -12 44 -36 51c-18 6 -32 20 -32 40c0 22 24 31 47 31zM217 85c0 -29 13 -40 44 -40h134c77 0 90 60 119 121c5 11 18 19 27 19c10 0 18 -19 18 -47
c0 -27 -25 -108 -33 -121c-8 -15 -11 -19 -28 -19c-37 0 -226 5 -332 5c-47 0 -106 -5 -113 -5c-11 1 -33 7 -33 17c0 15 33 20 55 30c34 15 47 35 47 72v365c0 57 -25 58 -82 74c-9 3 -16 8 -16 17c0 12 14 18 36 18c39 0 75 -5 111 -5c35 0 76 5 110 5c15 0 35 -6 35 -18
c0 -9 -6 -14 -15 -17c-57 -16 -84 -17 -84 -74v-397z" />
    <glyph glyph-name="uni013C" unicode="&#x13c;" horiz-adv-x="276" 
d="M123 -60c45 0 87 -34 87 -80c0 -62 -49 -120 -105 -120c-11 0 -16 3 -16 13c0 12 55 33 55 65c0 29 -12 44 -36 51c-18 6 -32 20 -32 40c0 22 24 31 47 31zM97 567c0 17 -15 37 -39 46c-11 4 -23 12 -23 23s15 19 29 21c40 7 94 24 104 24c12 0 12 -8 12 -27v-546
c0 -25 11 -56 38 -64s43 -16 43 -26s-8 -20 -34 -20c-22 0 -72 6 -88 6c-20 0 -67 -6 -89 -6c-26 0 -35 10 -35 20s17 18 44 26s38 39 38 64v459z" />
    <glyph glyph-name="Lcaron" unicode="&#x13d;" horiz-adv-x="591" 
d="M465 595c0 21 35 48 56 48c12 0 13 -14 13 -30c0 -37 -21 -101 -39 -138c-8 -17 -15 -25 -21 -25c-4 0 -7 10 -7 23c0 5 3 34 3 49c0 37 -5 57 -5 73zM217 85c0 -29 13 -40 44 -40h134c77 0 90 60 119 121c5 11 18 19 27 19c10 0 18 -19 18 -47c0 -27 -25 -108 -33 -121
c-8 -15 -11 -19 -28 -19c-37 0 -226 5 -332 5c-47 0 -106 -5 -113 -5c-11 1 -33 7 -33 17c0 15 33 20 55 30c34 15 47 35 47 72v365c0 57 -25 58 -82 74c-9 3 -16 8 -16 17c0 12 14 18 36 18c39 0 75 -5 111 -5c35 0 76 5 110 5c15 0 35 -6 35 -18c0 -9 -6 -14 -15 -17
c-57 -16 -84 -17 -84 -74v-397z" />
    <glyph glyph-name="lcaron" unicode="&#x13e;" horiz-adv-x="276" 
d="M217 639c0 21 35 48 56 48c12 0 13 -14 13 -30c0 -37 -21 -101 -39 -138c-8 -17 -15 -25 -21 -25c-4 0 -7 10 -7 23c0 5 3 34 3 49c0 37 -5 57 -5 73zM97 567c0 17 -15 37 -39 46c-11 4 -23 12 -23 23s15 19 29 21c40 7 94 24 104 24c12 0 12 -8 12 -27v-546
c0 -25 11 -56 38 -64s43 -16 43 -26s-8 -20 -34 -20c-22 0 -72 6 -88 6c-20 0 -67 -6 -89 -6c-26 0 -35 10 -35 20s17 18 44 26s38 39 38 64v459z" />
    <glyph glyph-name="Ldot" unicode="&#x13f;" horiz-adv-x="591" 
d="M347 360c34 0 62 -28 62 -62s-28 -62 -62 -62s-62 28 -62 62s28 62 62 62zM217 85c0 -29 13 -40 44 -40h134c77 0 90 60 119 121c5 11 18 19 27 19c10 0 18 -19 18 -47c0 -27 -25 -108 -33 -121c-8 -15 -11 -19 -28 -19c-37 0 -226 5 -332 5c-47 0 -106 -5 -113 -5
c-11 1 -33 7 -33 17c0 15 33 20 55 30c34 15 47 35 47 72v365c0 57 -25 58 -82 74c-9 3 -16 8 -16 17c0 12 14 18 36 18c39 0 75 -5 111 -5c35 0 76 5 110 5c15 0 35 -6 35 -18c0 -9 -6 -14 -15 -17c-57 -16 -84 -17 -84 -74v-397z" />
    <glyph glyph-name="ldot" unicode="&#x140;" horiz-adv-x="276" 
d="M271 434c34 0 62 -28 62 -62s-28 -62 -62 -62s-62 28 -62 62s28 62 62 62zM97 567c0 17 -15 37 -39 46c-11 4 -23 12 -23 23s15 19 29 21c40 7 94 24 104 24c12 0 12 -8 12 -27v-546c0 -25 11 -56 38 -64s43 -16 43 -26s-8 -20 -34 -20c-22 0 -72 6 -88 6
c-20 0 -67 -6 -89 -6c-26 0 -35 10 -35 20s17 18 44 26s38 39 38 64v459z" />
    <glyph glyph-name="Lslash" unicode="&#x141;" horiz-adv-x="591" 
d="M43 216c-13 -6 -36 -2 -36 9c0 18 24 36 53 49l62 29v179c0 57 -25 58 -82 74c-9 3 -16 8 -16 17c0 12 14 18 36 18c39 0 75 -5 111 -5c35 0 76 5 110 5c15 0 35 -6 35 -18c0 -9 -6 -14 -15 -17c-57 -16 -84 -17 -84 -74v-135l129 60c23 11 42 -2 42 -10
c0 -15 -16 -27 -43 -40l-128 -60v-158c0 -51 21 -94 69 -94h109c77 0 90 60 119 121c5 11 18 19 27 19c10 0 18 -19 18 -47c0 -27 -25 -108 -33 -121c-8 -15 -11 -19 -28 -19c-37 0 -226 5 -332 5c-47 0 -106 -5 -113 -5c-11 1 -33 7 -33 17c0 15 33 20 55 30
c34 15 47 47 47 84v124z" />
    <glyph glyph-name="lslash" unicode="&#x142;" horiz-adv-x="276" 
d="M43 296c-25 -14 -36 -7 -36 4c0 18 10 30 53 54l37 21v192c0 17 -15 37 -39 46c-11 4 -23 12 -23 23s15 19 29 21c40 7 94 24 104 24c12 0 12 -8 12 -27v-233l49 28c20 11 42 3 42 -5c0 -15 -19 -32 -43 -45l-48 -27v-264c0 -25 11 -56 38 -64s43 -16 43 -26
s-8 -20 -34 -20c-22 0 -72 6 -88 6c-20 0 -67 -6 -89 -6c-26 0 -35 10 -35 20s17 18 44 26s38 39 38 64v218z" />
    <glyph glyph-name="Nacute" unicode="&#x143;" horiz-adv-x="685" 
d="M310 650c-4 0 -6 3 -6 6c0 4 2 10 5 15c24 40 44 80 71 119c7 10 16 13 27 13c14 0 64 -9 64 -23c0 -7 -4 -11 -13 -19c-40 -34 -90 -72 -130 -102c-9 -7 -15 -9 -18 -9zM167 129c0 -38 13 -69 47 -84c22 -10 55 -15 55 -30c0 -10 -21 -16 -32 -17c-7 0 -51 6 -99 6
c-47 0 -85 -6 -92 -6c-11 1 -33 7 -33 17c0 15 33 20 55 30c34 15 47 46 47 84v261c0 48 -3 84 -14 97l-37 40c-21.7422 23.4795 -60 30 -60 48c0 8 7 11 21 11h105c22 0 43 -25 53 -36l333 -374c13.3047 -14.9326 28 -20 28 0v306c0 58 -25 58 -82 74c-9 3 -16 8 -16 17
c0 12 20 18 35 18c39 0 55 -5 91 -5c35 0 56 5 90 5c15 0 35 -6 35 -18c0 -9 -6 -14 -15 -17c-57 -16 -83 -16 -83 -74v-399c0 -47 3 -55 3 -82c0 -10 -10 -12 -20 -12c-11 0 -47 18 -85 60l-311 345c-10.0371 11.1475 -19 12 -19 -10v-255z" />
    <glyph glyph-name="nacute" unicode="&#x144;" horiz-adv-x="543" 
d="M281 512c-8 -9 -22 -22 -30 -22c-9 0 -9 4 -9 13c0 15 57 129 76 162c6 10 17 18 27 18c25 0 54 -7 54 -23c0 -14 -87 -115 -118 -148zM449 110c0 -26 11 -58 38 -66s36 -16 36 -26s-1 -20 -27 -20c-22 0 -72 6 -88 6c-20 0 -52 -6 -74 -6c-26 0 -30 10 -30 20
s12 18 39 26c18 5 23 39 23 64v153c0 59 -35 117 -87 117c-58 0 -98 -34 -98 -110l-1 -160c0 -25 4 -58 23 -64c27 -8 38 -16 38 -26s-3 -20 -29 -20c-22 0 -57 6 -73 6c-20 0 -67 -6 -89 -6c-26 0 -30 10 -30 20s12 18 39 26s38 39 38 64v194c0 17 -17 42 -41 51
c-11 4 -21 10 -21 21s16 19 29 25c12 6 94 39 104 39c12 0 12 -9 12 -28v-25c0 -15 12 -1 20 6c33 27 72 39 124 39c70 0 125 -66 125 -139v-181z" />
    <glyph glyph-name="uni0145" unicode="&#x145;" horiz-adv-x="685" 
d="M360 -60c45 0 87 -34 87 -80c0 -62 -49 -120 -105 -120c-11 0 -16 3 -16 13c0 12 55 33 55 65c0 29 -12 44 -36 51c-18 6 -32 20 -32 40c0 22 24 31 47 31zM167 129c0 -38 13 -69 47 -84c22 -10 55 -15 55 -30c0 -10 -21 -16 -32 -17c-7 0 -51 6 -99 6
c-47 0 -85 -6 -92 -6c-11 1 -33 7 -33 17c0 15 33 20 55 30c34 15 47 46 47 84v261c0 48 -3 84 -14 97l-37 40c-21.7422 23.4795 -60 30 -60 48c0 8 7 11 21 11h105c22 0 43 -25 53 -36l333 -374c13.3047 -14.9326 28 -20 28 0v306c0 58 -25 58 -82 74c-9 3 -16 8 -16 17
c0 12 20 18 35 18c39 0 55 -5 91 -5c35 0 56 5 90 5c15 0 35 -6 35 -18c0 -9 -6 -14 -15 -17c-57 -16 -83 -16 -83 -74v-399c0 -47 3 -55 3 -82c0 -10 -10 -12 -20 -12c-11 0 -47 18 -85 60l-311 345c-10.0371 11.1475 -19 12 -19 -10v-255z" />
    <glyph glyph-name="uni0146" unicode="&#x146;" horiz-adv-x="543" 
d="M254 -60c45 0 87 -34 87 -80c0 -62 -49 -120 -105 -120c-11 0 -16 3 -16 13c0 12 55 33 55 65c0 29 -12 44 -36 51c-18 6 -32 20 -32 40c0 22 24 31 47 31zM449 110c0 -26 11 -58 38 -66s36 -16 36 -26s-1 -20 -27 -20c-22 0 -72 6 -88 6c-20 0 -52 -6 -74 -6
c-26 0 -30 10 -30 20s12 18 39 26c18 5 23 39 23 64v153c0 59 -35 117 -87 117c-58 0 -98 -34 -98 -110l-1 -160c0 -25 4 -58 23 -64c27 -8 38 -16 38 -26s-3 -20 -29 -20c-22 0 -57 6 -73 6c-20 0 -67 -6 -89 -6c-26 0 -30 10 -30 20s12 18 39 26s38 39 38 64v194
c0 17 -17 42 -41 51c-11 4 -21 10 -21 21s16 19 29 25c12 6 94 39 104 39c12 0 12 -9 12 -28v-25c0 -15 12 -1 20 6c33 27 72 39 124 39c70 0 125 -66 125 -139v-181z" />
    <glyph glyph-name="Ncaron" unicode="&#x147;" horiz-adv-x="685" 
d="M215 787c13 0 95 -34 121 -49c9 -5 11 -5 20 0c26 15 108 50 121 50c9 0 14 -5 14 -11c0 -4 -1 -8 -6 -12l-98 -78c-20 -16 -26 -22 -41 -22s-21 6 -41 22l-98 78c-5 4 -7 8 -7 12c0 6 6 10 15 10zM167 129c0 -38 13 -69 47 -84c22 -10 55 -15 55 -30
c0 -10 -21 -16 -32 -17c-7 0 -51 6 -99 6c-47 0 -85 -6 -92 -6c-11 1 -33 7 -33 17c0 15 33 20 55 30c34 15 47 46 47 84v261c0 48 -3 84 -14 97l-37 40c-21.7422 23.4795 -60 30 -60 48c0 8 7 11 21 11h105c22 0 43 -25 53 -36l333 -374c13.3047 -14.9326 28 -20 28 0v306
c0 58 -25 58 -82 74c-9 3 -16 8 -16 17c0 12 20 18 35 18c39 0 55 -5 91 -5c35 0 56 5 90 5c15 0 35 -6 35 -18c0 -9 -6 -14 -15 -17c-57 -16 -83 -16 -83 -74v-399c0 -47 3 -55 3 -82c0 -10 -10 -12 -20 -12c-11 0 -47 18 -85 60l-311 345c-10.0371 11.1475 -19 12 -19 -10
v-255z" />
    <glyph glyph-name="ncaron" unicode="&#x148;" horiz-adv-x="543" 
d="M290 590c23 32 47 59 60 74c8 9 22 22 30 22c9 0 9 -4 9 -13c0 -15 -68 -137 -88 -170c-5 -9 -12 -18 -20 -18s-15 9 -20 18c-20 33 -89 155 -89 170c0 9 0 13 9 13c8 0 22 -13 30 -22c13 -15 39 -44 61 -74c6 -8 12 -8 18 0zM449 110c0 -26 11 -58 38 -66s36 -16 36 -26
s-1 -20 -27 -20c-22 0 -72 6 -88 6c-20 0 -52 -6 -74 -6c-26 0 -30 10 -30 20s12 18 39 26c18 5 23 39 23 64v153c0 59 -35 117 -87 117c-58 0 -98 -34 -98 -110l-1 -160c0 -25 4 -58 23 -64c27 -8 38 -16 38 -26s-3 -20 -29 -20c-22 0 -57 6 -73 6c-20 0 -67 -6 -89 -6
c-26 0 -30 10 -30 20s12 18 39 26s38 39 38 64v194c0 17 -17 42 -41 51c-11 4 -21 10 -21 21s16 19 29 25c12 6 94 39 104 39c12 0 12 -9 12 -28v-25c0 -15 12 -1 20 6c33 27 72 39 124 39c70 0 125 -66 125 -139v-181z" />
    <glyph glyph-name="napostrophe" unicode="&#x149;" horiz-adv-x="543" 
d="M17 657c0 21 35 48 56 48c12 0 13 -14 13 -30c0 -37 -21 -101 -39 -138c-8 -17 -15 -25 -21 -25c-4 0 -7 10 -7 23c0 5 3 34 3 49c0 37 -5 57 -5 73zM449 110c0 -26 11 -58 38 -66s36 -16 36 -26s-1 -20 -27 -20c-22 0 -72 6 -88 6c-20 0 -52 -6 -74 -6
c-26 0 -30 10 -30 20s12 18 39 26c18 5 23 39 23 64v153c0 59 -35 117 -87 117c-58 0 -98 -34 -98 -110l-1 -160c0 -25 4 -58 23 -64c27 -8 38 -16 38 -26s-3 -20 -29 -20c-22 0 -57 6 -73 6c-20 0 -67 -6 -89 -6c-26 0 -30 10 -30 20s12 18 39 26s38 39 38 64v194
c0 17 -17 42 -41 51c-11 4 -21 10 -21 21s16 19 29 25c12 6 94 39 104 39c12 0 12 -9 12 -28v-25c0 -15 12 -1 20 6c33 27 72 39 124 39c70 0 125 -66 125 -139v-181z" />
    <glyph glyph-name="Eng" unicode="&#x14a;" horiz-adv-x="685" 
d="M167 129c0 -38 13 -69 47 -84c22 -10 55 -15 55 -30c0 -10 -21 -16 -32 -17c-7 0 -51 6 -99 6c-47 0 -85 -6 -92 -6c-11 1 -33 7 -33 17c0 15 33 20 55 30c34 15 47 46 47 84v261c0 48 -3 84 -14 97l-37 40c-21.7422 23.4795 -60 30 -60 48c0 8 7 11 21 11h105
c22 0 43 -25 53 -36l333 -374c13.3047 -14.9326 28 -20 28 0v306c0 58 -25 58 -82 74c-9 3 -16 8 -16 17c0 12 20 18 35 18c39 0 55 -5 91 -5c35 0 56 5 90 5c15 0 35 -6 35 -18c0 -9 -6 -14 -15 -17c-57 -16 -83 -16 -83 -74v-399c0 -47 3 -55 3 -82c0 -10 -10 -12 -20 -12
c-11 0 -47 18 -85 60l-311 345c-10.0371 11.1475 -19 12 -19 -10v-255z" />
    <glyph glyph-name="eng" unicode="&#x14b;" horiz-adv-x="543" 
d="M449 110c0 -26 11 -58 38 -66s36 -16 36 -26s-1 -20 -27 -20c-22 0 -72 6 -88 6c-20 0 -52 -6 -74 -6c-26 0 -30 10 -30 20s12 18 39 26c18 5 23 39 23 64v153c0 59 -35 117 -87 117c-58 0 -98 -34 -98 -110l-1 -160c0 -25 4 -58 23 -64c27 -8 38 -16 38 -26
s-3 -20 -29 -20c-22 0 -57 6 -73 6c-20 0 -67 -6 -89 -6c-26 0 -30 10 -30 20s12 18 39 26s38 39 38 64v194c0 17 -17 42 -41 51c-11 4 -21 10 -21 21s16 19 29 25c12 6 94 39 104 39c12 0 12 -9 12 -28v-25c0 -15 12 -1 20 6c33 27 72 39 124 39c70 0 125 -66 125 -139
v-181z" />
    <glyph glyph-name="Omacron" unicode="&#x14c;" horiz-adv-x="713" 
d="M237 742h263c6 0 13 -6 13 -12c0 -20 -15 -48 -31 -48h-255c-7 0 -14 6 -14 12c0 9 5 48 24 48zM162 330c0 -139 79 -296 218 -296c119 0 171 127 171 246c0 130 -69 272 -199 272c-110 0 -190 -112 -190 -222zM390 598c136 0 273 -142 273 -288
c0 -171 -126 -322 -297 -322c-179 0 -316 125 -316 307c0 189 142 303 340 303z" />
    <glyph glyph-name="omacron" unicode="&#x14d;" horiz-adv-x="487" 
d="M148 596h203c6 0 13 -6 13 -12c0 -22 -10 -49 -31 -49h-195c-7 0 -14 6 -14 12c0 9 5 49 24 49zM122 237c0 -94 45 -198 138 -198c74 0 105 90 105 164c0 89 -46 185 -133 185c-72 0 -110 -79 -110 -151zM239 430c116 0 225 -84 225 -200c0 -129 -102 -238 -230 -238
c-122 0 -212 104 -212 223c0 120 109 215 217 215z" />
    <glyph glyph-name="Obreve" unicode="&#x14e;" horiz-adv-x="713" 
d="M256 764c27 -32 60 -41 103 -41s76 9 103 41c6 8 14 21 24 21s10 -11 10 -24c0 -40 -52 -104 -137 -104s-137 64 -137 104c0 13 4 24 10 24c10 0 18 -13 24 -21zM162 330c0 -139 79 -296 218 -296c119 0 171 127 171 246c0 130 -69 272 -199 272
c-110 0 -190 -112 -190 -222zM390 598c136 0 273 -142 273 -288c0 -171 -126 -322 -297 -322c-179 0 -316 125 -316 307c0 189 142 303 340 303z" />
    <glyph glyph-name="obreve" unicode="&#x14f;" horiz-adv-x="487" 
d="M164 615c5 -25 29 -43 79 -43s70 18 75 43c2 10 5 21 15 21s15 -11 15 -24c0 -50 -47 -106 -117 -106s-97 56 -97 106c0 13 5 24 15 24s13 -11 15 -21zM122 237c0 -94 45 -198 138 -198c74 0 105 90 105 164c0 89 -46 185 -133 185c-72 0 -110 -79 -110 -151zM239 430
c116 0 225 -84 225 -200c0 -129 -102 -238 -230 -238c-122 0 -212 104 -212 223c0 120 109 215 217 215z" />
    <glyph glyph-name="Ohungarumlaut" unicode="&#x150;" horiz-adv-x="713" 
d="M259 662c-4 0 -6 3 -6 6c0 4 2 10 5 15c24 40 43 80 70 119c7 10 16 13 27 13c14 0 65 -9 65 -23c0 -7 -4 -11 -13 -19c-40 -34 -90 -72 -130 -102c-9 -7 -15 -9 -18 -9zM391 662c-4 0 -6 3 -6 6c0 4 2 10 5 15c24 40 44 80 71 119c7 10 16 13 27 13c14 0 64 -9 64 -23
c0 -7 -4 -11 -13 -19c-40 -34 -90 -72 -130 -102c-9 -7 -15 -9 -18 -9zM162 330c0 -139 79 -296 218 -296c119 0 171 127 171 246c0 130 -69 272 -199 272c-110 0 -190 -112 -190 -222zM390 598c136 0 273 -142 273 -288c0 -171 -126 -322 -297 -322
c-179 0 -316 125 -316 307c0 189 142 303 340 303z" />
    <glyph glyph-name="ohungarumlaut" unicode="&#x151;" horiz-adv-x="487" 
d="M188 523c-8 -9 -22 -22 -30 -22c-9 0 -9 4 -9 13c0 15 58 129 77 162c6 10 17 18 27 18c25 0 53 -7 53 -23c0 -14 -87 -115 -118 -148zM312 523c-8 -9 -22 -22 -30 -22c-9 0 -9 4 -9 13c0 15 58 129 77 162c6 10 17 18 27 18c25 0 53 -7 53 -23c0 -14 -87 -115 -118 -148
zM122 237c0 -94 45 -198 138 -198c74 0 105 90 105 164c0 89 -46 185 -133 185c-72 0 -110 -79 -110 -151zM239 430c116 0 225 -84 225 -200c0 -129 -102 -238 -230 -238c-122 0 -212 104 -212 223c0 120 109 215 217 215z" />
    <glyph glyph-name="OE" unicode="&#x152;" horiz-adv-x="892" 
d="M352 552c-110 0 -190 -112 -190 -222c0 -139 79 -296 218 -296c75 0 106 58 106 95v353c0 53 -86 70 -134 70zM366 -12c-179 0 -316 125 -316 307c0 189 142 303 340 303c34 0 52 -7 86 -7h200c42 0 101 5 119 5c16 0 24 -5 26 -14c4 -16 9 -71 9 -82
c0 -12 -4 -26 -16 -26s-27 18 -36 38c-8 17 -33 33 -81 33h-85c-27 0 -31 -8 -31 -21v-168c0 -24 9 -31 23 -31h52c32 0 43 11 61 28c11 10 20 25 31 25c9 0 11 -8 11 -20c0 -8 -4 -43 -4 -58s1 -46 1 -57c0 -10 -3 -26 -13 -26c-13 0 -26 28 -32 38c-7 11 -14 21 -35 21
h-71c-19 0 -24 -5 -24 -24v-112c0 -52 21 -95 69 -95h75c77 0 90 32 119 93c5 11 18 19 27 19c10 0 14 -10 14 -25c0 -28 -30 -102 -38 -115c-8 -15 -10 -19 -27 -19c-37 0 -135 5 -241 5c-47 0 -104 -5 -111 -5c-11 1 -62 -10 -102 -10z" />
    <glyph glyph-name="oe" unicode="&#x153;" horiz-adv-x="738" 
d="M470 315c0 -7 1 -11 13 -11h115c19 0 28 17 28 31c0 29 -30 49 -59 49c-60 0 -97 -49 -97 -69zM239 430c65 0 124 -26 165 -68c3 -3 6 -6 9 -10c39 48 99 78 168 78c68 0 132 -53 132 -104c0 -27 -21 -68 -47 -68h-194c-14 0 -16 -2 -19 -10c-4 -11 -4 -13 -4 -30
c0 -76 47 -158 126 -158c50 0 94 23 104 23s15 -4 15 -14c0 -29 -58 -77 -156 -77c-57 0 -102 29 -131 73c-1 -1 -2 -3 -3 -4c-42 -43 -102 -69 -170 -69c-125 0 -212 111 -212 236c0 116 112 202 217 202zM122 237c0 -93 58 -198 138 -198c70 0 105 77 105 147
c0 94 -52 202 -133 202c-72 0 -110 -79 -110 -151z" />
    <glyph glyph-name="Racute" unicode="&#x154;" horiz-adv-x="651" 
d="M237 650c-4 0 -6 3 -6 6c0 4 2 10 5 15c24 40 44 80 71 119c7 10 16 13 27 13c14 0 64 -9 64 -23c0 -7 -4 -11 -13 -19c-40 -34 -90 -72 -130 -102c-9 -7 -15 -9 -18 -9zM419 246c49 -73 112 -153 187 -207c12 -9 35 -14 57 -16c11 -1 17 -9 17 -17
c0 -18 -35 -30 -70 -30c-49 0 -99 17 -127 47c-59 62 -106 121 -158 208c-12 20 -41 33 -83 33c-21 0 -28 -7 -28 -27v-120c0 -37 13 -57 47 -72c22 -10 55 -15 55 -30c0 -10 -21 -16 -32 -17c-7 0 -73 6 -121 6c-43 0 -103 -6 -110 -6c-11 1 -33 7 -33 17c0 15 33 20 55 30
c34 15 47 35 47 72v361c0 57 -25 58 -82 74c-9 3 -16 8 -16 17c0 12 14 17 35 18c88 7 129 10 218 10c101 0 213 -42 213 -143c0 -64 -32 -106 -79 -140c-13 -10 -17 -9 -17 -18s12 -31 25 -50zM255 300c30 0 65 10 74 20c39 33 61 67 61 119c0 67 -59 114 -126 114
c-28 0 -50 -15 -50 -34v-193c0 -18 12.9619 -26 41 -26z" />
    <glyph glyph-name="racute" unicode="&#x155;" horiz-adv-x="354" 
d="M188 512c-8 -9 -22 -22 -30 -22c-9 0 -9 4 -9 13c0 15 57 129 76 162c6 10 17 18 27 18c25 0 54 -7 54 -23c0 -14 -87 -115 -118 -148zM139 4c-19 0 -67 -6 -89 -6c-26 0 -30 10 -30 20s12 18 39 26s38 39 38 64v194c0 17 -17 42 -41 51c-11 4 -21 10 -21 21s16 19 29 25
c11 6 94 39 104 39c12 0 12 -9 12 -28v-25c0 -15 15 0 20 6c16 17 58 39 88 39c41 0 57 -19 57 -42c0 -15 -14 -41 -30 -57c-3 -3 -11 -9 -16 -9c-15 0 -45 28 -65 28c-23 0 -52 -21 -52 -47l-2 -195c0 -25 22 -56 49 -64s41 -16 41 -26s-8 -20 -34 -20c-22 0 -81 6 -97 6z
" />
    <glyph glyph-name="uni0156" unicode="&#x156;" horiz-adv-x="651" 
d="M354 -60c45 0 87 -34 87 -80c0 -62 -49 -120 -105 -120c-11 0 -16 3 -16 13c0 12 55 33 55 65c0 29 -12 44 -36 51c-18 6 -32 20 -32 40c0 22 24 31 47 31zM419 246c49 -73 112 -153 187 -207c12 -9 35 -14 57 -16c11 -1 17 -9 17 -17c0 -18 -35 -30 -70 -30
c-49 0 -99 17 -127 47c-59 62 -106 121 -158 208c-12 20 -41 33 -83 33c-21 0 -28 -7 -28 -27v-120c0 -37 13 -57 47 -72c22 -10 55 -15 55 -30c0 -10 -21 -16 -32 -17c-7 0 -73 6 -121 6c-43 0 -103 -6 -110 -6c-11 1 -33 7 -33 17c0 15 33 20 55 30c34 15 47 35 47 72v361
c0 57 -25 58 -82 74c-9 3 -16 8 -16 17c0 12 14 17 35 18c88 7 129 10 218 10c101 0 213 -42 213 -143c0 -64 -32 -106 -79 -140c-13 -10 -17 -9 -17 -18s12 -31 25 -50zM255 300c30 0 65 10 74 20c39 33 61 67 61 119c0 67 -59 114 -126 114c-28 0 -50 -15 -50 -34v-193
c0 -18 12.9619 -26 41 -26z" />
    <glyph glyph-name="uni0157" unicode="&#x157;" horiz-adv-x="354" 
d="M124 -60c45 0 87 -34 87 -80c0 -62 -49 -120 -105 -120c-11 0 -16 3 -16 13c0 12 55 33 55 65c0 29 -12 44 -36 51c-18 6 -32 20 -32 40c0 22 24 31 47 31zM139 4c-19 0 -67 -6 -89 -6c-26 0 -30 10 -30 20s12 18 39 26s38 39 38 64v194c0 17 -17 42 -41 51
c-11 4 -21 10 -21 21s16 19 29 25c11 6 94 39 104 39c12 0 12 -9 12 -28v-25c0 -15 15 0 20 6c16 17 58 39 88 39c41 0 57 -19 57 -42c0 -15 -14 -41 -30 -57c-3 -3 -11 -9 -16 -9c-15 0 -45 28 -65 28c-23 0 -52 -21 -52 -47l-2 -195c0 -25 22 -56 49 -64s41 -16 41 -26
s-8 -20 -34 -20c-22 0 -81 6 -97 6z" />
    <glyph glyph-name="Rcaron" unicode="&#x158;" horiz-adv-x="651" 
d="M142 787c13 0 95 -34 121 -49c9 -5 11 -5 20 0c26 15 108 50 121 50c9 0 14 -5 14 -11c0 -4 -1 -8 -6 -12l-98 -78c-20 -16 -26 -22 -41 -22s-21 6 -41 22l-98 78c-5 4 -7 8 -7 12c0 6 6 10 15 10zM419 246c49 -73 112 -153 187 -207c12 -9 35 -14 57 -16
c11 -1 17 -9 17 -17c0 -18 -35 -30 -70 -30c-49 0 -99 17 -127 47c-59 62 -106 121 -158 208c-12 20 -41 33 -83 33c-21 0 -28 -7 -28 -27v-120c0 -37 13 -57 47 -72c22 -10 55 -15 55 -30c0 -10 -21 -16 -32 -17c-7 0 -73 6 -121 6c-43 0 -103 -6 -110 -6
c-11 1 -33 7 -33 17c0 15 33 20 55 30c34 15 47 35 47 72v361c0 57 -25 58 -82 74c-9 3 -16 8 -16 17c0 12 14 17 35 18c88 7 129 10 218 10c101 0 213 -42 213 -143c0 -64 -32 -106 -79 -140c-13 -10 -17 -9 -17 -18s12 -31 25 -50zM255 300c30 0 65 10 74 20
c39 33 61 67 61 119c0 67 -59 114 -126 114c-28 0 -50 -15 -50 -34v-193c0 -18 12.9619 -26 41 -26z" />
    <glyph glyph-name="rcaron" unicode="&#x159;" horiz-adv-x="354" 
d="M197 590c23 32 47 59 60 74c8 9 22 22 30 22c9 0 9 -4 9 -13c0 -15 -68 -137 -88 -170c-5 -9 -12 -18 -20 -18s-15 9 -20 18c-20 33 -89 155 -89 170c0 9 0 13 9 13c8 0 22 -13 30 -22c13 -15 39 -44 61 -74c6 -8 12 -8 18 0zM139 4c-19 0 -67 -6 -89 -6
c-26 0 -30 10 -30 20s12 18 39 26s38 39 38 64v194c0 17 -17 42 -41 51c-11 4 -21 10 -21 21s16 19 29 25c11 6 94 39 104 39c12 0 12 -9 12 -28v-25c0 -15 15 0 20 6c16 17 58 39 88 39c41 0 57 -19 57 -42c0 -15 -14 -41 -30 -57c-3 -3 -11 -9 -16 -9c-15 0 -45 28 -65 28
c-23 0 -52 -21 -52 -47l-2 -195c0 -25 22 -56 49 -64s41 -16 41 -26s-8 -20 -34 -20c-22 0 -81 6 -97 6z" />
    <glyph glyph-name="Sacute" unicode="&#x15a;" horiz-adv-x="409" 
d="M196 650c-4 0 -6 3 -6 6c0 4 2 10 5 15c24 40 44 80 71 119c7 10 16 13 27 13c14 0 64 -9 64 -23c0 -7 -4 -11 -13 -19c-40 -34 -90 -72 -130 -102c-9 -7 -15 -9 -18 -9zM232 601c32 0 78.9268 -14.2637 101 -26c18.542 -9.85938 27.916 -17.1826 30 -29
c2.77832 -15.7568 4 -38 4 -57c0 -13 -5 -27 -20 -27c-12 0 -25 10 -40 46c-10 24 -50 36 -79 36c-43 0 -82 -35 -82 -79c0 -33 21 -59 51 -84l141 -119c31 -26 48 -60 48 -102c0 -98 -101 -171 -201 -171c-35 0 -81 11 -105 22c-37 17 -46 22 -46 36
s3.84375 56.1973 6.10059 69c2.25781 12.8027 8.89941 24 18.8994 24c16 0 25 -17 34 -47c11 -36 50 -65 108 -65c50 0 87 46 87 96c0 34 -15 59 -40 80l-135 114c-36 30 -59 66 -59 115c0 94 80 168 178 168z" />
    <glyph glyph-name="sacute" unicode="&#x15b;" horiz-adv-x="301" 
d="M165 512c-8 -9 -22 -22 -30 -22c-9 0 -9 4 -9 13c0 15 57 129 76 162c6 10 17 18 27 18c25 0 54 -7 54 -23c0 -14 -87 -115 -118 -148zM163 430c31 0 52.5986 -10.7783 84 -24c6.97949 -2.93848 8 -6 11 -16c3 -11 5 -40 5 -49c0 -12 0 -22 -12 -22
c-10 0 -24.1855 5.86328 -30 25c-7.26758 23.9199 -37 40 -68 40c-25 0 -46 -18 -46 -43c0 -28 20.668 -44.1104 43 -61l82 -62c27.915 -21.1123 48 -45 48 -80c0 -85 -69 -146 -151 -146c-28 0 -56 4 -66 8c-15 6 -20 7 -25 20s-17 48 -17 63c0 17 1 32 11 32s30 -9 44 -40
c13 -27 44 -38 77 -38c30.7607 0 59 20 59 50c0 44 -20.5156 54.6641 -45 72l-48 34c-44.5615 31.5508 -84 62 -84 112c0 68 58 125 128 125z" />
    <glyph glyph-name="Scircumflex" unicode="&#x15c;" horiz-adv-x="409" 
d="M101 646c-9 0 -15 4 -15 10c0 4 2 8 7 12l98 83c19 17 26 22 41 22s22 -5 41 -22l98 -83c5 -4 6 -8 6 -12c0 -6 -5 -11 -14 -11c-13 0 -95 35 -121 50c-9 5 -11 5 -20 0c-26 -15 -108 -49 -121 -49zM232 601c32 0 78.9268 -14.2637 101 -26
c18.542 -9.85938 27.916 -17.1826 30 -29c2.77832 -15.7568 4 -38 4 -57c0 -13 -5 -27 -20 -27c-12 0 -25 10 -40 46c-10 24 -50 36 -79 36c-43 0 -82 -35 -82 -79c0 -33 21 -59 51 -84l141 -119c31 -26 48 -60 48 -102c0 -98 -101 -171 -201 -171c-35 0 -81 11 -105 22
c-37 17 -46 22 -46 36s3.84375 56.1973 6.10059 69c2.25781 12.8027 8.89941 24 18.8994 24c16 0 25 -17 34 -47c11 -36 50 -65 108 -65c50 0 87 46 87 96c0 34 -15 59 -40 80l-135 114c-36 30 -59 66 -59 115c0 94 80 168 178 168z" />
    <glyph glyph-name="scircumflex" unicode="&#x15d;" horiz-adv-x="301" 
d="M157 586c-23 -32 -47 -59 -60 -74c-8 -9 -22 -22 -30 -22c-9 0 -9 4 -9 13c0 15 68 137 88 170c5 9 12 18 20 18s15 -9 20 -18c20 -33 89 -155 89 -170c0 -9 0 -13 -9 -13c-8 0 -22 13 -30 22c-13 15 -39 44 -61 74c-6 8 -12 8 -18 0zM163 430
c31 0 52.5986 -10.7783 84 -24c6.97949 -2.93848 8 -6 11 -16c3 -11 5 -40 5 -49c0 -12 0 -22 -12 -22c-10 0 -24.1855 5.86328 -30 25c-7.26758 23.9199 -37 40 -68 40c-25 0 -46 -18 -46 -43c0 -28 20.668 -44.1104 43 -61l82 -62c27.915 -21.1123 48 -45 48 -80
c0 -85 -69 -146 -151 -146c-28 0 -56 4 -66 8c-15 6 -20 7 -25 20s-17 48 -17 63c0 17 1 32 11 32s30 -9 44 -40c13 -27 44 -38 77 -38c30.7607 0 59 20 59 50c0 44 -20.5156 54.6641 -45 72l-48 34c-44.5615 31.5508 -84 62 -84 112c0 68 58 125 128 125z" />
    <glyph glyph-name="Scedilla" unicode="&#x15e;" horiz-adv-x="409" 
d="M135 -115c0 7 3 11 6 15l80 108h31l-41 -62c-5 -7 5 -14 10 -16c28 -12 66 -42 66 -89c0 -68 -84 -116 -129 -116c-35 0 -45 17 -45 32c0 23 8 34 16 34s14 -13 63 -13c17 0 42 10 42 39c0 24 -12 54 -47 54c-12 0 -17 -3 -26 -3c-17 0 -26 11 -26 17zM232 601
c32 0 78.9268 -14.2637 101 -26c18.542 -9.85938 27.916 -17.1826 30 -29c2.77832 -15.7568 4 -38 4 -57c0 -13 -5 -27 -20 -27c-12 0 -25 10 -40 46c-10 24 -50 36 -79 36c-43 0 -82 -35 -82 -79c0 -33 21 -59 51 -84l141 -119c31 -26 48 -60 48 -102
c0 -98 -101 -171 -201 -171c-35 0 -81 11 -105 22c-37 17 -46 22 -46 36s3.84375 56.1973 6.10059 69c2.25781 12.8027 8.89941 24 18.8994 24c16 0 25 -17 34 -47c11 -36 50 -65 108 -65c50 0 87 46 87 96c0 34 -15 59 -40 80l-135 114c-36 30 -59 66 -59 115
c0 94 80 168 178 168z" />
    <glyph glyph-name="scedilla" unicode="&#x15f;" horiz-adv-x="301" 
d="M201 6c-40 -28 -58 -56 -58 -67c0 -20 81 -64 81 -113c0 -55 -76 -94 -131 -94c-24 0 -34 16 -34 42c0 15 12 32 23 32c6 0 37 -29 58 -29c17 0 18 9 18 24c0 37 -82 75 -82 101c0 30 22 49 85 104h40zM163 430c31 0 52.5986 -10.7783 84 -24
c6.97949 -2.93848 8 -6 11 -16c3 -11 5 -40 5 -49c0 -12 0 -22 -12 -22c-10 0 -24.1855 5.86328 -30 25c-7.26758 23.9199 -37 40 -68 40c-25 0 -46 -18 -46 -43c0 -28 20.668 -44.1104 43 -61l82 -62c27.915 -21.1123 48 -45 48 -80c0 -85 -69 -146 -151 -146
c-28 0 -56 4 -66 8c-15 6 -20 7 -25 20s-17 48 -17 63c0 17 1 32 11 32s30 -9 44 -40c13 -27 44 -38 77 -38c30.7607 0 59 20 59 50c0 44 -20.5156 54.6641 -45 72l-48 34c-44.5615 31.5508 -84 62 -84 112c0 68 58 125 128 125z" />
    <glyph glyph-name="Scaron" unicode="&#x160;" horiz-adv-x="409" 
d="M101 787c13 0 95 -34 121 -49c9 -5 11 -5 20 0c26 15 108 50 121 50c9 0 14 -5 14 -11c0 -4 -1 -8 -6 -12l-98 -78c-20 -16 -26 -22 -41 -22s-21 6 -41 22l-98 78c-5 4 -7 8 -7 12c0 6 6 10 15 10zM232 601c32 0 78.9268 -14.2637 101 -26
c18.542 -9.85938 27.916 -17.1826 30 -29c2.77832 -15.7568 4 -38 4 -57c0 -13 -5 -27 -20 -27c-12 0 -25 10 -40 46c-10 24 -50 36 -79 36c-43 0 -82 -35 -82 -79c0 -33 21 -59 51 -84l141 -119c31 -26 48 -60 48 -102c0 -98 -101 -171 -201 -171c-35 0 -81 11 -105 22
c-37 17 -46 22 -46 36s3.84375 56.1973 6.10059 69c2.25781 12.8027 8.89941 24 18.8994 24c16 0 25 -17 34 -47c11 -36 50 -65 108 -65c50 0 87 46 87 96c0 34 -15 59 -40 80l-135 114c-36 30 -59 66 -59 115c0 94 80 168 178 168z" />
    <glyph glyph-name="scaron" unicode="&#x161;" horiz-adv-x="301" 
d="M174 590c23 32 47 59 60 74c8 9 22 22 30 22c9 0 9 -4 9 -13c0 -15 -68 -137 -88 -170c-5 -9 -12 -18 -20 -18s-15 9 -20 18c-20 33 -89 155 -89 170c0 9 0 13 9 13c8 0 22 -13 30 -22c13 -15 39 -44 61 -74c6 -8 12 -8 18 0zM163 430c31 0 52.5986 -10.7783 84 -24
c6.97949 -2.93848 8 -6 11 -16c3 -11 5 -40 5 -49c0 -12 0 -22 -12 -22c-10 0 -24.1855 5.86328 -30 25c-7.26758 23.9199 -37 40 -68 40c-25 0 -46 -18 -46 -43c0 -28 20.668 -44.1104 43 -61l82 -62c27.915 -21.1123 48 -45 48 -80c0 -85 -69 -146 -151 -146
c-28 0 -56 4 -66 8c-15 6 -20 7 -25 20s-17 48 -17 63c0 17 1 32 11 32s30 -9 44 -40c13 -27 44 -38 77 -38c30.7607 0 59 20 59 50c0 44 -20.5156 54.6641 -45 72l-48 34c-44.5615 31.5508 -84 62 -84 112c0 68 58 125 128 125z" />
    <glyph glyph-name="uni0162" unicode="&#x162;" horiz-adv-x="592" 
d="M230 -115c0 7 3 11 6 15l80 108h31l-41 -62c-5 -7 5 -14 10 -16c28 -12 66 -42 66 -89c0 -68 -84 -116 -129 -116c-35 0 -45 17 -45 32c0 23 8 34 16 34s14 -13 63 -13c17 0 42 10 42 39c0 24 -12 54 -47 54c-12 0 -17 -3 -26 -3c-17 0 -26 11 -26 17zM266 505
c0 20 -6 31 -16 31h-122c-26 0 -33 -12 -43 -30c-10.9268 -19.667 -18 -48 -32 -48c-13 0 -18 14 -18 23c0 23 5 31 5 63c0 16 -2 35 -2 45c0 13 7 25 17 25c15 0 40 -30 95 -30h349c36 0 52 7 70 17c12 7 17 15 29 15s18 -10 18 -18c0 -9 -4 -21 -4 -43c0 -24 2 -58 2 -69
c0 -15 -2 -23 -14 -23c-10 0 -25 26 -36 45c-8.91211 15.3936 -22 28 -36 28h-155c-10 0 -12 -21 -12 -31v-388c0 -37 13 -57 47 -72c22 -10 55 -15 55 -30c0 -10 -21 -16 -32 -17c-7 0 -73 6 -121 6c-47 0 -106 -6 -113 -6c-11 1 -33 7 -33 17c0 15 33 20 55 30
c34 15 47 35 47 72v388z" />
    <glyph glyph-name="uni0163" unicode="&#x163;" horiz-adv-x="325" 
d="M239 6c-40 -28 -58 -56 -58 -67c0 -20 81 -64 81 -113c0 -55 -76 -94 -131 -94c-24 0 -34 16 -34 42c0 15 12 32 23 32c6 0 37 -29 58 -29c17 0 18 9 18 24c0 37 -82 75 -82 101c0 30 22 49 85 104h40zM186 -8c-59 0 -108 29 -108 114v238c0 9 6 14 -31 14
c-9 0 -32 4 -32 14c0 14 42 42 67 63c14 12 52 50 65 50c12 0 14 -8 14 -25v-28c0 -10 9 -15 22 -15h97c16 0 20 -13 20 -23s-10 -36 -24 -36h-99c-12 0 -16 -5 -16 -19v-187c0 -70 17 -92 52 -92c37 0 62 18 72 18s15 -4 15 -14c0 -23 -54 -72 -114 -72z" />
    <glyph glyph-name="Tcaron" unicode="&#x164;" horiz-adv-x="592" 
d="M184 787c13 0 95 -34 121 -49c9 -5 11 -5 20 0c26 15 108 50 121 50c9 0 14 -5 14 -11c0 -4 -1 -8 -6 -12l-98 -78c-20 -16 -26 -22 -41 -22s-21 6 -41 22l-98 78c-5 4 -7 8 -7 12c0 6 6 10 15 10zM266 505c0 20 -6 31 -16 31h-122c-26 0 -33 -12 -43 -30
c-10.9268 -19.667 -18 -48 -32 -48c-13 0 -18 14 -18 23c0 23 5 31 5 63c0 16 -2 35 -2 45c0 13 7 25 17 25c15 0 40 -30 95 -30h349c36 0 52 7 70 17c12 7 17 15 29 15s18 -10 18 -18c0 -9 -4 -21 -4 -43c0 -24 2 -58 2 -69c0 -15 -2 -23 -14 -23c-10 0 -25 26 -36 45
c-8.91211 15.3936 -22 28 -36 28h-155c-10 0 -12 -21 -12 -31v-388c0 -37 13 -57 47 -72c22 -10 55 -15 55 -30c0 -10 -21 -16 -32 -17c-7 0 -73 6 -121 6c-47 0 -106 -6 -113 -6c-11 1 -33 7 -33 17c0 15 33 20 55 30c34 15 47 35 47 72v388z" />
    <glyph glyph-name="tcaron" unicode="&#x165;" horiz-adv-x="325" 
d="M245 629c0 21 35 48 56 48c12 0 13 -14 13 -30c0 -37 -21 -101 -39 -138c-8 -17 -15 -25 -21 -25c-4 0 -7 10 -7 23c0 5 3 34 3 49c0 37 -5 57 -5 73zM186 -8c-59 0 -108 29 -108 114v238c0 9 6 14 -31 14c-9 0 -32 4 -32 14c0 14 42 42 67 63c14 12 52 50 65 50
c12 0 14 -8 14 -25v-28c0 -10 9 -15 22 -15h97c16 0 20 -13 20 -23s-10 -36 -24 -36h-99c-12 0 -16 -5 -16 -19v-187c0 -70 17 -92 52 -92c37 0 62 18 72 18s15 -4 15 -14c0 -23 -54 -72 -114 -72z" />
    <glyph glyph-name="Tbar" unicode="&#x166;" horiz-adv-x="592" 
d="M157 304c-14 0 -36 1 -36 12c0 18 21 36 53 36h298c25 0 42 -2 42 -10c0 -15 -13 -38 -43 -38h-314zM266 505c0 20 -6 31 -16 31h-122c-26 0 -33 -12 -43 -30c-10.9268 -19.667 -18 -48 -32 -48c-13 0 -18 14 -18 23c0 23 5 31 5 63c0 16 -2 35 -2 45c0 13 7 25 17 25
c15 0 40 -30 95 -30h349c36 0 52 7 70 17c12 7 17 15 29 15s18 -10 18 -18c0 -9 -4 -21 -4 -43c0 -24 2 -58 2 -69c0 -15 -2 -23 -14 -23c-10 0 -25 26 -36 45c-8.91211 15.3936 -22 28 -36 28h-155c-10 0 -12 -21 -12 -31v-388c0 -37 13 -57 47 -72c22 -10 55 -15 55 -30
c0 -10 -21 -16 -32 -17c-7 0 -73 6 -121 6c-47 0 -106 -6 -113 -6c-11 1 -33 7 -33 17c0 15 33 20 55 30c34 15 47 35 47 72v388z" />
    <glyph glyph-name="tbar" unicode="&#x167;" horiz-adv-x="325" 
d="M52 222c-14 0 -36 1 -36 12c0 18 21 36 53 36h171c25 0 42 -2 42 -10c0 -15 -13 -38 -43 -38h-187zM186 -8c-59 0 -108 29 -108 114v238c0 9 6 14 -31 14c-9 0 -32 4 -32 14c0 14 42 42 67 63c14 12 52 50 65 50c12 0 14 -8 14 -25v-28c0 -10 9 -15 22 -15h97
c16 0 20 -13 20 -23s-10 -36 -24 -36h-99c-12 0 -16 -5 -16 -19v-187c0 -70 17 -92 52 -92c37 0 62 18 72 18s15 -4 15 -14c0 -23 -54 -72 -114 -72z" />
    <glyph glyph-name="Utilde" unicode="&#x168;" horiz-adv-x="617" 
d="M402 674c-25 0 -99 5 -124 5c-20 0 -47 -25 -57 -25c-8 0 -16 7 -16 17c0 23 59 68 84 68s94 -4 119 -4c35 0 50 39 62 39c10 0 17 -7 17 -17c0 -20 -58 -83 -85 -83zM560 492v-242c0 -155 -102 -256 -249 -256c-179 0 -225 101 -225 254v234c0 48 -7 53 -70 74
c-9 3 -16 8 -16 17c0 12 20 18 35 18c39 0 43 -5 79 -5c35 0 80 5 114 5c15 0 35 -6 35 -18c0 -9 -6 -14 -15 -17c-43 -14 -67 -32 -67 -72v-200c0 -160 29 -240 151 -240c137 0 171 104 171 260v186c0 52 -11 51 -53 65c-9 3 -17 9 -17 18c0 12 20 18 35 18s50 -5 65 -5
s49 5 64 5s35 -6 35 -18c0 -9 -8 -14 -17 -17c-46 -15 -55 -25 -55 -64z" />
    <glyph glyph-name="utilde" unicode="&#x169;" horiz-adv-x="474" 
d="M91 489c-10 0 -14 10 -14 20s63 84 88 84s82 -2 107 -2c35 0 58 44 66 44c10 0 16 -7 16 -17s-69 -101 -94 -101s-87 1 -112 1s-49 -29 -57 -29zM311 324c0 28 -19 42 -47 46c-12 2 -23 8 -23 19s15 23 29 25c36 5 102 16 112 16c12 0 12 -8 12 -27v-334
c0 -10 6 -13 16 -13c13 0 34 6 42 6c5 0 13 -9 13 -16c0 -13 -10 -21 -18 -25c-18 -9 -100 -33 -115 -33c-8 0 -13 9 -14 14c-3 10 -3 24 -6 38c-4 18 -7 12 -20 1c-45 -36 -77 -45 -135 -45s-99 64 -99 122v198c0 17 -3 41 -27 50c-11 4 -21 12 -21 23s13 19 27 21
c40 7 82 20 92 20c12 0 12 -8 12 -27v-252c0 -48 24.6035 -93 70 -93c55 0 100 33 100 77v189z" />
    <glyph glyph-name="Umacron" unicode="&#x16a;" horiz-adv-x="617" 
d="M217 742h263c6 0 13 -6 13 -12c0 -20 -15 -48 -31 -48h-255c-7 0 -14 6 -14 12c0 9 5 48 24 48zM560 492v-242c0 -155 -102 -256 -249 -256c-179 0 -225 101 -225 254v234c0 48 -7 53 -70 74c-9 3 -16 8 -16 17c0 12 20 18 35 18c39 0 43 -5 79 -5c35 0 80 5 114 5
c15 0 35 -6 35 -18c0 -9 -6 -14 -15 -17c-43 -14 -67 -32 -67 -72v-200c0 -160 29 -240 151 -240c137 0 171 104 171 260v186c0 52 -11 51 -53 65c-9 3 -17 9 -17 18c0 12 20 18 35 18s50 -5 65 -5s49 5 64 5s35 -6 35 -18c0 -9 -8 -14 -17 -17c-46 -15 -55 -25 -55 -64z
" />
    <glyph glyph-name="umacron" unicode="&#x16b;" horiz-adv-x="474" 
d="M123 596h203c6 0 13 -6 13 -12c0 -22 -10 -49 -31 -49h-195c-7 0 -14 6 -14 12c0 9 5 49 24 49zM311 324c0 28 -19 42 -47 46c-12 2 -23 8 -23 19s15 23 29 25c36 5 102 16 112 16c12 0 12 -8 12 -27v-334c0 -10 6 -13 16 -13c13 0 34 6 42 6c5 0 13 -9 13 -16
c0 -13 -10 -21 -18 -25c-18 -9 -100 -33 -115 -33c-8 0 -13 9 -14 14c-3 10 -3 24 -6 38c-4 18 -7 12 -20 1c-45 -36 -77 -45 -135 -45s-99 64 -99 122v198c0 17 -3 41 -27 50c-11 4 -21 12 -21 23s13 19 27 21c40 7 82 20 92 20c12 0 12 -8 12 -27v-252
c0 -48 24.6035 -93 70 -93c55 0 100 33 100 77v189z" />
    <glyph glyph-name="Ubreve" unicode="&#x16c;" horiz-adv-x="617" 
d="M236 764c27 -32 60 -41 103 -41s76 9 103 41c6 8 14 21 24 21s10 -11 10 -24c0 -40 -52 -104 -137 -104s-137 64 -137 104c0 13 4 24 10 24c10 0 18 -13 24 -21zM560 492v-242c0 -155 -102 -256 -249 -256c-179 0 -225 101 -225 254v234c0 48 -7 53 -70 74
c-9 3 -16 8 -16 17c0 12 20 18 35 18c39 0 43 -5 79 -5c35 0 80 5 114 5c15 0 35 -6 35 -18c0 -9 -6 -14 -15 -17c-43 -14 -67 -32 -67 -72v-200c0 -160 29 -240 151 -240c137 0 171 104 171 260v186c0 52 -11 51 -53 65c-9 3 -17 9 -17 18c0 12 20 18 35 18s50 -5 65 -5
s49 5 64 5s35 -6 35 -18c0 -9 -8 -14 -17 -17c-46 -15 -55 -25 -55 -64z" />
    <glyph glyph-name="ubreve" unicode="&#x16d;" horiz-adv-x="474" 
d="M139 615c5 -25 29 -43 79 -43s70 18 75 43c2 10 5 21 15 21s15 -11 15 -24c0 -50 -47 -106 -117 -106s-97 56 -97 106c0 13 5 24 15 24s13 -11 15 -21zM311 324c0 28 -19 42 -47 46c-12 2 -23 8 -23 19s15 23 29 25c36 5 102 16 112 16c12 0 12 -8 12 -27v-334
c0 -10 6 -13 16 -13c13 0 34 6 42 6c5 0 13 -9 13 -16c0 -13 -10 -21 -18 -25c-18 -9 -100 -33 -115 -33c-8 0 -13 9 -14 14c-3 10 -3 24 -6 38c-4 18 -7 12 -20 1c-45 -36 -77 -45 -135 -45s-99 64 -99 122v198c0 17 -3 41 -27 50c-11 4 -21 12 -21 23s13 19 27 21
c40 7 82 20 92 20c12 0 12 -8 12 -27v-252c0 -48 24.6035 -93 70 -93c55 0 100 33 100 77v189z" />
    <glyph glyph-name="Uring" unicode="&#x16e;" horiz-adv-x="617" 
d="M297 707c0 -28 18 -46 46 -46c25 0 36 21 36 46c0 27 -17 45 -44 45c-26 0 -38 -19 -38 -45zM342 779c42 0 83 -25 83 -67c0 -47 -44 -77 -91 -77c-43 0 -83 26 -83 69c0 46 45 75 91 75zM560 492v-242c0 -155 -102 -256 -249 -256c-179 0 -225 101 -225 254v234
c0 48 -7 53 -70 74c-9 3 -16 8 -16 17c0 12 20 18 35 18c39 0 43 -5 79 -5c35 0 80 5 114 5c15 0 35 -6 35 -18c0 -9 -6 -14 -15 -17c-43 -14 -67 -32 -67 -72v-200c0 -160 29 -240 151 -240c137 0 171 104 171 260v186c0 52 -11 51 -53 65c-9 3 -17 9 -17 18
c0 12 20 18 35 18s50 -5 65 -5s49 5 64 5s35 -6 35 -18c0 -9 -8 -14 -17 -17c-46 -15 -55 -25 -55 -64z" />
    <glyph glyph-name="uring" unicode="&#x16f;" horiz-adv-x="474" 
d="M177 613c0 -28 14 -58 42 -58c24 0 34 28 34 52c0 27 -17 53 -44 53c-22 0 -32 -25 -32 -47zM218 692c44 0 81 -34 81 -78c0 -52 -43 -89 -87 -89s-81 39 -81 83s43 84 87 84zM311 324c0 28 -19 42 -47 46c-12 2 -23 8 -23 19s15 23 29 25c36 5 102 16 112 16
c12 0 12 -8 12 -27v-334c0 -10 6 -13 16 -13c13 0 34 6 42 6c5 0 13 -9 13 -16c0 -13 -10 -21 -18 -25c-18 -9 -100 -33 -115 -33c-8 0 -13 9 -14 14c-3 10 -3 24 -6 38c-4 18 -7 12 -20 1c-45 -36 -77 -45 -135 -45s-99 64 -99 122v198c0 17 -3 41 -27 50
c-11 4 -21 12 -21 23s13 19 27 21c40 7 82 20 92 20c12 0 12 -8 12 -27v-252c0 -48 24.6035 -93 70 -93c55 0 100 33 100 77v189z" />
    <glyph glyph-name="Uhungarumlaut" unicode="&#x170;" horiz-adv-x="617" 
d="M239 662c-4 0 -6 3 -6 6c0 4 2 10 5 15c24 40 43 80 70 119c7 10 16 13 27 13c14 0 65 -9 65 -23c0 -7 -4 -11 -13 -19c-40 -34 -90 -72 -130 -102c-9 -7 -15 -9 -18 -9zM371 662c-4 0 -6 3 -6 6c0 4 2 10 5 15c24 40 44 80 71 119c7 10 16 13 27 13c14 0 64 -9 64 -23
c0 -7 -4 -11 -13 -19c-40 -34 -90 -72 -130 -102c-9 -7 -15 -9 -18 -9zM560 492v-242c0 -155 -102 -256 -249 -256c-179 0 -225 101 -225 254v234c0 48 -7 53 -70 74c-9 3 -16 8 -16 17c0 12 20 18 35 18c39 0 43 -5 79 -5c35 0 80 5 114 5c15 0 35 -6 35 -18
c0 -9 -6 -14 -15 -17c-43 -14 -67 -32 -67 -72v-200c0 -160 29 -240 151 -240c137 0 171 104 171 260v186c0 52 -11 51 -53 65c-9 3 -17 9 -17 18c0 12 20 18 35 18s50 -5 65 -5s49 5 64 5s35 -6 35 -18c0 -9 -8 -14 -17 -17c-46 -15 -55 -25 -55 -64z" />
    <glyph glyph-name="uhungarumlaut" unicode="&#x171;" horiz-adv-x="474" 
d="M163 523c-8 -9 -22 -22 -30 -22c-9 0 -9 4 -9 13c0 15 58 129 77 162c6 10 17 18 27 18c25 0 53 -7 53 -23c0 -14 -87 -115 -118 -148zM287 523c-8 -9 -22 -22 -30 -22c-9 0 -9 4 -9 13c0 15 58 129 77 162c6 10 17 18 27 18c25 0 53 -7 53 -23c0 -14 -87 -115 -118 -148
zM311 324c0 28 -19 42 -47 46c-12 2 -23 8 -23 19s15 23 29 25c36 5 102 16 112 16c12 0 12 -8 12 -27v-334c0 -10 6 -13 16 -13c13 0 34 6 42 6c5 0 13 -9 13 -16c0 -13 -10 -21 -18 -25c-18 -9 -100 -33 -115 -33c-8 0 -13 9 -14 14c-3 10 -3 24 -6 38c-4 18 -7 12 -20 1
c-45 -36 -77 -45 -135 -45s-99 64 -99 122v198c0 17 -3 41 -27 50c-11 4 -21 12 -21 23s13 19 27 21c40 7 82 20 92 20c12 0 12 -8 12 -27v-252c0 -48 24.6035 -93 70 -93c55 0 100 33 100 77v189z" />
    <glyph glyph-name="Uogonek" unicode="&#x172;" horiz-adv-x="617" 
d="M353 -274c-63 0 -107 50 -107 113c0 101 145 179 145 179h26s-86 -60 -86 -160c0 -35 24 -61 59 -61s72 35 81 40c5 3 12 2 12 -6c0 -43 -76 -105 -130 -105zM560 492v-242c0 -155 -102 -256 -249 -256c-179 0 -225 101 -225 254v234c0 48 -7 53 -70 74
c-9 3 -16 8 -16 17c0 12 20 18 35 18c39 0 43 -5 79 -5c35 0 80 5 114 5c15 0 35 -6 35 -18c0 -9 -6 -14 -15 -17c-43 -14 -67 -32 -67 -72v-200c0 -160 29 -240 151 -240c137 0 171 104 171 260v186c0 52 -11 51 -53 65c-9 3 -17 9 -17 18c0 12 20 18 35 18s50 -5 65 -5
s49 5 64 5s35 -6 35 -18c0 -9 -8 -14 -17 -17c-46 -15 -55 -25 -55 -64z" />
    <glyph glyph-name="uogonek" unicode="&#x173;" horiz-adv-x="474" 
d="M318 -127c0 -31 12 -65 43 -65c27 0 50 11 66 33c4 6 9 13 14 13c9 0 12 -7 12 -18c0 -60 -64 -106 -125 -106c-43 0 -72 49 -72 100c0 82 49 140 111 178h40c-62 -48 -89 -76 -89 -135zM311 324c0 28 -19 42 -47 46c-12 2 -23 8 -23 19s15 23 29 25c36 5 102 16 112 16
c12 0 12 -8 12 -27v-334c0 -10 6 -13 16 -13c13 0 34 6 42 6c5 0 13 -9 13 -16c0 -13 -10 -21 -18 -25c-18 -9 -100 -33 -115 -33c-8 0 -13 9 -14 14c-3 10 -3 24 -6 38c-4 18 -7 12 -20 1c-45 -36 -77 -45 -135 -45s-99 64 -99 122v198c0 17 -3 41 -27 50
c-11 4 -21 12 -21 23s13 19 27 21c40 7 82 20 92 20c12 0 12 -8 12 -27v-252c0 -48 24.6035 -93 70 -93c55 0 100 33 100 77v189z" />
    <glyph glyph-name="Wcircumflex" unicode="&#x174;" horiz-adv-x="914" 
d="M335 646c-9 0 -15 4 -15 10c0 4 2 8 7 12l98 83c19 17 26 22 41 22s22 -5 41 -22l98 -83c5 -4 6 -8 6 -12c0 -6 -5 -11 -14 -11c-13 0 -95 35 -121 50c-9 5 -11 5 -20 0c-26 -15 -108 -49 -121 -49zM711 555c-9 3 -17 9 -17 18c0 12 20 18 35 18s57 -5 72 -5s49 5 64 5
s35 -6 35 -18c0 -9 -8 -14 -17 -17c-46 -15 -64 -48 -80 -93l-124 -342c-16.6787 -46.0742 -53 -136 -66 -136c-8 0 -22.5186 27.8135 -38 69l-120.841 321.182l-92.1592 -254.182c-16.6787 -46.0742 -53 -136 -66 -136c-8 0 -22.5186 27.8135 -38 69l-152 404
c-17 46 -27 77 -90 98c-9 3 -16 8 -16 17c0 12 20 18 35 18c39 0 43 -5 79 -5c35 0 90 5 124 5c15 0 35 -6 35 -18c0 -9 -6 -14 -15 -17c-43 -14 -79 -32 -63 -76l120 -319c5.27734 -14.041 8.29004 -15.2412 13 -1l101.53 280.645l-6.53027 17.3555
c-17 46 -29.3008 83.7959 -72 98c-9.48828 3.15625 -16 8 -16 17c0 12 20 18 35 18c39 0 43 -5 79 -5c35 0 72 5 106 5c15 0 35 -6 35 -18c0 -9 -6 -14 -15 -17c-43 -14 -79 -32 -63 -76l120 -319c5.27734 -14.041 8.29004 -15.2412 13 -1l106 293c23 69 2 88 -40 102z" />
    <glyph glyph-name="wcircumflex" unicode="&#x175;" horiz-adv-x="628" 
d="M316 586c-23 -32 -47 -59 -60 -74c-8 -9 -22 -22 -30 -22c-9 0 -9 4 -9 13c0 15 68 137 88 170c5 9 12 18 20 18s15 -9 20 -18c20 -33 89 -155 89 -170c0 -9 0 -13 -9 -13c-8 0 -22 13 -30 22c-13 15 -39 44 -61 74c-6 8 -12 8 -18 0zM515 380c-15 3 -28 13 -28 23
s9 20 25 20c15 0 40 -6 55 -6s33 6 48 6c16 0 24 -10 24 -20s-19 -18 -34 -23c-11 -4 -29 -22 -43 -57l-79 -200c-17 -42 -45 -137 -63 -137c-10 0 -19 23 -25 40l-78 205l-43 -108c-17 -42 -45 -137 -63 -137c-10 0 -19 23 -25 40l-111 291c-10 26 -24 58 -39 63
s-33 13 -33 23s8 20 24 20c15 0 49 -6 64 -6s57 6 72 6c16 0 25 -10 25 -20s-12 -18 -34 -25c-5 -1 -9 -14 -5 -24l71 -183c4 -10 13 -40 19 -40c7 0 14 30 18 40l41 110l-14 36c-10 26 -24 58 -39 63s-33 13 -33 23s8 20 24 20c15 0 49 -6 64 -6s69 6 84 6
c16 0 25 -10 25 -20s-12 -20 -29 -28c-12 -5 -23 -18 -15 -39l64 -165c4 -10 13 -38 19 -38c7 0 14 28 18 38l56 150c8 20 10 34 10 41c0 10 -11 17 -17 18z" />
    <glyph glyph-name="Ycircumflex" unicode="&#x176;" horiz-adv-x="521" 
d="M153 646c-9 0 -15 4 -15 10c0 4 2 8 7 12l98 83c19 17 26 22 41 22s22 -5 41 -22l98 -83c5 -4 6 -8 6 -12c0 -6 -5 -11 -14 -11c-13 0 -95 35 -121 50c-9 5 -11 5 -20 0c-26 -15 -108 -49 -121 -49zM325 118c0 -38 13 -58 47 -73c22 -10 55 -15 55 -30
c0 -10 -21 -16 -32 -17c-7 0 -73 6 -121 6c-47 0 -106 -6 -113 -6c-11 1 -33 7 -33 17c0 15 33 20 55 30c34 15 47 35 47 73v114c0 24 -4.90039 31.0049 -16 50l-96 164c-40.8135 69.9668 -65 98 -102 110c-9 3 -16 8 -16 17c0 12 20 18 35 18c39 0 43 -5 79 -5
c35 0 62 5 96 5c15 0 35 -6 35 -18c0 -9 -6 -14 -15 -17c-29 -10 -44.5742 -34.707 -34 -54l91 -156c8.57715 -14.6777 11.7344 -16.7236 21 1l88 168c6.35645 12.4736 -11 34 -29 40c-9 3 -17 9 -17 18c0 12 20 18 35 18s57 -5 72 -5s49 5 64 5s35 -6 35 -18
c0 -9 -8 -14 -17 -17c-60 -20 -83.7891 -32.6484 -119 -100l-77 -147c-15.752 -30.1309 -18 -41 -18 -55v-136z" />
    <glyph glyph-name="ycircumflex" unicode="&#x177;" horiz-adv-x="419" 
d="M216 586c-23 -32 -47 -59 -60 -74c-8 -9 -22 -22 -30 -22c-9 0 -9 4 -9 13c0 15 68 137 88 170c5 9 12 18 20 18s15 -9 20 -18c20 -33 89 -155 89 -170c0 -9 0 -13 -9 -13c-8 0 -22 13 -30 22c-13 15 -39 44 -61 74c-6 8 -12 8 -18 0zM187 35l-112 282
c-10 26 -24 58 -39 63s-33 13 -33 23s8 20 24 20c15 0 49 -6 64 -6s57 6 72 6c16 0 25 -10 25 -20s-12 -18 -34 -25c-5 -1 -9 -14 -5 -24l81 -204c7.39453 -18.583 11.3184 -17.957 17 -3l66 174c8 20 10 34 10 41c0 10 -11 17 -17 18c-15 3 -28 13 -28 23s9 20 25 20
c15 0 40 -6 55 -6s33 6 48 6c16 0 24 -10 24 -20s-19 -18 -34 -23c-11 -4 -30.2158 -23.3467 -43 -57l-193 -509c-9.23242 -24.3057 -43 -75 -89 -75c-32 0 -51 29 -51 57c0 30 30 56 60 56c38 0 60 20 71 43c23 49 41 93 41 115c0 9 -2 18 -5 25z" />
    <glyph glyph-name="Ydieresis" unicode="&#x178;" horiz-adv-x="521" 
d="M193 760c28 0 54 -26 54 -54s-26 -54 -54 -54s-54 26 -54 54s26 54 54 54zM380 760c28 0 54 -26 54 -54s-26 -54 -54 -54s-54 26 -54 54s26 54 54 54zM325 118c0 -38 13 -58 47 -73c22 -10 55 -15 55 -30c0 -10 -21 -16 -32 -17c-7 0 -73 6 -121 6c-47 0 -106 -6 -113 -6
c-11 1 -33 7 -33 17c0 15 33 20 55 30c34 15 47 35 47 73v114c0 24 -4.90039 31.0049 -16 50l-96 164c-40.8135 69.9668 -65 98 -102 110c-9 3 -16 8 -16 17c0 12 20 18 35 18c39 0 43 -5 79 -5c35 0 62 5 96 5c15 0 35 -6 35 -18c0 -9 -6 -14 -15 -17
c-29 -10 -44.5742 -34.707 -34 -54l91 -156c8.57715 -14.6777 11.7344 -16.7236 21 1l88 168c6.35645 12.4736 -11 34 -29 40c-9 3 -17 9 -17 18c0 12 20 18 35 18s57 -5 72 -5s49 5 64 5s35 -6 35 -18c0 -9 -8 -14 -17 -17c-60 -20 -83.7891 -32.6484 -119 -100l-77 -147
c-15.752 -30.1309 -18 -41 -18 -55v-136z" />
    <glyph glyph-name="Zacute" unicode="&#x179;" horiz-adv-x="591" 
d="M258 650c-4 0 -6 3 -6 6c0 4 2 10 5 15c24 40 44 80 71 119c7 10 16 13 27 13c14 0 64 -9 64 -23c0 -7 -4 -11 -13 -19c-40 -34 -90 -72 -130 -102c-9 -7 -15 -9 -18 -9zM258 3c-76 0 -137 -5 -203 -5c-12 0 -18 8 -18 28c0 8 25 36 63 89l286 405
c12.1055 17.1602 7 22 -13 22h-195c-37 0 -54 -11 -67 -26c-19 -22 -47 -62 -56 -62c-12 0 -15 14 -15 28c0 8 4.71973 56.4141 11 92c3 17 11 22 23 22c18 0 37 -11 84 -11h182c28 0 125 3 159 3c22 0 39 2 39 -23c0 -11 -13 -30 -37 -63l-312 -437
c-11.6143 -16.2822 -6 -20 14 -20h215c77 0 90 60 119 121c5 11 18 19 27 19c10 0 18 -19 18 -47c0 -27 -25 -108 -33 -121c-8 -15 -11 -19 -28 -19c-37 0 -233 5 -263 5z" />
    <glyph glyph-name="zacute" unicode="&#x17a;" horiz-adv-x="432" 
d="M238 512c-8 -9 -22 -22 -30 -22c-9 0 -9 4 -9 13c0 15 57 129 76 162c6 10 17 18 27 18c25 0 54 -7 54 -23c0 -14 -87 -115 -118 -148zM84 422c12 0 30 -5 50 -5h188c41 0 64 4 77 4c14 0 12 -14 12 -22c0 -12 -26.748 -36.1895 -44 -59l-224 -279
c-8.77246 -10.9111 3 -14 17 -14h121c28 0 39 4 71 43c22 27 39 56 49 56c9 0 14 -8 14 -25c0 -50 -37 -123 -51 -123c-37 0 -82 6 -139 6c-55 0 -105 -6 -174 -6c-17 0 -32 13 -32 25c0 14 11 27 29 50l223 277c13.1582 16.3662 12 18 -4 18h-124
c-28 0 -39.9336 -7.06348 -62 -38c-11.6143 -16.2822 -25 -27 -32 -27c-10 0 -15 5 -15 22c0 35 32 97 50 97z" />
    <glyph glyph-name="Zdotaccent" unicode="&#x17b;" horiz-adv-x="591" 
d="M290 770c32 0 59 -27 59 -59s-27 -59 -59 -59s-59 27 -59 59s27 59 59 59zM258 3c-76 0 -137 -5 -203 -5c-12 0 -18 8 -18 28c0 8 25 36 63 89l286 405c12.1055 17.1602 7 22 -13 22h-195c-37 0 -54 -11 -67 -26c-19 -22 -47 -62 -56 -62c-12 0 -15 14 -15 28
c0 8 4.71973 56.4141 11 92c3 17 11 22 23 22c18 0 37 -11 84 -11h182c28 0 125 3 159 3c22 0 39 2 39 -23c0 -11 -13 -30 -37 -63l-312 -437c-11.6143 -16.2822 -6 -20 14 -20h215c77 0 90 60 119 121c5 11 18 19 27 19c10 0 18 -19 18 -47c0 -27 -25 -108 -33 -121
c-8 -15 -11 -19 -28 -19c-37 0 -233 5 -263 5z" />
    <glyph glyph-name="zdotaccent" unicode="&#x17c;" horiz-adv-x="432" 
d="M239 645c30 0 55 -24 55 -54c0 -31 -24 -56 -55 -56s-55 25 -55 56c0 30 25 54 55 54zM84 422c12 0 30 -5 50 -5h188c41 0 64 4 77 4c14 0 12 -14 12 -22c0 -12 -26.748 -36.1895 -44 -59l-224 -279c-8.77246 -10.9111 3 -14 17 -14h121c28 0 39 4 71 43
c22 27 39 56 49 56c9 0 14 -8 14 -25c0 -50 -37 -123 -51 -123c-37 0 -82 6 -139 6c-55 0 -105 -6 -174 -6c-17 0 -32 13 -32 25c0 14 11 27 29 50l223 277c13.1582 16.3662 12 18 -4 18h-124c-28 0 -39.9336 -7.06348 -62 -38c-11.6143 -16.2822 -25 -27 -32 -27
c-10 0 -15 5 -15 22c0 35 32 97 50 97z" />
    <glyph glyph-name="Zcaron" unicode="&#x17d;" horiz-adv-x="591" 
d="M163 787c13 0 95 -34 121 -49c9 -5 11 -5 20 0c26 15 108 50 121 50c9 0 14 -5 14 -11c0 -4 -1 -8 -6 -12l-98 -78c-20 -16 -26 -22 -41 -22s-21 6 -41 22l-98 78c-5 4 -7 8 -7 12c0 6 6 10 15 10zM258 3c-76 0 -137 -5 -203 -5c-12 0 -18 8 -18 28c0 8 25 36 63 89
l286 405c12.1055 17.1602 7 22 -13 22h-195c-37 0 -54 -11 -67 -26c-19 -22 -47 -62 -56 -62c-12 0 -15 14 -15 28c0 8 4.71973 56.4141 11 92c3 17 11 22 23 22c18 0 37 -11 84 -11h182c28 0 125 3 159 3c22 0 39 2 39 -23c0 -11 -13 -30 -37 -63l-312 -437
c-11.6143 -16.2822 -6 -20 14 -20h215c77 0 90 60 119 121c5 11 18 19 27 19c10 0 18 -19 18 -47c0 -27 -25 -108 -33 -121c-8 -15 -11 -19 -28 -19c-37 0 -233 5 -263 5z" />
    <glyph glyph-name="zcaron" unicode="&#x17e;" horiz-adv-x="432" 
d="M247 590c23 32 47 59 60 74c8 9 22 22 30 22c9 0 9 -4 9 -13c0 -15 -68 -137 -88 -170c-5 -9 -12 -18 -20 -18s-15 9 -20 18c-20 33 -89 155 -89 170c0 9 0 13 9 13c8 0 22 -13 30 -22c13 -15 39 -44 61 -74c6 -8 12 -8 18 0zM84 422c12 0 30 -5 50 -5h188
c41 0 64 4 77 4c14 0 12 -14 12 -22c0 -12 -26.748 -36.1895 -44 -59l-224 -279c-8.77246 -10.9111 3 -14 17 -14h121c28 0 39 4 71 43c22 27 39 56 49 56c9 0 14 -8 14 -25c0 -50 -37 -123 -51 -123c-37 0 -82 6 -139 6c-55 0 -105 -6 -174 -6c-17 0 -32 13 -32 25
c0 14 11 27 29 50l223 277c13.1582 16.3662 12 18 -4 18h-124c-28 0 -39.9336 -7.06348 -62 -38c-11.6143 -16.2822 -25 -27 -32 -27c-10 0 -15 5 -15 22c0 35 32 97 50 97z" />
    <glyph glyph-name="longs" unicode="&#x17f;" horiz-adv-x="286" 
d="M50 362c-10 1 -27 3 -27 13c0 14 33 43 61 53c11 4 13 10 13 21c0 59 84 241 235 241c82 0 134 -32 134 -82c0 -23 -18 -46 -43 -46c-20 0 -42 15 -75 43c-24 20 -54 31 -68 31c-80 0 -100 -123 -100 -211v-317c0 -25 11 -56 38 -64s43 -16 43 -26s-8 -20 -34 -20
c-22 0 -72 6 -88 6c-20 0 -67 -6 -89 -6c-26 0 -35 10 -35 20s17 18 44 26s38 39 38 64l1 254h-48z" />
    <glyph glyph-name="Ohorn" unicode="&#x1a0;" horiz-adv-x="713" 
d="M614 713c62 0 114 -50 114 -110c0 -66 -77 -179 -136 -179c-9 0 -14 5 -14 13c0 17 73 62 73 111c0 37 -28 48 -54 63c-22 12 -39 27 -39 50c0 31 27 52 56 52zM162 330c0 -139 79 -296 218 -296c119 0 171 127 171 246c0 130 -69 272 -199 272
c-110 0 -190 -112 -190 -222zM390 598c136 0 273 -142 273 -288c0 -171 -126 -322 -297 -322c-179 0 -316 125 -316 307c0 189 142 303 340 303z" />
    <glyph glyph-name="ohorn" unicode="&#x1a1;" horiz-adv-x="487" 
d="M429 609c62 0 114 -50 114 -110c0 -66 -77 -179 -136 -179c-9 0 -14 5 -14 13c0 17 73 62 73 111c0 37 -28 48 -54 63c-22 12 -39 27 -39 50c0 31 27 52 56 52zM122 237c0 -94 45 -198 138 -198c74 0 105 90 105 164c0 89 -46 185 -133 185c-72 0 -110 -79 -110 -151z
M239 430c116 0 225 -84 225 -200c0 -129 -102 -238 -230 -238c-122 0 -212 104 -212 223c0 120 109 215 217 215z" />
    <glyph glyph-name="Uhorn" unicode="&#x1af;" horiz-adv-x="617" 
d="M578 778c62 0 114 -50 114 -110c0 -66 -77 -179 -136 -179c-9 0 -14 5 -14 13c0 17 73 62 73 111c0 37 -28 48 -54 63c-22 12 -39 27 -39 50c0 31 27 52 56 52zM560 492v-242c0 -155 -102 -256 -249 -256c-179 0 -225 101 -225 254v234c0 48 -7 53 -70 74
c-9 3 -16 8 -16 17c0 12 20 18 35 18c39 0 43 -5 79 -5c35 0 80 5 114 5c15 0 35 -6 35 -18c0 -9 -6 -14 -15 -17c-43 -14 -67 -32 -67 -72v-200c0 -160 29 -240 151 -240c137 0 171 104 171 260v186c0 52 -11 51 -53 65c-9 3 -17 9 -17 18c0 12 20 18 35 18s50 -5 65 -5
s49 5 64 5s35 -6 35 -18c0 -9 -8 -14 -17 -17c-46 -15 -55 -25 -55 -64z" />
    <glyph glyph-name="uhorn" unicode="&#x1b0;" horiz-adv-x="474" 
d="M422 689c62 0 114 -50 114 -110c0 -66 -77 -179 -136 -179c-9 0 -14 5 -14 13c0 17 73 62 73 111c0 37 -28 48 -54 63c-22 12 -39 27 -39 50c0 31 27 52 56 52zM311 324c0 28 -19 42 -47 46c-12 2 -23 8 -23 19s15 23 29 25c36 5 102 16 112 16c12 0 12 -8 12 -27v-334
c0 -10 6 -13 16 -13c13 0 34 6 42 6c5 0 13 -9 13 -16c0 -13 -10 -21 -18 -25c-18 -9 -100 -33 -115 -33c-8 0 -13 9 -14 14c-3 10 -3 24 -6 38c-4 18 -7 12 -20 1c-45 -36 -77 -45 -135 -45s-99 64 -99 122v198c0 17 -3 41 -27 50c-11 4 -21 12 -21 23s13 19 27 21
c40 7 82 20 92 20c12 0 12 -8 12 -27v-252c0 -48 24.6035 -93 70 -93c55 0 100 33 100 77v189z" />
    <glyph glyph-name="uni01B7" unicode="&#x1b7;" 
 />
    <glyph glyph-name="uni01C4" unicode="&#x1c4;" horiz-adv-x="1307" 
d="M879 787c13 0 95 -34 121 -49c9 -5 11 -5 20 0c26 15 108 50 121 50c9 0 14 -5 14 -11c0 -4 -1 -8 -6 -12l-98 -78c-20 -16 -26 -22 -41 -22s-21 6 -41 22l-98 78c-5 4 -7 8 -7 12c0 6 6 10 15 10zM974 3c-76 0 -137 -5 -203 -5c-12 0 -18 8 -18 28c0 8 25 36 63 89
l286 405c12.1055 17.1602 7 22 -13 22h-195c-37 0 -54 -11 -67 -26c-19 -22 -47 -62 -56 -62c-12 0 -15 14 -15 28c0 8 4.71973 56.4141 11 92c3 17 11 22 23 22c18 0 37 -11 84 -11h182c28 0 125 3 159 3c22 0 39 2 39 -23c0 -11 -13 -30 -37 -63l-312 -437
c-11.6143 -16.2822 -6 -20 14 -20h215c77 0 90 60 119 121c5 11 18 19 27 19c10 0 18 -19 18 -47c0 -27 -25 -108 -33 -121c-8 -15 -11 -19 -28 -19c-37 0 -233 5 -263 5zM217 521v-398c0 -67 26 -85 160 -85c119 0 182 134 182 261c0 146 -113 254 -255 254
c-43 0 -87 -10 -87 -32zM337 598c168 0 334 -109 334 -279c0 -173 -97 -326 -312 -326c-95 0 -148 11 -194 11s-105 -6 -112 -6c-11 1 -33 6 -33 17c0 15 33 20 55 30c33 15 47 35 47 72v365c0 57 -25 57 -82 74c-9 3 -16 8 -16 17c0 12 14 18 35 18c31 0 50 -1 80 -1
c62 0 136 8 198 8z" />
    <glyph glyph-name="uni01C5" unicode="&#x1c5;" horiz-adv-x="1148" 
d="M963 590c23 32 47 59 60 74c8 9 22 22 30 22c9 0 9 -4 9 -13c0 -15 -68 -137 -88 -170c-5 -9 -12 -18 -20 -18s-15 9 -20 18c-20 33 -89 155 -89 170c0 9 0 13 9 13c8 0 22 -13 30 -22c13 -15 39 -44 61 -74c6 -8 12 -8 18 0zM800 422c12 0 30 -5 50 -5h188
c41 0 64 4 77 4c14 0 12 -14 12 -22c0 -12 -26.748 -36.1895 -44 -59l-224 -279c-8.77246 -10.9111 3 -14 17 -14h121c28 0 39 4 71 43c22 27 39 56 49 56c9 0 14 -8 14 -25c0 -50 -37 -123 -51 -123c-37 0 -82 6 -139 6c-55 0 -105 -6 -174 -6c-17 0 -32 13 -32 25
c0 14 11 27 29 50l223 277c13.1582 16.3662 12 18 -4 18h-124c-28 0 -39.9336 -7.06348 -62 -38c-11.6143 -16.2822 -25 -27 -32 -27c-10 0 -15 5 -15 22c0 35 32 97 50 97zM217 521v-398c0 -67 26 -85 160 -85c119 0 182 134 182 261c0 146 -113 254 -255 254
c-43 0 -87 -10 -87 -32zM337 598c168 0 334 -109 334 -279c0 -173 -97 -326 -312 -326c-95 0 -148 11 -194 11s-105 -6 -112 -6c-11 1 -33 6 -33 17c0 15 33 20 55 30c33 15 47 35 47 72v365c0 57 -25 57 -82 74c-9 3 -16 8 -16 17c0 12 14 18 35 18c31 0 50 -1 80 -1
c62 0 136 8 198 8z" />
    <glyph glyph-name="uni01C6" unicode="&#x1c6;" horiz-adv-x="918" 
d="M733 590c23 32 47 59 60 74c8 9 22 22 30 22c9 0 9 -4 9 -13c0 -15 -68 -137 -88 -170c-5 -9 -12 -18 -20 -18s-15 9 -20 18c-20 33 -89 155 -89 170c0 9 0 13 9 13c8 0 22 -13 30 -22c13 -15 39 -44 61 -74c6 -8 12 -8 18 0zM570 422c12 0 30 -5 50 -5h188
c41 0 64 4 77 4c14 0 12 -14 12 -22c0 -12 -26.748 -36.1895 -44 -59l-224 -279c-8.77246 -10.9111 3 -14 17 -14h121c28 0 39 4 71 43c22 27 39 56 49 56c9 0 14 -8 14 -25c0 -50 -37 -123 -51 -123c-37 0 -82 6 -139 6c-55 0 -105 -6 -174 -6c-17 0 -32 13 -32 25
c0 14 11 27 29 50l223 277c13.1582 16.3662 12 18 -4 18h-124c-28 0 -39.9336 -7.06348 -62 -38c-11.6143 -16.2822 -25 -27 -32 -27c-10 0 -15 5 -15 22c0 35 32 97 50 97zM115 233c0 -90 43 -177 129 -177c39 0 78 22 78 62v153c0 63 -50 116 -112 116
c-70 0 -95 -84 -95 -154zM393 681c12 0 12 -8 12 -27v-570c0 -23 6 -28 16 -28c13 0 46 6 54 6c5 0 13 -9 13 -16c0 -13 -5 -21 -13 -25c-18 -9 -117 -33 -132 -33c-8 0 -13 9 -14 14c-3 10 -6 23 -9 38c-2 10 -5 11 -12 1c-23 -33 -62 -49 -102 -49
c-102 0 -183 88 -183 190c0 125 82 248 208 248c32 0 64 -12 78 -26c9 -8 11 -3 13 16v147c0 17 -17 37 -41 46c-11 4 -23 12 -23 23s15 19 29 21c40 7 96 24 106 24z" />
    <glyph glyph-name="uni01C7" unicode="&#x1c7;" horiz-adv-x="905" 
d="M808 481v-341c0 -210 -29 -242 -60 -276c-32 -35 -73 -57 -132 -57c-65 0 -94 29 -94 50c0 27 18 56 36 56c26 0 38 -8 50 -26c15 -23 30 -38 47 -38c47 0 58 60 58 157v475c0 58 -25 59 -82 75c-9 3 -16 8 -16 17c0 12 20 18 35 18c39 0 75 -5 111 -5c35 0 76 5 110 5
c15 0 35 -6 35 -18c0 -9 -6 -14 -15 -17c-57 -16 -83 -17 -83 -75zM217 85c0 -29 13 -40 44 -40h134c77 0 90 60 119 121c5 11 18 19 27 19c10 0 18 -19 18 -47c0 -27 -25 -108 -33 -121c-8 -15 -11 -19 -28 -19c-37 0 -226 5 -332 5c-47 0 -106 -5 -113 -5
c-11 1 -33 7 -33 17c0 15 33 20 55 30c34 15 47 35 47 72v365c0 57 -25 58 -82 74c-9 3 -16 8 -16 17c0 12 14 18 36 18c39 0 75 -5 111 -5c35 0 76 5 110 5c15 0 35 -6 35 -18c0 -9 -6 -14 -15 -17c-57 -16 -84 -17 -84 -74v-397z" />
    </font>
</defs>
</svg>
